<svg width="49" height="30" viewBox="0 0 49 30" fill="none" xmlns="http://www.w3.org/2000/svg">
<path d="M30.7929 3.2085H17.668V26.791H30.7929V3.2085Z" fill="#FF5A00"/>
<path d="M18.5418 15C18.5418 10.2087 20.794 5.95631 24.25 3.20874C21.7066 1.20874 18.4981 0 14.9985 0C6.70807 0 0 6.70874 0 15C0 23.2913 6.70807 30 14.9985 30C18.4981 30 21.7066 28.7913 24.25 26.7913C20.7892 24.0825 18.5418 19.7913 18.5418 15Z" fill="#EB001B"/>
<path d="M48.5 15C48.5 23.2913 41.7919 30 33.5015 30C30.0019 30 26.7934 28.7913 24.25 26.7913C27.7496 24.0388 29.9582 19.7913 29.9582 15C29.9582 10.2087 27.706 5.95631 24.25 3.20874C26.7886 1.20874 29.997 0 33.4966 0C41.7919 0 48.5 6.75243 48.5 15Z" fill="#F79E1B"/>
</svg>
