<svg width="92" height="30" viewBox="0 0 92 30" fill="none" xmlns="http://www.w3.org/2000/svg">
<g clip-path="url(#clip0_132_11030)">
<path d="M59.9104 0.0463867C53.3848 0.0463867 47.5529 3.44389 47.5529 9.7196C47.5529 16.9175 57.8956 17.4146 57.8956 21.031C57.8956 22.5538 56.1586 23.9167 53.1907 23.9167C48.9798 23.9167 45.8325 22.0123 45.8325 22.0123L44.4856 28.3463C44.4856 28.3463 48.1114 29.9549 52.9248 29.9549C60.0594 29.9549 65.6742 26.3911 65.6742 20.0073C65.6742 12.401 55.2883 11.9187 55.2883 8.56277C55.2883 7.3699 56.7143 6.06339 59.673 6.06339C63.0117 6.06339 65.7349 7.44844 65.7349 7.44844L67.0532 1.33165C67.0532 1.33165 64.089 0.0463867 59.9094 0.0463867H59.9104ZM0.205115 0.50838L0.046875 1.43144C0.046875 1.43144 2.79216 1.93594 5.26512 2.94308C8.44923 4.09714 8.67556 4.76981 9.21192 6.85617L15.0548 29.4781H22.8877L34.9544 0.50838H27.14L19.3862 20.205L16.2223 3.50856C15.9325 1.59776 14.4624 0.507456 12.6638 0.507456H0.206035L0.205115 0.50838ZM38.0972 0.50838L31.9672 29.4781H39.4192L45.5271 0.50838H38.0972ZM79.6591 0.50838C77.8623 0.50838 76.9101 1.47487 76.2118 3.16299L65.2942 29.4781H73.1087L74.6202 25.092H84.1404L85.0595 29.4781H91.9549L85.9399 0.50838H79.6591ZM80.6757 8.33547L82.9922 19.2062H76.7868L80.6766 8.33547H80.6757Z" fill="#1434CB"/>
</g>
<defs>
<clipPath id="clip0_132_11030">
<rect width="92" height="30" fill="white"/>
</clipPath>
</defs>
</svg>
