<svg width="49" height="30" fill="none" xmlns="http://www.w3.org/2000/svg"><path d="M30.793 3.208H17.668v23.583h13.125V3.209Z" fill="#FF5A00"/><path d="M18.542 15c0-4.791 2.252-9.044 5.708-11.791A14.917 14.917 0 0 0 14.998 0C6.709 0 0 6.709 0 15s6.708 15 14.998 15c3.5 0 6.709-1.209 9.252-3.209A14.97 14.97 0 0 1 18.542 15Z" fill="#EB001B"/><path d="M48.5 15c0 8.291-6.708 15-14.998 15-3.5 0-6.709-1.209-9.252-3.209 3.5-2.752 5.708-7 5.708-11.791S27.706 5.956 24.25 3.209C26.789 1.209 29.997 0 33.497 0 41.792 0 48.5 6.752 48.5 15Z" fill="#F79E1B"/></svg>