<svg width="92" height="30" fill="none" xmlns="http://www.w3.org/2000/svg"><g clip-path="url(#a)"><path d="M59.91.046c-6.525 0-12.357 3.398-12.357 9.674 0 7.197 10.343 7.695 10.343 11.311 0 1.523-1.737 2.886-4.705 2.886-4.211 0-7.358-1.905-7.358-1.905l-1.347 6.334s3.625 1.609 8.439 1.609c7.134 0 12.75-3.564 12.75-9.948 0-7.606-10.387-8.088-10.387-11.444 0-1.193 1.426-2.5 4.385-2.5 3.339 0 6.062 1.385 6.062 1.385l1.318-6.116S64.09.046 59.91.046h.001ZM.205.508l-.158.923s2.745.505 5.218 1.512C8.45 4.097 8.675 4.77 9.212 6.856l5.843 22.622h7.833L34.954.508H27.14l-7.754 19.697-3.164-16.696c-.29-1.911-1.76-3.002-3.558-3.002H.206v.001Zm37.892 0-6.13 28.97h7.452L45.527.508h-7.43Zm41.562 0c-1.797 0-2.749.967-3.447 2.655L65.294 29.478h7.815l1.511-4.386h9.52l.92 4.386h6.895L85.94.508h-6.28Zm1.017 7.827 2.316 10.871h-6.205l3.89-10.87h-.001Z" fill="#1434CB"/></g><defs><clipPath id="a"><path fill="#fff" d="M0 0h92v30H0z"/></clipPath></defs></svg>