<svg width="196" height="61" fill="none" xmlns="http://www.w3.org/2000/svg"><rect width="195.533" height="60.057" rx="9.008" fill="#000"/><path fill-rule="evenodd" clip-rule="evenodd" d="M38.69 30.898a7.43 7.43 0 0 1 3.538-6.233 7.606 7.606 0 0 0-5.992-3.24c-2.522-.265-4.966 1.508-6.25 1.508-1.31 0-3.288-1.482-5.419-1.438a7.98 7.98 0 0 0-6.715 4.096c-2.904 5.027-.738 12.416 2.043 16.48 1.392 1.99 3.018 4.212 5.147 4.133 2.082-.086 2.86-1.328 5.374-1.328 2.49 0 3.22 1.328 5.391 1.278 2.235-.036 3.643-1.999 4.986-4.007 1-1.418 1.77-2.985 2.28-4.644a7.18 7.18 0 0 1-4.383-6.605ZM34.589 18.753a7.315 7.315 0 0 0 1.673-5.241 7.443 7.443 0 0 0-4.816 2.492 6.961 6.961 0 0 0-1.717 5.047 6.155 6.155 0 0 0 4.86-2.298Z" fill="#fff"/><path d="M69.2 16.134c0 1.321-1.156 3.363-4.159 3.363-2.552 0-4.429-1.186-4.429-3.768h1.366c.06 1.937 1.472 2.612 3.184 2.612 1.47 0 2.627-.87 2.627-2.237 0-1.561-1.276-1.877-2.703-1.877-.3 0-.735.015-.96.03v-1.17c.24.03.72.03.96.03 1.352 0 2.328-.466 2.328-1.923 0-1.32-1.096-1.711-2.297-1.711-1.577 0-2.493.63-2.658 2.177h-1.366c.09-2.297 1.801-3.348 4.069-3.348 2.056 0 3.663.87 3.663 2.883 0 1.125-.87 2.056-1.772 2.327v.045c1.412.27 2.147 1.396 2.147 2.567Zm8.715 2.102v.991c-.27.105-.585.15-.87.15-.721 0-1.112-.405-1.127-1.14-.766.855-1.606 1.23-2.807 1.23-1.532 0-2.478-.84-2.478-2.192 0-1.381.916-2.192 2.748-2.417 1.847-.225 2.477-.18 2.477-1.231 0-.826-.615-1.276-1.757-1.276-1.186 0-1.801.435-1.921 1.576h-1.247c.046-1.652 1.247-2.627 3.244-2.627 1.036 0 1.921.27 2.432.75.54.526.525 1.321.525 2.012 0 1.156-.06 2.297-.06 3.453 0 .571.136.766.526.766.12 0 .18-.015.315-.045Zm-2.057-3.003c-.48.36-1.14.39-1.711.466-.931.12-2.193.225-2.193 1.471 0 .796.586 1.291 1.547 1.291 1.201 0 2.357-.825 2.357-1.816v-1.412Zm3.53 4.024V11.51h3.588c1.352 0 2.658.3 2.658 1.877 0 .825-.42 1.336-1.141 1.666v.015c.9.18 1.471.87 1.471 1.907 0 1.321-.976 2.282-2.357 2.282h-4.219Zm3.453-4.624c1.096 0 1.472-.376 1.472-1.036 0-.646-.346-.991-1.472-.991h-2.207v2.027h2.207Zm-2.207 1.08v2.448h2.733c.81 0 1.276-.556 1.276-1.291 0-.706-.45-1.156-1.501-1.156h-2.508Zm14.01 2.523v.991c-.27.105-.585.15-.87.15-.721 0-1.112-.405-1.127-1.14-.765.855-1.606 1.23-2.807 1.23-1.532 0-2.478-.84-2.478-2.192 0-1.381.916-2.192 2.748-2.417 1.847-.225 2.477-.18 2.477-1.231 0-.826-.615-1.276-1.756-1.276-1.187 0-1.802.435-1.922 1.576h-1.246c.045-1.652 1.246-2.627 3.243-2.627 1.036 0 1.921.27 2.432.75.54.526.526 1.321.526 2.012 0 1.156-.06 2.297-.06 3.453 0 .571.135.766.525.766.12 0 .18-.015.315-.045Zm-2.057-3.003c-.48.36-1.14.39-1.711.466-.931.12-2.192.225-2.192 1.471 0 .796.585 1.291 1.546 1.291 1.201 0 2.357-.825 2.357-1.816v-1.412Zm4.837 4.024h-1.277V11.51h1.276v3.078h3.874V11.51h1.276v7.747h-1.276v-3.543h-3.873v3.543Zm13.297-6.621h-2.778v6.621h-1.276v-6.621h-2.777V11.51h6.831v1.126Zm7.917 5.6v.991a2.47 2.47 0 0 1-.871.15c-.72 0-1.111-.405-1.126-1.14-.765.855-1.606 1.23-2.807 1.23-1.532 0-2.478-.84-2.478-2.192 0-1.381.916-2.192 2.748-2.417 1.847-.225 2.477-.18 2.477-1.231 0-.826-.615-1.276-1.756-1.276-1.187 0-1.802.435-1.922 1.576h-1.246c.045-1.652 1.246-2.627 3.243-2.627 1.036 0 1.921.27 2.432.75.54.526.525 1.321.525 2.012 0 1.156-.06 2.297-.06 3.453 0 .571.135.766.526.766.12 0 .18-.015.315-.045Zm-2.057-3.003c-.48.36-1.141.39-1.711.466-.931.12-2.192.225-2.192 1.471 0 .796.585 1.291 1.546 1.291 1.201 0 2.357-.825 2.357-1.816v-1.412Zm6.833.27-2.657 3.754h-1.577l3.393-4.564-2.957-3.183h1.576l3.153 3.558h.03V11.51h1.276v3.558h.03l3.153-3.558h1.577l-2.958 3.183 3.393 4.564h-1.576l-2.658-3.754-.961.977v2.777h-1.276V16.48l-.961-.976Zm15.124-3.993-3.318 8.738c-.42 1.096-.856 2.132-2.237 2.132-.33 0-.63-.06-.946-.135v-1.141c.406.12.601.165.826.165.42 0 .751-.285.901-.646l.6-1.411-3.077-7.702h1.441l2.297 6.17 2.177-6.17h1.336Zm6.877-2.943c-.195 1.201-.946 2.072-2.252 2.072-1.246 0-2.132-.87-2.282-2.072h.765c.21.72.736 1.171 1.502 1.171.78 0 1.261-.45 1.501-1.171h.766Zm-3.844 10.69h-1.636V11.51h1.276v6.32h.03l3.483-6.32h1.637v7.747h-1.276v-6.32h-.03l-3.484 6.32Zm17.897-7.747-3.318 8.738c-.421 1.096-.856 2.132-2.237 2.132-.331 0-.631-.06-.946-.135v-1.141c.405.12.6.165.826.165.42 0 .75-.285.9-.646l.601-1.411-3.078-7.702h1.441l2.298 6.17 2.177-6.17h1.336ZM85.46 32.995c3.45 0 5.725 2.727 5.725 6.94 0 4.224-2.261 6.938-5.673 6.938a4.608 4.608 0 0 1-4.277-2.379h-.065v6.733h-2.79v-18.09h2.701v2.26h.051a4.822 4.822 0 0 1 4.329-2.402Zm14.962 0c3.45 0 5.724 2.727 5.724 6.94 0 4.224-2.261 6.938-5.673 6.938a4.608 4.608 0 0 1-4.277-2.379h-.064v6.733h-2.79v-18.09h2.7v2.26h.052a4.822 4.822 0 0 1 4.328-2.402Zm20.032-5.22c3.939 0 6.64 2.21 6.731 5.426h-2.817c-.168-1.86-1.706-2.983-3.954-2.983s-3.786 1.136-3.786 2.79c0 1.318.983 2.094 3.386 2.687l2.054.505c3.825.904 5.415 2.441 5.415 5.168 0 3.488-2.779 5.673-7.198 5.673-4.135 0-6.927-2.133-7.107-5.506h2.856c.207 1.85 2.003 3.063 4.458 3.063 2.352 0 4.044-1.214 4.044-2.88 0-1.448-1.021-2.314-3.437-2.908l-2.417-.582c-3.423-.827-5.013-2.428-5.013-5.027 0-3.216 2.804-5.426 6.785-5.426Zm23.58 5.195c3.941 0 6.448 2.687 6.448 6.964 0 4.29-2.494 6.965-6.448 6.965-3.953 0-6.447-2.676-6.447-6.965 0-4.277 2.519-6.964 6.447-6.964Zm22.594 0c3.761 0 6.126 2.583 6.126 6.705v.956h-9.601v.169a3.538 3.538 0 0 0 3.657 3.85 3.075 3.075 0 0 0 3.139-1.912h2.65c-.376 2.468-2.779 4.161-5.854 4.161-3.954 0-6.409-2.65-6.409-6.9 0-4.264 2.468-7.03 6.292-7.03Zm-33.124-3.05v3.217h2.585v2.21h-2.585v7.493c0 1.165.518 1.707 1.654 1.707a8.71 8.71 0 0 0 .918-.064v2.196a7.657 7.657 0 0 1-1.55.129c-2.752 0-3.825-1.034-3.825-3.67v-7.791h-1.976v-2.21h1.976V29.92h2.803Zm-63.588-1.834 6.731 18.644h-3.061l-1.706-5.039h-7.106l-1.707 5.04h-3.01l6.731-18.645h3.128Zm88.862 4.909a4.31 4.31 0 0 1 .956.104v2.61a3.9 3.9 0 0 0-1.254-.169 2.812 2.812 0 0 0-2.907 3.128v8.062h-2.791V33.137h2.662v2.314h.064a3.242 3.242 0 0 1 3.27-2.456Zm-14.744 2.274c-2.261 0-3.604 1.745-3.604 4.665 0 2.946 1.343 4.665 3.604 4.665 2.26 0 3.605-1.719 3.605-4.665 0-2.933-1.345-4.665-3.605-4.665Zm-59.31.104c-2.131 0-3.565 1.847-3.565 4.561 0 2.74 1.434 4.574 3.566 4.574 2.17 0 3.592-1.797 3.592-4.574 0-2.752-1.422-4.561-3.592-4.561Zm14.962 0c-2.132 0-3.566 1.847-3.566 4.561 0 2.74 1.434 4.574 3.566 4.574 2.17 0 3.592-1.797 3.592-4.574 0-2.752-1.422-4.561-3.592-4.561Zm-31.32-4.186h-.078l-2.778 8.178h5.633l-2.777-8.178Zm98.262 4.044a3.442 3.442 0 0 0-3.462 3.45h6.796a3.267 3.267 0 0 0-3.334-3.45Z" fill="#fff"/></svg>