<svg width="196" height="61" fill="none" xmlns="http://www.w3.org/2000/svg"><rect x=".467" width="195.533" height="60.057" rx="9.008" fill="#000"/><path fill-rule="evenodd" clip-rule="evenodd" d="M14.807 12.03c-.436.462-.693 1.178-.693 2.107v33.179c0 .93.257 1.645.693 2.108l.112.108 18.586-18.586v-.439L14.919 11.921l-.112.109Z" fill="#00D7FE"/><mask id="a" style="mask-type:alpha" maskUnits="userSpaceOnUse" x="33" y="24" width="16" height="14"><path d="m39.699 37.144-6.194-6.198v-.438l6.197-6.197 7.48 4.25c2.096 1.192 2.096 3.14 0 4.331l-7.34 4.171-.143.081Z" fill="#fff"/></mask><g mask="url(#a)"><path fill-rule="evenodd" clip-rule="evenodd" d="m39.698 37.144-6.193-6.198v-.438l6.196-6.197 7.48 4.25c2.096 1.192 2.096 3.14 0 4.331l-7.34 4.171-.143.081Z" fill="url(#b)"/></g><mask id="c" style="mask-type:alpha" maskUnits="userSpaceOnUse" x="14" y="30" width="26" height="21"><path d="m39.84 37.063-6.336-6.336-18.697 18.698c.692.73 1.833.821 3.118.091L39.84 37.063Z" fill="#fff"/></mask><g mask="url(#c)"><path fill-rule="evenodd" clip-rule="evenodd" d="m39.84 37.063-6.336-6.336-18.697 18.697c.692.732 1.833.822 3.119.092L39.84 37.063Z" fill="url(#d)"/></g><mask id="e" style="mask-type:alpha" maskUnits="userSpaceOnUse" x="14" y="11" width="26" height="20"><path d="M39.84 24.392 17.925 11.939c-1.285-.73-2.426-.64-3.118.092l18.697 18.697 6.336-6.336Z" fill="#fff"/></mask><g mask="url(#e)"><path fill-rule="evenodd" clip-rule="evenodd" d="M39.84 24.392 17.926 11.939c-1.286-.73-2.427-.64-3.119.092l18.697 18.697 6.336-6.336Z" fill="url(#f)"/></g><path fill-rule="evenodd" clip-rule="evenodd" d="M156.629 47.172h2.802v-18.77h-2.802v18.77Zm25.235-12.009-3.212 8.138h-.096l-3.333-8.138h-3.018l4.998 11.373-2.849 6.327h2.923l7.702-17.7h-3.115Zm-15.888 9.877c-.919 0-2.198-.459-2.198-1.593 0-1.45 1.594-2.005 2.969-2.005 1.233 0 1.811.266 2.56.628-.217 1.738-1.714 2.97-3.331 2.97Zm.338-10.287c-2.029 0-4.129.894-4.999 2.874l2.487 1.037c.531-1.037 1.521-1.376 2.56-1.376 1.448 0 2.921.869 2.945 2.415v.193c-.507-.29-1.593-.724-2.921-.724-2.68 0-5.41 1.473-5.41 4.225 0 2.512 2.198 4.13 4.66 4.13 1.885 0 2.922-.845 3.575-1.836h.096v1.449h2.704v-7.195c0-3.333-2.486-5.192-5.697-5.192Zm-17.315 2.695h-3.985v-6.433h3.985c2.095 0 3.284 1.734 3.284 3.216 0 1.455-1.189 3.217-3.284 3.217Zm-.072-9.046h-6.713v18.77h2.8V40.06h3.913c3.105 0 6.157-2.25 6.157-5.83 0-3.581-3.052-5.829-6.157-5.829Zm-36.606 16.64c-1.935 0-3.555-1.62-3.555-3.845 0-2.249 1.62-3.894 3.555-3.894 1.911 0 3.41 1.645 3.41 3.894 0 2.225-1.499 3.845-3.41 3.845Zm3.216-8.828h-.096c-.629-.75-1.838-1.426-3.362-1.426-3.193 0-6.119 2.805-6.119 6.41 0 3.579 2.926 6.36 6.119 6.36 1.524 0 2.733-.676 3.362-1.451h.096v.919c0 2.444-1.305 3.75-3.41 3.75-1.717 0-2.782-1.234-3.217-2.274l-2.443 1.016c.701 1.694 2.564 3.773 5.66 3.773 3.29 0 6.072-1.935 6.072-6.651V35.174h-2.662v1.04Zm4.597 10.958h2.807V28.4h-2.807v18.77Zm6.941-6.192c-.072-2.467 1.912-3.725 3.338-3.725 1.114 0 2.057.555 2.371 1.354l-5.709 2.37Zm8.709-2.13c-.532-1.426-2.153-4.062-5.467-4.062-3.29 0-6.022 2.587-6.022 6.385 0 3.58 2.708 6.386 6.336 6.386 2.928 0 4.621-1.79 5.322-2.83l-2.177-1.452c-.725 1.064-1.717 1.765-3.145 1.765-1.427 0-2.443-.653-3.096-1.933l8.538-3.532-.289-.726Zm-68.026-2.103v2.709h6.481c-.194 1.524-.701 2.636-1.474 3.41-.945.944-2.42 1.983-5.008 1.983-3.99 0-7.112-3.216-7.112-7.207 0-3.992 3.122-7.208 7.112-7.208 2.153 0 3.725.846 4.886 1.935l1.911-1.911c-1.621-1.548-3.773-2.734-6.797-2.734-5.466 0-10.062 4.451-10.062 9.918s4.596 9.917 10.062 9.917c2.95 0 5.176-.967 6.917-2.782 1.79-1.79 2.347-4.305 2.347-6.338a8.75 8.75 0 0 0-.145-1.692h-9.119Zm16.634 8.295c-1.936 0-3.605-1.596-3.605-3.869 0-2.298 1.67-3.87 3.605-3.87 1.934 0 3.603 1.572 3.603 3.87 0 2.273-1.67 3.87-3.603 3.87Zm0-10.254c-3.533 0-6.411 2.684-6.411 6.385 0 3.676 2.878 6.386 6.41 6.386s6.41-2.71 6.41-6.386c0-3.7-2.878-6.385-6.41-6.385Zm13.982 10.255c-1.935 0-3.605-1.596-3.605-3.87 0-2.298 1.67-3.87 3.605-3.87 1.936 0 3.604 1.572 3.604 3.87 0 2.273-1.668 3.87-3.604 3.87Zm0-10.255c-3.53 0-6.41 2.684-6.41 6.385 0 3.676 2.88 6.386 6.41 6.386 3.532 0 6.41-2.71 6.41-6.386 0-3.7-2.878-6.385-6.41-6.385Z" fill="#FFFFFE"/><path d="M66.839 16.083c0 1.321-1.156 3.363-4.16 3.363-2.552 0-4.428-1.186-4.428-3.768h1.366c.06 1.937 1.471 2.612 3.183 2.612 1.471 0 2.627-.87 2.627-2.237 0-1.561-1.276-1.877-2.702-1.877-.3 0-.736.015-.961.03v-1.17c.24.03.72.03.96.03 1.352 0 2.328-.466 2.328-1.923 0-1.32-1.096-1.711-2.297-1.711-1.577 0-2.493.63-2.658 2.177h-1.366c.09-2.297 1.802-3.348 4.069-3.348 2.057 0 3.663.87 3.663 2.882 0 1.127-.87 2.057-1.771 2.328v.045c1.41.27 2.147 1.396 2.147 2.567Zm8.414 2.102v.991c-.27.105-.585.15-.87.15-.721 0-1.112-.405-1.127-1.14-.766.855-1.606 1.23-2.807 1.23-1.532 0-2.478-.84-2.478-2.192 0-1.381.916-2.192 2.748-2.417 1.847-.225 2.477-.18 2.477-1.231 0-.826-.615-1.277-1.757-1.277-1.186 0-1.801.436-1.921 1.577h-1.246c.045-1.651 1.246-2.627 3.243-2.627 1.036 0 1.921.27 2.432.75.54.526.525 1.321.525 2.012 0 1.156-.06 2.297-.06 3.453 0 .57.135.766.526.766.12 0 .18-.015.315-.045Zm-2.057-3.003c-.48.36-1.14.39-1.711.466-.931.12-2.192.225-2.192 1.471 0 .796.585 1.291 1.546 1.291 1.201 0 2.357-.826 2.357-1.816v-1.412Zm3.23 4.024V11.46h3.588c1.352 0 2.658.3 2.658 1.877 0 .825-.42 1.336-1.141 1.666v.015c.9.18 1.471.87 1.471 1.907 0 1.321-.976 2.282-2.357 2.282h-4.22Zm3.453-4.624c1.096 0 1.471-.376 1.471-1.036 0-.646-.345-.991-1.47-.991h-2.208v2.027h2.207Zm-2.207 1.08v2.448h2.733c.81 0 1.276-.555 1.276-1.291 0-.706-.45-1.156-1.502-1.156h-2.507Zm13.71 2.523v.991c-.27.105-.586.15-.871.15-.72 0-1.111-.405-1.126-1.14-.766.855-1.607 1.23-2.808 1.23-1.531 0-2.477-.84-2.477-2.192 0-1.381.916-2.192 2.747-2.417 1.847-.225 2.478-.18 2.478-1.231 0-.826-.616-1.277-1.757-1.277-1.186 0-1.802.436-1.922 1.577H84.4c.045-1.651 1.246-2.627 3.243-2.627 1.036 0 1.922.27 2.432.75.54.526.526 1.321.526 2.012 0 1.156-.06 2.297-.06 3.453 0 .57.135.766.525.766.12 0 .18-.015.316-.045Zm-2.057-3.003c-.48.36-1.141.39-1.712.466-.93.12-2.192.225-2.192 1.471 0 .796.586 1.291 1.546 1.291 1.202 0 2.358-.826 2.358-1.816v-1.412Zm4.536 4.024h-1.277V11.46h1.277v3.078h3.873v-3.078h1.276v7.747h-1.276v-3.543h-3.873v3.543Zm12.997-6.621h-2.778v6.621h-1.276v-6.621h-2.778v-1.126h6.832v1.126Zm7.617 5.6v.991c-.271.105-.586.15-.871.15-.721 0-1.111-.405-1.126-1.14-.766.855-1.607 1.23-2.808 1.23-1.531 0-2.477-.84-2.477-2.192 0-1.381.916-2.192 2.747-2.417 1.847-.225 2.478-.18 2.478-1.231 0-.826-.616-1.277-1.757-1.277-1.186 0-1.802.436-1.922 1.577h-1.246c.045-1.651 1.246-2.627 3.243-2.627 1.036 0 1.922.27 2.432.75.541.526.526 1.321.526 2.012 0 1.156-.06 2.297-.06 3.453 0 .57.135.766.525.766.121 0 .181-.015.316-.045Zm-2.057-3.003c-.481.36-1.141.39-1.712.466-.931.12-2.192.225-2.192 1.471 0 .796.586 1.291 1.547 1.291 1.201 0 2.357-.826 2.357-1.816v-1.412Zm6.533.27-2.658 3.754h-1.576l3.393-4.564-2.958-3.183h1.576l3.153 3.558h.03V11.46h1.277v3.558h.03l3.153-3.558h1.576l-2.958 3.183 3.394 4.564h-1.577l-2.657-3.753-.961.975v2.778h-1.277v-2.778l-.96-.976Zm14.823-3.993-3.318 8.738c-.42 1.096-.856 2.132-2.237 2.132-.33 0-.63-.06-.946-.135v-1.141c.406.12.601.165.826.165.42 0 .751-.285.901-.646l.6-1.411-3.077-7.702h1.441l2.297 6.17 2.177-6.17h1.336Zm6.577-2.943c-.196 1.201-.946 2.072-2.253 2.072-1.246 0-2.132-.87-2.282-2.072h.766c.21.72.736 1.171 1.501 1.171.781 0 1.262-.45 1.502-1.171h.766Zm-3.844 10.69h-1.637V11.46h1.277v6.32h.03l3.483-6.32h1.636v7.747h-1.276v-6.32h-.03l-3.483 6.32Zm17.296-7.747-3.318 8.738c-.42 1.096-.856 2.132-2.237 2.132a4 4 0 0 1-.946-.135v-1.141c.405.12.6.165.826.165.42 0 .75-.285.901-.646l.6-1.411-3.078-7.702h1.442l2.297 6.17 2.177-6.17h1.336Z" fill="#fff"/><defs><linearGradient id="b" x1="45.818" y1="30.727" x2="33.505" y2="30.727" gradientUnits="userSpaceOnUse"><stop stop-color="#FFBC00"/><stop offset="1" stop-color="#FFDA03"/></linearGradient><linearGradient id="d" x1="36.397" y1="36.689" x2="20.327" y2="49.935" gradientUnits="userSpaceOnUse"><stop stop-color="#E22652"/><stop offset="1" stop-color="#FF3A44"/></linearGradient><linearGradient id="f" x1="17.638" y1="14.281" x2="28.353" y2="23.703" gradientUnits="userSpaceOnUse"><stop stop-color="#0ED574"/><stop offset="1" stop-color="#07F076"/></linearGradient></defs></svg>