<svg width="699" height="552" fill="none" xmlns="http://www.w3.org/2000/svg"><g opacity=".5" clip-path="url(#a)"><mask id="b" style="mask-type:alpha" maskUnits="userSpaceOnUse" x="0" y="0" width="720" height="552"><path fill="#000" d="M0 0h720v552H0z"/></mask><g mask="url(#b)"><path fill-rule="evenodd" clip-rule="evenodd" d="M529.528 923.169-535.556-140.759l-80.297 80.228L449.231 1003.4l80.297-80.231Zm272.203-45.96L-263.111-186.719l-80.297 80.228L721.434 957.518l80.297-80.228v-.081Zm216.839-101.515L-46.511-288.395l-80.297 80.228L938.115 856.003l80.535-80.228-.08-.081Zm318.2 0L271.933-288.395l-80.297 80.228L1256.56 856.003l80.3-80.228-.09-.081Z" fill="#D2C613"/></g></g><defs><clipPath id="a"><path fill="#fff" d="M0 0h699v552H0z"/></clipPath></defs></svg>