<svg width="221" height="44" fill="none" xmlns="http://www.w3.org/2000/svg"><path d="M72.831.525V25.43H65.43v-9.83h-6.995v9.83H51V.525h7.435v8.36h6.995V.525h7.401ZM98.661.525v14.727c0 3.8-.928 6.53-2.784 8.185-1.833 1.633-4.572 2.449-8.216 2.449-7.311 0-10.967-3.405-10.967-10.215V.525h7.402v15.251c0 1.306.294 2.274.883 2.904.588.63 1.527.944 2.818.944 2.308 0 3.463-1.282 3.463-3.848V.525h7.401ZM124.355.525V25.43h-7.095l-6.01-10.6c-.566-1.002-1.177-2.25-1.833-3.742.158 1.492.237 3.393.237 5.702l.034 8.64h-7.164V.525h7.334l5.229 9.34c1.063 1.865 1.856 3.428 2.376 4.687a79.873 79.873 0 0 1-.203-5.737l-.034-8.29h7.129ZM148.115.525v6.401h-6.791v18.505h-7.401V6.926h-6.757V.525h20.949ZM171.031.525v6.051h-12.732V9.69h11.544v5.771h-11.544V19.1h13.071v6.332h-20.371V.525h20.032ZM174.837.525h13.003c1.019 0 2.004.116 2.954.35a9.737 9.737 0 0 1 2.75 1.154c.883.513 1.585 1.27 2.105 2.274.544 1.002.815 2.192.815 3.568 0 1.352-.328 2.577-.984 3.673-.634 1.096-1.494 1.9-2.581 2.413 1.087.28 1.913 1.026 2.479 2.24a11.915 11.915 0 0 1 1.052 3.917l.238 2.623c.113 1.33.317 2.228.611 2.694h-7.333c-.204-.443-.351-1.224-.442-2.344l-.102-1.399c-.068-.84-.158-1.516-.271-2.029a5.234 5.234 0 0 0-.544-1.539 2.42 2.42 0 0 0-1.222-1.12c-.543-.233-1.233-.35-2.071-.35h-3.123v8.781h-7.334V.525Zm7.334 5.772v5.107h4.074c2.014 0 3.021-.863 3.021-2.589 0-1.679-1.143-2.518-3.429-2.518h-3.666ZM219.015 8.08h-6.96c-.022-.746-.305-1.329-.849-1.748-.543-.42-1.29-.63-2.24-.63-1.63 0-2.445.513-2.445 1.539 0 .28.136.548.408.805.271.256.645.478 1.12.664a28.805 28.805 0 0 0 2.716.77c.521.093.826.151.917.175.95.256 1.765.501 2.444.734.679.234 1.415.572 2.207 1.015.792.42 1.426.898 1.902 1.434.497.513.916 1.178 1.256 1.994.339.793.509 1.69.509 2.693 0 2.589-.951 4.653-2.852 6.192-1.901 1.516-4.47 2.274-7.707 2.274-3.373 0-6.032-.793-7.979-2.379-1.946-1.61-2.942-3.801-2.987-6.576h7.435c.113 2.145 1.369 3.218 3.769 3.218.928 0 1.663-.187 2.207-.56.543-.373.814-.874.814-1.504 0-.396-.158-.735-.475-1.015-.294-.256-.86-.536-1.698-.839a44.365 44.365 0 0 0-2.987-.944c-1.132-.35-1.845-.583-2.139-.7-.974-.35-1.777-.688-2.411-1.014a9.2 9.2 0 0 1-1.833-1.26 5.09 5.09 0 0 1-1.324-1.924c-.272-.77-.408-1.667-.408-2.693 0-2.332.894-4.21 2.682-5.632C203.918.723 206.283 0 209.203 0c3.079 0 5.467.711 7.164 2.134 1.72 1.4 2.603 3.381 2.648 5.947ZM61.605 36.503v6.208H60.02l-.24-1.306c-.853 1.053-1.994 1.58-3.423 1.58-1.588 0-2.879-.554-3.87-1.66C51.495 40.216 51 38.781 51 37.018c0-1.773.523-3.219 1.568-4.337 1.044-1.128 2.388-1.693 4.03-1.693 1.301 0 2.4.371 3.295 1.113.896.73 1.418 1.698 1.568 2.902h-2.416c-.117-.602-.394-1.07-.831-1.403-.438-.333-.987-.5-1.648-.5-.949 0-1.695.35-2.24 1.048-.543.688-.815 1.645-.815 2.87 0 1.247.272 2.22.816 2.919.554.688 1.328 1.032 2.32 1.032.778 0 1.417-.237 1.919-.71.5-.484.767-1.112.8-1.886h-2.544v-1.87h4.783ZM89.896 31.215l4.335 11.496h-2.623l-.896-2.564h-4.239l-.927 2.564h-2.56l4.335-11.496h2.575Zm.208 7.094-1.503-4.272-1.52 4.272h3.023ZM115.913 31.231h5.662c1.13 0 2.053.269 2.767.806.715.538 1.072 1.355 1.072 2.451 0 .666-.16 1.252-.48 1.757-.32.495-.762.85-1.327 1.065.981.204 1.54 1.096 1.679 2.676 0 .054.011.22.032.5s.043.505.064.677l.08.597c.032.236.08.435.144.596.064.161.139.28.224.355h-2.591a2.262 2.262 0 0 1-.192-.645c-.043-.269-.08-.607-.112-1.016-.032-.419-.048-.65-.048-.693-.086-.806-.288-1.365-.608-1.677-.309-.312-.864-.468-1.664-.468h-2.223v4.499h-2.479V31.23Zm2.479 1.983v3.177h2.367c.694 0 1.232-.108 1.616-.323.394-.226.592-.661.592-1.306 0-.602-.192-1.01-.576-1.225-.373-.215-.88-.323-1.52-.323h-2.479ZM153.656 31.215l4.334 11.496h-2.623l-.895-2.564h-4.239l-.928 2.564h-2.559l4.335-11.496h2.575Zm.208 7.094-1.504-4.272-1.519 4.272h3.023ZM189.717 36.503v6.208h-1.583l-.24-1.306c-.853 1.053-1.994 1.58-3.423 1.58-1.589 0-2.879-.554-3.871-1.66-.991-1.108-1.487-2.543-1.487-4.306 0-1.773.522-3.219 1.567-4.337 1.045-1.128 2.389-1.693 4.031-1.693 1.301 0 2.399.371 3.295 1.113.896.73 1.418 1.698 1.567 2.902h-2.415c-.117-.602-.394-1.07-.832-1.403-.437-.333-.986-.5-1.647-.5-.949 0-1.695.35-2.239 1.048-.544.688-.816 1.645-.816 2.87 0 1.247.272 2.22.816 2.919.554.688 1.327 1.032 2.319 1.032.778 0 1.418-.237 1.919-.71.502-.484.768-1.112.8-1.886h-2.543v-1.87h4.782ZM220.888 31.231v2.064h-6.062v2.499h5.566v1.983h-5.566V40.6H221v2.112h-8.653V31.23h8.541Z" fill="#FBED20"/><mask id="a" style="mask-type:alpha" maskUnits="userSpaceOnUse" x="0" y="0" width="45" height="44"><path fill="#000" d="M0 0h44.016v44H0z"/></mask><g mask="url(#a)"><path fill-rule="evenodd" clip-rule="evenodd" d="M35.253 61.637-35.654-9.168-41-3.828l70.907 70.804 5.346-5.34Zm18.121-3.059-70.89-70.805-5.346 5.34 70.89 70.81 5.346-5.34v-.005Zm14.437-6.756L-3.097-18.993l-5.345 5.339 70.896 70.82 5.362-5.338-.005-.006Zm21.184 0L18.104-18.993l-5.346 5.339 70.896 70.82L89 51.829l-.005-.006Z" fill="#FBED20"/></g></svg>