<svg width="141" height="545" fill="none" xmlns="http://www.w3.org/2000/svg"><mask id="a" maskUnits="userSpaceOnUse" x="0" y="3" width="87" height="542" fill="#000"><path fill="#fff" d="M0 3h87v542H0z"/><path d="M3.676 473.503h79.537v23.562h-31.39v22.265h31.39V543H3.676v-23.67h26.698v-22.265H3.676v-23.562ZM3.676 391.274h47.03c12.138 0 20.852 2.954 26.14 8.863 5.212 5.836 7.819 14.555 7.819 26.156 0 23.274-10.873 34.911-32.62 34.911H3.676v-23.562h48.706c4.17 0 7.261-.937 9.272-2.81 2.01-1.874 3.016-4.864 3.016-8.971 0-7.35-4.096-11.025-12.288-11.025H3.676v-23.562ZM3.676 309.478h79.537v22.589l-33.848 19.131c-3.203 1.801-7.187 3.747-11.953 5.836 4.766-.504 10.836-.756 18.209-.756l27.592-.108v22.805H3.676v-23.346l29.826-16.644c5.958-3.387 10.948-5.909 14.97-7.566-6.033.432-12.14.648-18.321.648l-26.475.108v-22.697ZM3.676 233.842h20.442v21.617h59.095v23.562H24.119v21.509H3.675v-66.688ZM3.676 160.89H23v40.531h9.942v-36.748h18.433v36.748h11.617v-41.612h20.22v64.85H3.676V160.89ZM3.676 148.773v-41.395c0-3.243.372-6.377 1.117-9.404.744-3.026 1.973-5.944 3.686-8.754 1.639-2.81 4.059-5.044 7.261-6.702 3.203-1.729 7-2.594 11.395-2.594 4.319 0 8.229 1.045 11.73 3.135 3.5 2.017 6.069 4.755 7.707 8.214.894-3.459 3.277-6.088 7.15-7.89 3.872-1.801 8.042-2.918 12.51-3.35l8.38-.757c4.244-.36 7.111-1.009 8.6-1.946v23.346c-1.414.649-3.91 1.117-7.484 1.406l-4.468.324c-2.681.216-4.841.504-6.48.864-1.638.289-3.276.865-4.915 1.73-1.638.864-2.83 2.161-3.574 3.891-.745 1.729-1.117 3.927-1.117 6.593v9.943h28.039v23.346H3.676Zm18.432-23.346h16.31v-12.97c0-6.412-2.756-9.619-8.267-9.619-5.362 0-8.043 3.639-8.043 10.916v11.673ZM27.805 8.134v22.157c-2.383.072-4.245.973-5.586 2.703-1.34 1.729-2.01 4.107-2.01 7.133 0 5.188 1.638 7.782 4.915 7.782.893 0 1.75-.432 2.57-1.297.818-.865 1.526-2.054 2.122-3.567.52-1.585.968-3.026 1.34-4.323a91.837 91.837 0 0 0 1.117-4.323c.298-1.658.484-2.63.559-2.919.819-3.026 1.6-5.62 2.346-7.782.744-2.161 1.824-4.503 3.24-7.025 1.34-2.522 2.867-4.54 4.58-6.053 1.638-1.585 3.76-2.918 6.367-3.999C51.897 5.541 54.764 5 57.966 5c8.267 0 14.858 3.026 19.773 9.079C82.579 20.132 85 28.309 85 38.614c0 10.736-2.532 19.203-7.596 25.4-5.139 6.196-12.14 9.367-21.002 9.51v-23.67c6.852-.36 10.278-4.359 10.278-11.997 0-2.954-.596-5.296-1.788-7.025-1.191-1.73-2.792-2.594-4.803-2.594-1.266 0-2.346.504-3.24 1.513-.819.937-1.713 2.738-2.68 5.404-.969 2.666-1.974 5.837-3.017 9.511-1.117 3.603-1.862 5.873-2.234 6.81-1.117 3.098-2.197 5.656-3.24 7.674-1.042 2.017-2.383 3.963-4.021 5.836a16.285 16.285 0 0 1-6.144 4.215c-2.458.865-5.325 1.297-8.602 1.297-7.447 0-13.442-2.846-17.985-8.538C4.309 56.195 2 48.666 2 39.37c0-9.8 2.271-17.4 6.814-22.805 4.469-5.476 10.799-8.287 18.99-8.43Z"/></mask><path d="M3.676 473.503h79.537v23.562h-31.39v22.265h31.39V543H3.676v-23.67h26.698v-22.265H3.676v-23.562ZM3.676 391.274h47.03c12.138 0 20.852 2.954 26.14 8.863 5.212 5.836 7.819 14.555 7.819 26.156 0 23.274-10.873 34.911-32.62 34.911H3.676v-23.562h48.706c4.17 0 7.261-.937 9.272-2.81 2.01-1.874 3.016-4.864 3.016-8.971 0-7.35-4.096-11.025-12.288-11.025H3.676v-23.562ZM3.676 309.478h79.537v22.589l-33.848 19.131c-3.203 1.801-7.187 3.747-11.953 5.836 4.766-.504 10.836-.756 18.209-.756l27.592-.108v22.805H3.676v-23.346l29.826-16.644c5.958-3.387 10.948-5.909 14.97-7.566-6.033.432-12.14.648-18.321.648l-26.475.108v-22.697ZM3.676 233.842h20.442v21.617h59.095v23.562H24.119v21.509H3.675v-66.688ZM3.676 160.89H23v40.531h9.942v-36.748h18.433v36.748h11.617v-41.612h20.22v64.85H3.676V160.89ZM3.676 148.773v-41.395c0-3.243.372-6.377 1.117-9.404.744-3.026 1.973-5.944 3.686-8.754 1.639-2.81 4.059-5.044 7.261-6.702 3.203-1.729 7-2.594 11.395-2.594 4.319 0 8.229 1.045 11.73 3.135 3.5 2.017 6.069 4.755 7.707 8.214.894-3.459 3.277-6.088 7.15-7.89 3.872-1.801 8.042-2.918 12.51-3.35l8.38-.757c4.244-.36 7.111-1.009 8.6-1.946v23.346c-1.414.649-3.91 1.117-7.484 1.406l-4.468.324c-2.681.216-4.841.504-6.48.864-1.638.289-3.276.865-4.915 1.73-1.638.864-2.83 2.161-3.574 3.891-.745 1.729-1.117 3.927-1.117 6.593v9.943h28.039v23.346H3.676Zm18.432-23.346h16.31v-12.97c0-6.412-2.756-9.619-8.267-9.619-5.362 0-8.043 3.639-8.043 10.916v11.673ZM27.805 8.134v22.157c-2.383.072-4.245.973-5.586 2.703-1.34 1.729-2.01 4.107-2.01 7.133 0 5.188 1.638 7.782 4.915 7.782.893 0 1.75-.432 2.57-1.297.818-.865 1.526-2.054 2.122-3.567.52-1.585.968-3.026 1.34-4.323a91.837 91.837 0 0 0 1.117-4.323c.298-1.658.484-2.63.559-2.919.819-3.026 1.6-5.62 2.346-7.782.744-2.161 1.824-4.503 3.24-7.025 1.34-2.522 2.867-4.54 4.58-6.053 1.638-1.585 3.76-2.918 6.367-3.999C51.897 5.541 54.764 5 57.966 5c8.267 0 14.858 3.026 19.773 9.079C82.579 20.132 85 28.309 85 38.614c0 10.736-2.532 19.203-7.596 25.4-5.139 6.196-12.14 9.367-21.002 9.51v-23.67c6.852-.36 10.278-4.359 10.278-11.997 0-2.954-.596-5.296-1.788-7.025-1.191-1.73-2.792-2.594-4.803-2.594-1.266 0-2.346.504-3.24 1.513-.819.937-1.713 2.738-2.68 5.404-.969 2.666-1.974 5.837-3.017 9.511-1.117 3.603-1.862 5.873-2.234 6.81-1.117 3.098-2.197 5.656-3.24 7.674-1.042 2.017-2.383 3.963-4.021 5.836a16.285 16.285 0 0 1-6.144 4.215c-2.458.865-5.325 1.297-8.602 1.297-7.447 0-13.442-2.846-17.985-8.538C4.309 56.195 2 48.666 2 39.37c0-9.8 2.271-17.4 6.814-22.805 4.469-5.476 10.799-8.287 18.99-8.43Z" stroke="#2F3243" stroke-width="4" mask="url(#a)"/><mask id="b" maskUnits="userSpaceOnUse" x="98" y="0" width="43" height="545" fill="#000"><path fill="#fff" d="M98 0h43v545H98z"/><path d="M117.927 509.252h20.182v5.04l-4.246.763c3.425 2.715 5.137 6.346 5.137 10.893 0 5.056-1.8 9.162-5.399 12.318-3.6 3.156-8.265 4.734-13.996 4.734-5.766 0-10.467-1.663-14.101-4.988-3.669-3.326-5.504-7.602-5.504-12.827 0-4.14 1.206-7.636 3.617-10.486 2.376-2.851 5.521-4.513 9.435-4.988v7.686c-1.957.373-3.477 1.255-4.56 2.646-1.083 1.392-1.625 3.139-1.625 5.243 0 3.02 1.136 5.396 3.407 7.127 2.237 1.73 5.347 2.595 9.331 2.595 4.054 0 7.216-.865 9.488-2.595 2.236-1.765 3.355-4.225 3.355-7.381 0-2.477-.769-4.513-2.307-6.108-1.572-1.595-3.617-2.444-6.133-2.545v8.093h-6.081v-15.22ZM100.734 419.219l37.375-13.795v8.348l-8.335 2.851v13.489l8.335 2.952v8.144l-37.375-13.794v-8.195Zm23.064-.662-13.891 4.785 13.891 4.835v-9.62ZM100.786 336.424v-18.019c0-3.597.874-6.532 2.621-8.806 1.748-2.274 4.404-3.41 7.968-3.41 2.167 0 4.071.509 5.714 1.527 1.607 1.018 2.76 2.426 3.459 4.224.664-3.122 3.565-4.903 8.702-5.344.175 0 .716-.034 1.625-.102a49.79 49.79 0 0 0 2.202-.204c.524-.067 1.17-.152 1.939-.254.769-.102 1.415-.255 1.94-.458.524-.204.908-.441 1.153-.713v8.246c-.559.272-1.258.475-2.097.611-.874.136-1.974.254-3.302.356-1.363.102-2.115.153-2.254.153-2.621.271-4.438.916-5.452 1.934-1.013.984-1.52 2.749-1.52 5.294v7.075h14.625v7.89h-37.323Zm6.448-7.89h10.327v-7.533c0-2.206-.35-3.92-1.049-5.141-.734-1.256-2.149-1.884-4.246-1.884-1.957 0-3.285.611-3.984 1.833-.699 1.188-1.048 2.799-1.048 4.836v7.889ZM100.734 216.313l37.375-13.794v8.348l-8.335 2.85v13.489l8.335 2.952v8.144l-37.375-13.794v-8.195Zm23.064-.662-13.891 4.785 13.891 4.836v-9.621ZM117.927 101.552h20.182v5.04l-4.246.763c3.425 2.715 5.137 6.346 5.137 10.893 0 5.056-1.8 9.162-5.399 12.318-3.6 3.156-8.265 4.734-13.996 4.734-5.766 0-10.467-1.663-14.101-4.988-3.669-3.326-5.504-7.602-5.504-12.828 0-4.139 1.206-7.635 3.617-10.485 2.376-2.851 5.521-4.513 9.435-4.989v7.687c-1.957.373-3.477 1.255-4.56 2.646-1.083 1.392-1.625 3.139-1.625 5.243 0 3.02 1.136 5.396 3.407 7.126 2.237 1.731 5.347 2.596 9.331 2.596 4.054 0 7.216-.865 9.488-2.596 2.236-1.764 3.355-4.224 3.355-7.38 0-2.477-.769-4.513-2.307-6.108-1.572-1.595-3.617-2.444-6.133-2.545v8.093h-6.081v-15.22ZM100.786 2.356h6.71v19.292h8.125V3.934h6.448v17.714h9.173V2h6.867v27.538h-37.323V2.356Z"/></mask><path d="M117.927 509.252h20.182v5.04l-4.246.763c3.425 2.715 5.137 6.346 5.137 10.893 0 5.056-1.8 9.162-5.399 12.318-3.6 3.156-8.265 4.734-13.996 4.734-5.766 0-10.467-1.663-14.101-4.988-3.669-3.326-5.504-7.602-5.504-12.827 0-4.14 1.206-7.636 3.617-10.486 2.376-2.851 5.521-4.513 9.435-4.988v7.686c-1.957.373-3.477 1.255-4.56 2.646-1.083 1.392-1.625 3.139-1.625 5.243 0 3.02 1.136 5.396 3.407 7.127 2.237 1.73 5.347 2.595 9.331 2.595 4.054 0 7.216-.865 9.488-2.595 2.236-1.765 3.355-4.225 3.355-7.381 0-2.477-.769-4.513-2.307-6.108-1.572-1.595-3.617-2.444-6.133-2.545v8.093h-6.081v-15.22ZM100.734 419.219l37.375-13.795v8.348l-8.335 2.851v13.489l8.335 2.952v8.144l-37.375-13.794v-8.195Zm23.064-.662-13.891 4.785 13.891 4.835v-9.62ZM100.786 336.424v-18.019c0-3.597.874-6.532 2.621-8.806 1.748-2.274 4.404-3.41 7.968-3.41 2.167 0 4.071.509 5.714 1.527 1.607 1.018 2.76 2.426 3.459 4.224.664-3.122 3.565-4.903 8.702-5.344.175 0 .716-.034 1.625-.102a49.79 49.79 0 0 0 2.202-.204c.524-.067 1.17-.152 1.939-.254.769-.102 1.415-.255 1.94-.458.524-.204.908-.441 1.153-.713v8.246c-.559.272-1.258.475-2.097.611-.874.136-1.974.254-3.302.356-1.363.102-2.115.153-2.254.153-2.621.271-4.438.916-5.452 1.934-1.013.984-1.52 2.749-1.52 5.294v7.075h14.625v7.89h-37.323Zm6.448-7.89h10.327v-7.533c0-2.206-.35-3.92-1.049-5.141-.734-1.256-2.149-1.884-4.246-1.884-1.957 0-3.285.611-3.984 1.833-.699 1.188-1.048 2.799-1.048 4.836v7.889ZM100.734 216.313l37.375-13.794v8.348l-8.335 2.85v13.489l8.335 2.952v8.144l-37.375-13.794v-8.195Zm23.064-.662-13.891 4.785 13.891 4.836v-9.621ZM117.927 101.552h20.182v5.04l-4.246.763c3.425 2.715 5.137 6.346 5.137 10.893 0 5.056-1.8 9.162-5.399 12.318-3.6 3.156-8.265 4.734-13.996 4.734-5.766 0-10.467-1.663-14.101-4.988-3.669-3.326-5.504-7.602-5.504-12.828 0-4.139 1.206-7.635 3.617-10.485 2.376-2.851 5.521-4.513 9.435-4.989v7.687c-1.957.373-3.477 1.255-4.56 2.646-1.083 1.392-1.625 3.139-1.625 5.243 0 3.02 1.136 5.396 3.407 7.126 2.237 1.731 5.347 2.596 9.331 2.596 4.054 0 7.216-.865 9.488-2.596 2.236-1.764 3.355-4.224 3.355-7.38 0-2.477-.769-4.513-2.307-6.108-1.572-1.595-3.617-2.444-6.133-2.545v8.093h-6.081v-15.22ZM100.786 2.356h6.71v19.292h8.125V3.934h6.448v17.714h9.173V2h6.867v27.538h-37.323V2.356Z" stroke="#2F3243" stroke-width="4" mask="url(#b)"/></svg>