<svg width="32" height="32" fill="none" xmlns="http://www.w3.org/2000/svg"><path fill-rule="evenodd" clip-rule="evenodd" d="M22.863 4.111a1 1 0 0 1 .366 1.366L10.502 27.523a1 1 0 0 1-1.733-1L21.497 4.477a1 1 0 0 1 1.366-.366ZM8.472 4.118A1 1 0 0 1 9 5v11.5a1 1 0 1 1-2 0V6.869l-1.445.963a1 1 0 0 1-1.11-1.664l3-2a1 1 0 0 1 1.027-.05ZM24.395 16.04a2 2 0 0 0-2.237 1.18 1 1 0 1 1-1.841-.78A4 4 0 0 1 28 17.99l-1 .003 1-.005v.002a3.95 3.95 0 0 1-.686 2.24l-.826-.562-.8-.6-.016.02a1.95 1.95 0 0 0 .328-1.09v-.003a2 2 0 0 0-1.605-1.956ZM23 25.992l4.289-5.726-.8-.6-.827-.563.011-.016-5.472 7.305a1 1 0 0 0 .8 1.6h6a1 1 0 0 0 0-2h-4.001Z" fill="#000"/></svg>