<svg width="32" height="32" fill="none" xmlns="http://www.w3.org/2000/svg"><path d="M6.43 4.283c5.64-.61 11.408-.207 17.253.96 1.762.353 2.698 1.563 3.273 3.261 1.811 5.419 2.174 10.983 2.008 16.603-.05 1.79-1.494 3.018-3.273 3.261-5.792.806-11.753.999-18.146-.37-1.761-.38-2.877-1.512-3.272-3.261-1.208-5.318-1.497-11.093-1.116-17.193.11-1.788 1.485-3.074 3.272-3.26Z" stroke="#000" stroke-width="2" stroke-miterlimit="10"/><path d="m7 8 2 2m6.5-1.5-1.5 2M10.5 14 9 16m7 0 1.5 2m3-4 2-2m.5-2.5-2.5-2m3 10L22 20m-4.5 3.5-3-1.5m-4-1.5-2.5 2m14.5 1 2 2" stroke="#000" stroke-width="2"/></svg>