<svg width="32" height="32" fill="none" xmlns="http://www.w3.org/2000/svg"><path fill-rule="evenodd" clip-rule="evenodd" d="M11 5a1 1 0 0 1 1 1v20a1 1 0 1 1-2 0V6a1 1 0 0 1 1-1Z" fill="#000"/><path fill-rule="evenodd" clip-rule="evenodd" d="M3 7a2 2 0 0 1 2-2h22a2 2 0 0 1 2 2v18a2 2 0 0 1-2 2H5a2 2 0 0 1-2-2V7Zm24 0H5v18h22V7Z" fill="#000"/><path fill-rule="evenodd" clip-rule="evenodd" d="M3 10a1 1 0 0 1 1-1h3a1 1 0 0 1 0 2H4a1 1 0 0 1-1-1ZM3 14a1 1 0 0 1 1-1h3a1 1 0 1 1 0 2H4a1 1 0 0 1-1-1ZM3 18a1 1 0 0 1 1-1h3a1 1 0 1 1 0 2H4a1 1 0 0 1-1-1Z" fill="#000"/><path d="m16 19 3.5 3 3.5-3" stroke="#000" stroke-width="2" stroke-linecap="round" stroke-linejoin="round"/><path d="M20.5 11a1 1 0 1 0-2 0h2Zm0 10V11h-2v10h2Z" fill="#000"/></svg>