<svg width="32" height="32" fill="none" xmlns="http://www.w3.org/2000/svg"><path d="M23.143 7.7A12.264 12.264 0 0 0 14.344 4C7.532 4 2 9.532 2 16.344 2 23.157 7.529 28.68 14.344 28.68c3.445 0 6.564-1.411 8.799-3.697" stroke="#000" stroke-width="2" stroke-miterlimit="10"/><path d="M14.504 20.698A4.504 4.504 0 0 0 19 16.202c0-2.477-2.02-4.504-4.496-4.504A4.517 4.517 0 0 0 10 16.202c0 2.477 2.027 4.496 4.504 4.496ZM29.834 16.344c0-1.52-.033-2.665-.302-4.159-.101-.445-.504-.697-.916-.89-1.136-.53-.925-.21-1.47-1.47-.481-1.108-1.655-3.545-3.07-2.757-.687.38-1.31.899-1.89 1.554-.807.898-.715.815-.582 1.983.193 1.663.445 2.982.445 5.74 0 2.756-.252 4.067-.445 5.73-.133 1.177-.228 1.085.582 1.992.58.646 1.2 1.168 1.89 1.553 1.412.783 2.589-1.654 3.07-2.766.545-1.26.334-.933 1.47-1.47.412-.193.815-.445.916-.89.27-1.496.302-2.629.302-4.15ZM15.548 9.211c-.673-1.277-1.42-2.413-2.413-3.192M10.153 10.448c-1.37-.43-2.716-.697-3.958-.554M7.212 15.135c-1.277.673-2.413 1.42-3.192 2.413M8.448 20.53c-.43 1.379-.696 2.716-.554 3.958M13.135 23.471c.673 1.278 1.42 2.413 2.413 3.193" stroke="#000" stroke-width="2" stroke-miterlimit="10"/></svg>