<svg width="32" height="32" fill="none" xmlns="http://www.w3.org/2000/svg"><path d="M7.5 28c1.393 0 2.5-1.137 2.5-2.5S8.893 23 7.5 23A2.503 2.503 0 0 0 5 25.5C5 26.863 6.137 28 7.5 28ZM24.5 28c1.363 0 2.5-1.137 2.5-2.5S25.863 23 24.5 23a2.523 2.523 0 0 0-2.5 2.5c0 1.363 1.137 2.5 2.5 2.5Z" stroke="#000" stroke-width="2" stroke-miterlimit="10"/><path d="M10.045 25.913 22.112 26m4.555 0h1.456c.56 0 .877-.712.877-1.202v-2.645c0-1.174-1.484-1.693-2.51-1.934-1.4-.25-2.8-.462-4.21-.683-1.586-1.145-3.117-2.29-4.815-2.866a17.06 17.06 0 0 0-4.023-.626c-2.697-.105-3.304-.134-5.665 1.251-.69.385-1.241.74-2.277 1.395a3.74 3.74 0 0 1-1.904.788c-1.213.135-1.587.27-1.195 1.607.084.221.159.49.262.788-.215.52-.663.76-.663 1.578v1.308c0 .683.663 1.087 1.167 1.087h2.351M3 22h1" stroke="#000" stroke-width="2" stroke-miterlimit="10"/><path d="M4 12h.01M7 9h.01M13 9h.01M19 9h.01M25 9h.01M10 12h.01M10 6h.01M16 6h.01M22 6h.01M16 12h.01M22 12h.01M28 12h.01" stroke="#000" stroke-width="2" stroke-linecap="round" stroke-linejoin="round"/></svg>