<svg width="32" height="32" fill="none" xmlns="http://www.w3.org/2000/svg"><path fill-rule="evenodd" clip-rule="evenodd" d="M13 1a1 1 0 0 0-1 1v6H6a1 1 0 0 0 0 2h7a1 1 0 0 0 1-1V2a1 1 0 0 0-1-1Z" fill="#000"/><path fill-rule="evenodd" clip-rule="evenodd" d="M26.414 1.586A2 2 0 0 0 25 1H13a1 1 0 0 0-.707.293l-7 7A1 1 0 0 0 5 9v16a2 2 0 0 0 2 2h3a1 1 0 1 0 0-2H7V9.414L13.414 3H25v11a1 1 0 1 0 2 0V3a2 2 0 0 0-.586-1.414Z" fill="#000"/><circle cx="19" cy="18" r="5" stroke="#000" stroke-width="2"/><path d="M16 22v9l3-2 3 2v-9" stroke="#000" stroke-width="2" stroke-linejoin="round"/></svg>