<svg width="32" height="32" fill="none" xmlns="http://www.w3.org/2000/svg"><path clip-rule="evenodd" d="M8.604 21.625H6.889c-1.04 0-1.889-.869-1.889-1.93V13.17c0-1.06.849-1.93 1.887-1.93h.064c.339 0 .66-.15.882-.412l1.108-1.312A1.451 1.451 0 0 1 10.05 9h9.902c.586 0 1.116.358 1.346.909l.97 2.325h1.001c.534 0 .967.443.967.988v1.332h2.544l.002-.008v-1.464a.84.84 0 0 1 .83-.848h1.027c1.304 0 2.362 2.709 2.362 6.05 0 3.34-1.058 6.05-2.362 6.05h-1.027a.84.84 0 0 1-.83-.848v-1.463l-.002-.008h-2.544v1.997a.977.977 0 0 1-.967.988H13.88a.894.894 0 0 1-.582-.217l-2.873-2.478a2.786 2.786 0 0 0-1.82-.68Z" stroke="#000" stroke-width="2"/><path fill-rule="evenodd" clip-rule="evenodd" d="M17.371 11.072a1 1 0 0 1 .558 1.3L16.477 16H19a1 1 0 0 1 .928 1.372l-2 5a1 1 0 0 1-1.857-.743L17.523 18H15a1 1 0 0 1-.928-1.371l2-5a1 1 0 0 1 1.3-.557Z" fill="#000"/><path d="M10 5h10M1 20v-8M5 16H1M15 5v4" stroke="#000" stroke-width="2" stroke-linecap="round"/></svg>