<svg width="32" height="32" fill="none" xmlns="http://www.w3.org/2000/svg"><path d="M2.26 15.069c-.256 2.108-.346 3.883-.165 6.024C2.413 24.5 4.878 28.535 9.548 31h8.915c4.67-2.46 7.14-6.499 7.453-9.907.165-2.141.075-3.916-.165-6.024-7.83-.092-15.66-.092-23.492 0Z" fill="#FBED20" stroke="#000" stroke-width="2" stroke-miterlimit="10"/><path d="M25.601 17.221c.827-.297 1.707-.307 2.481.045 1.855.842 2.467 3.414 1.382 5.757-1.1 2.334-3.485 3.552-5.34 2.71-.043-.015-.081-.044-.124-.054M14.655 13c-.518-.466-.786-1.32-.592-2.227.492-2.343 2.388-1.203 2.88-3.546.178-.902-.073-1.76-.607-2.227M11.656 9c-.52-.467-.787-1.323-.593-2.215.494-2.348 2.384-1.222 2.872-3.57.194-.887-.058-1.748-.593-2.215" stroke="#000" stroke-width="2" stroke-miterlimit="10"/></svg>