<svg width="32" height="32" fill="none" xmlns="http://www.w3.org/2000/svg"><path d="M28 21H3a1 1 0 0 0-1 1v2a1 1 0 0 0 1 1h25a1 1 0 0 0 1-1v-2a1 1 0 0 0-1-1Z" stroke="#000" stroke-width="2" stroke-miterlimit="10"/><path d="M23 17c-1.143-2.932-3.857-5-7-5" stroke="#000" stroke-width="2" stroke-miterlimit="10" stroke-linecap="round"/><path d="M4 20C4 13.934 9.137 9 15.49 9 21.843 9 27 13.924 27 19.99M16 8.83V6.28" stroke="#000" stroke-width="2" stroke-miterlimit="10"/><path d="M20 6h-8" stroke="#000" stroke-width="2" stroke-miterlimit="10" stroke-linecap="round"/></svg>