<svg width="32" height="32" fill="none" xmlns="http://www.w3.org/2000/svg"><path d="M16.551 29c7.438 0 13.503-6.063 13.503-13.503S23.991 2 16.551 2 3.055 8.066 3.055 15.497C3.055 22.927 9.118 29 16.55 29Z" stroke="#000" stroke-width="2" stroke-miterlimit="10"/><path d="M16.55 17.677c1.2 0 2.178-.979 2.178-2.178a2.18 2.18 0 0 0-2.178-2.173c-1.198 0-2.173.979-2.173 2.173s.98 2.178 2.173 2.178Z" stroke="#000" stroke-width="2" stroke-miterlimit="10"/><path d="M16.32 13.098a2159.078 2159.078 0 0 1-4.984-4.74c1.964-1.18 6.884-3.014 6.891 0v5.387M14.211 14.99c-2.014 1.094-4.034 2.188-6.049 3.281-.51-2.238-.74-7.48 2.129-6.551l5.12 1.662M15.365 17.586c.411 2.25.827 4.509 1.244 6.762-2.287-.2-7.343-1.611-5.575-4.05l3.164-4.358M18.175 17.292l6.817.906c-.898 2.108-3.798 6.48-5.566 4.042l-3.172-4.352M18.772 14.524c.985-2.07 1.98-4.144 2.964-6.207 1.733 1.502 4.998 5.618 2.128 6.552l-5.12 1.67v-.008" stroke="#000" stroke-width="2.218" stroke-miterlimit="10"/></svg>