<svg width="32" height="32" fill="none" xmlns="http://www.w3.org/2000/svg"><path d="M22.12 10.12c.49-.71.98-1.42 1.42-2.18-.88.62-1.69 1.3-2.5 1.98.22.82.43 1.64.67 2.46-.77.68-1.51 1.38-2.25 2.08-.89-.04-1.78-.07-2.67-.09l-.39-2.26-.05-.3-.14-.14-1.32-1.31.73-2.33.11-.34-.23-.18-3.25-2.66L10.6 2l1.3 3.08v.02l.05.04 2.67 2.8c-.33.72-1.22 2.65-1.23 2.67l.27.35 1.17 1.51.12 2.76c-.72.9-1.38 1.84-2.01 2.8-.51.11-1.32.28-1.47.32-.91 1.57-1.75 3.16-2.47 4.84 1.17-1.11 2.22-2.3 3.25-3.53l.25-.02c.31 1.76.71 4.42.96 6.1l.08.52 1.84-.23.36 1.37.04.17 1.46.31.32 1.86-.05-2v-.09l-.1-.04-1.19-.44c-.05-.46-.2-1.78-.21-1.93-.15 0-.97-.02-1.54-.03 0-1.34-.03-3.8-.05-4.78 0-.29-.03-1.06-.04-1.33 0-.05-.01-.11-.02-.16.73-.88 1.47-1.76 2.22-2.63 1.23.04 2.46.06 3.69.05.95-1.08 1.92-2.14 2.83-3.25l.33-.41-.17-.37c-.35-.75-.74-1.49-1.13-2.23l-.01.02Z" fill="#000"/></svg>