<svg width="32" height="32" fill="none" xmlns="http://www.w3.org/2000/svg"><path d="M8.307 23.827c-.26-3.32.066-6.703.843-10.138a11.12 11.12 0 0 0-.26-4.069c-.338-1.916.647-2.662 2.353-2.662h9.748c1.71 0 2.694.746 2.356 2.662a11.121 11.121 0 0 0-.26 4.069c.778 3.435 1.104 6.818.844 10.138" stroke="#000" stroke-width="2" stroke-miterlimit="10"/><path d="M8.936 9.822a5.709 5.709 0 0 1 4.016 4.002 5.675 5.675 0 0 1-3.07 6.607 5.724 5.724 0 0 1-1.657.493M16.118 23.498c-1.823.023-3.64.153-5.433.692-1.867-.459-5.297-1.026-4.59 2.037.48 2.09 2.087 2.743 4.073 3.18 1.946.289 3.354.4 5.95.4 2.595 0 4.004-.111 5.95-.4 1.984-.437 3.592-1.09 4.073-3.18.706-3.063-2.723-2.496-4.591-2.037-1.794-.54-3.61-.67-5.432-.692ZM12.95 6.959a1.433 1.433 0 0 1-1.428-1.428V3.428c0-.785.643-1.428 1.428-1.428h6.34c.785 0 1.428.643 1.428 1.428v2.103c0 .785-.643 1.428-1.428 1.428M23.296 9.822a5.71 5.71 0 0 0-4.014 4.002 5.66 5.66 0 0 0-.196 1.476 5.677 5.677 0 0 0 3.266 5.13 5.724 5.724 0 0 0 1.658.494" stroke="#000" stroke-width="2" stroke-miterlimit="10"/></svg>