<svg width="32" height="32" fill="none" xmlns="http://www.w3.org/2000/svg"><path d="M9.04 2h13.922C24.634 2 26 3.395 26 5.097v12.485l-1.807 1.843v8.794c0 .98-.788 1.781-1.748 1.781H9.557c-.962 0-1.75-.8-1.75-1.781v-8.794L6 17.582V5.098C6 3.396 7.37 2 9.04 2Z" stroke="#000" stroke-width="2" stroke-miterlimit="10"/><rect x="10" y="6" width="12" height="9" rx="1" stroke="#000" stroke-width="2"/><path fill-rule="evenodd" clip-rule="evenodd" d="M11 19a1 1 0 0 1 1-1h8a1 1 0 1 1 0 2h-8a1 1 0 0 1-1-1ZM11 23a1 1 0 0 1 1-1h2a1 1 0 1 1 0 2h-2a1 1 0 0 1-1-1ZM11 26a1 1 0 0 1 1-1h2a1 1 0 1 1 0 2h-2a1 1 0 0 1-1-1ZM17 23a1 1 0 0 1 1-1h2a1 1 0 1 1 0 2h-2a1 1 0 0 1-1-1ZM17 26a1 1 0 0 1 1-1h2a1 1 0 1 1 0 2h-2a1 1 0 0 1-1-1Z" fill="#000"/></svg>