<svg width="32" height="32" fill="none" xmlns="http://www.w3.org/2000/svg"><rect x="2" y="6" width="28" height="18" rx="3" stroke="#000" stroke-width="2"/><path d="M10.125 20A1.878 1.878 0 0 0 12 18.125c0-1.022-.83-1.875-1.875-1.875a1.878 1.878 0 0 0-1.875 1.875c0 1.022.853 1.875 1.875 1.875ZM21.875 20a1.893 1.893 0 0 0 1.875-1.875 1.893 1.893 0 0 0-1.875-1.875A1.893 1.893 0 0 0 20 18.125c0 1.022.853 1.875 1.875 1.875Z" stroke="#000" stroke-width="2.025" stroke-miterlimit="10"/><path d="M12.034 18.435H20m3.5.065h2.092c.42 0 .658-.534.658-.902v-1.984c0-.88-1.113-2.27-1.883-2.45-1.05-.187-2.1-.346-3.157-.512-1.19-.858-2.338-1.717-3.611-2.15a12.8 12.8 0 0 0-3.017-.469c-2.023-.079-2.478-.1-4.25.938-.517.289-.93.556-1.707 1.046-.42.325-.896.534-1.428.592-.91.1-1.19 1.202-.896 2.205.063.165.119.367.196.591-.161.39-.497.57-.497 1.183v.981c0 .513.497.816.875.816h1.764" stroke="#000" stroke-width="2.025" stroke-miterlimit="10"/><path fill-rule="evenodd" clip-rule="evenodd" d="M11 28a1 1 0 0 1 1-1h8a1 1 0 1 1 0 2h-8a1 1 0 0 1-1-1Z" fill="#000"/></svg>