<svg width="32" height="32" fill="none" xmlns="http://www.w3.org/2000/svg"><path fill-rule="evenodd" clip-rule="evenodd" d="M5 6a1 1 0 0 0-1 1v17a1 1 0 1 1-2 0V7a3 3 0 0 1 3-3h22a3 3 0 0 1 3 3v17a1 1 0 1 1-2 0V7a1 1 0 0 0-1-1H5Z" fill="#000"/><path fill-rule="evenodd" clip-rule="evenodd" d="M0 24a1 1 0 0 1 1-1h30a1 1 0 0 1 1 1v2a3 3 0 0 1-3 3H3a3 3 0 0 1-3-3v-2Zm2 1v1a1 1 0 0 0 1 1h26a1 1 0 0 0 1-1v-1H2Z" fill="#000"/><path d="M16 9c-1.933.013-3.673.086-4.415 1.255-.352.622-.7 1.243-1.047 1.86H8.474c-.865.976-.505 1.8.747 2.511-.312.394-.62.788-.932 1.182v3.68c0 .281.252.512.554.512h2.42c.304 0 .554-.232.554-.512v-1.494h8.37v1.494c0 .281.246.512.548.512h2.425c.304 0 .55-.232.55-.512v-3.68c-.308-.394-.62-.788-.928-1.182 1.253-.71 1.608-1.535.743-2.51h-2.06c-.352-.618-.7-1.24-1.046-1.86C19.673 9.085 17.937 9.012 16 9Z" stroke="#000" stroke-width="2" stroke-miterlimit="10"/><path d="M11 12c4.046 2.224 6.182 2.144 10 0" stroke="#000" stroke-width="2" stroke-linecap="round"/></svg>