<svg width="32" height="32" fill="none" xmlns="http://www.w3.org/2000/svg"><path d="M6.5 26C7.893 26 9 24.863 9 23.5S7.893 21 6.5 21A2.503 2.503 0 0 0 4 23.5C4 24.863 5.137 26 6.5 26ZM23.5 26c1.363 0 2.5-1.137 2.5-2.5S24.863 21 23.5 21a2.523 2.523 0 0 0-2.5 2.5c0 1.363 1.137 2.5 2.5 2.5Z" stroke="#000" stroke-width="2" stroke-miterlimit="10"/><path d="M9.045 23.913 21.112 24m4.555 0h1.456c.56 0 .877-.712.877-1.202v-2.645c0-1.174-1.484-1.693-2.51-1.934-1.4-.25-2.8-.462-4.21-.683-1.586-1.145-3.117-2.29-4.815-2.866a17.06 17.06 0 0 0-4.023-.626c-2.697-.105-3.304-.134-5.665 1.251-.69.385-1.241.74-2.277 1.395a3.74 3.74 0 0 1-1.904.788c-1.213.135-1.587.27-1.195 1.607.084.221.159.49.262.788-.215.52-.663.76-.663 1.578v1.308c0 .683.663 1.087 1.167 1.087h2.351M2 20h1" stroke="#000" stroke-width="2" stroke-miterlimit="10"/><path d="M27.752 16h1.403c.54 0 .845-.712.845-1.231v-2.616c0-1.203-1.456-1.693-2.418-1.963-1.349-.22-2.698-.432-4.055-.683-1.528-1.115-3.003-2.26-4.666-2.837-1.456-.414-2.625-.577-3.848-.625-2.625-.106-3.182-.135-5.475 1.23-.638.415-1.169.76-2.167 1.415a3.589 3.589 0 0 1-1.86.789c-1.151.105-1.502.269-1.124 1.606.08.221.152.49.251.76-.206.548-.638.788-.638 1.606v.654" stroke="#000" stroke-width="2" stroke-miterlimit="10"/></svg>