<svg width="32" height="32" fill="none" xmlns="http://www.w3.org/2000/svg"><path fill-rule="evenodd" clip-rule="evenodd" d="M11 19a1 1 0 0 1 1-1h8a1 1 0 1 1 0 2h-8a1 1 0 0 1-1-1ZM11 15a1 1 0 0 1 1-1h8a1 1 0 1 1 0 2h-8a1 1 0 0 1-1-1Z" fill="#000"/><path fill-rule="evenodd" clip-rule="evenodd" d="M5.586 4.586A2 2 0 0 1 7 4h5a1 1 0 1 1 0 2H7v21h18V6h-5a1 1 0 1 1 0-2h5a2 2 0 0 1 2 2v21a2 2 0 0 1-2 2H7a2 2 0 0 1-2-2V6a2 2 0 0 1 .586-1.414Z" fill="#000"/><path fill-rule="evenodd" clip-rule="evenodd" d="M16 4a4 4 0 0 0-4 4h8a4 4 0 0 0-4-4Zm-4.243-.243A6 6 0 0 1 22 8v1a1 1 0 0 1-1 1H11a1 1 0 0 1-1-1V8a6 6 0 0 1 1.757-4.243Z" fill="#000"/></svg>