<svg width="32" height="32" fill="none" xmlns="http://www.w3.org/2000/svg"><path fill-rule="evenodd" clip-rule="evenodd" d="M12.546 3.143a1 1 0 0 0-.822-.095 14 14 0 0 0-5.129 2.975 1 1 0 0 0-.326.756l.057 3.398a10.2 10.2 0 0 0-.542.938l-2.975 1.648a1 1 0 0 0-.492.661 13.75 13.75 0 0 0 .013 5.931 1 1 0 0 0 .49.657l2.964 1.647c.165.324.346.64.542.947l-.057 3.39a1 1 0 0 0 .326.756 13.825 13.825 0 0 0 5.148 2.964 1 1 0 0 0 .814-.095l2.49-1.49a9.052 9.052 0 0 1-1.366-1.514l-1.755 1.05a11.826 11.826 0 0 1-3.65-2.1l.055-3.238a1 1 0 0 0-.174-.58 9.01 9.01 0 0 1-.709-1.238 1 1 0 0 0-.418-.447l-2.836-1.577a11.75 11.75 0 0 1-.01-4.2l2.844-1.575a1 1 0 0 0 .421-.45 8.2 8.2 0 0 1 .702-1.214 1 1 0 0 0 .18-.59l-.054-3.25a12 12 0 0 1 3.639-2.111l2.788 1.673a1 1 0 0 0 .586.14 10.04 10.04 0 0 1 1.433 0 1 1 0 0 0 .584-.14l2.78-1.663a11.825 11.825 0 0 1 3.65 2.101l-.055 3.25a1 1 0 0 0 .18.59c.268.384.503.79.702 1.214a1 1 0 0 0 .419.45l2.835 1.576c.087.472.145.947.174 1.424a8.972 8.972 0 0 1 1.74 3.465c.39-1.9.373-3.863-.05-5.757a1 1 0 0 0-.49-.656l-2.963-1.648a10.22 10.22 0 0 0-.543-.939l.058-3.398a1 1 0 0 0-.326-.756A13.826 13.826 0 0 0 20.27 3.06a1 1 0 0 0-.815.095l-2.91 1.742a12.034 12.034 0 0 0-1.076 0l-2.923-1.753Z" fill="#000"/><path fill-rule="evenodd" clip-rule="evenodd" d="M11.006 16.388a5 5 0 0 1 8.221-3.825 9.048 9.048 0 0 1 2.547-.143 7 7 0 1 0-9.735 9.735 9.152 9.152 0 0 1 .143-2.546 4.98 4.98 0 0 1-1.176-3.221ZM21.783 14.46a1 1 0 0 1 .557 1.3l-1.857 4.757h3.523a1 1 0 0 1 .928 1.371l-2.405 6.128a1 1 0 1 1-1.857-.742l1.857-4.757h-3.523a1 1 0 0 1-.929-1.372l2.406-6.128a1 1 0 0 1 1.3-.557Z" fill="#000"/></svg>