<svg width="32" height="32" fill="none" xmlns="http://www.w3.org/2000/svg"><path d="M12 19.5 9 17v-3M18 19.5 15 17v-3M24 19.5 21 17v-3M30 19.5 27 17v-3" stroke="#000" stroke-width="2" stroke-linecap="round" stroke-linejoin="round"/><path d="M30 18.063V10.12C30 9.506 29.492 9 28.86 9H6.14C5.516 9 5 9.506 5 10.12v11.046c0 1.309 1.097 2.386 2.437 2.386h8.708a1.11 1.11 0 0 1 1.117 1.105v.414c0 1.063.883 1.929 1.957 1.929h10.778v-7.403" stroke="#000" stroke-width="2" stroke-miterlimit="10"/><path d="M2 21V11M3 16h2" stroke="#000" stroke-width="2" stroke-linecap="round"/><path d="M6 9c0-1.657 1.341-3 2.995-3A3.007 3.007 0 0 1 12 9M12 9c0-1.657 1.341-3 2.995-3A3.007 3.007 0 0 1 18 9M18 9c0-1.657 1.117-3 2.496-3C21.874 6 23 7.343 23 9M23 9c0-1.657 1.341-3 2.995-3A3.007 3.007 0 0 1 29 9" stroke="#000" stroke-width="2" stroke-miterlimit="10"/></svg>