<svg width="32" height="32" fill="none" xmlns="http://www.w3.org/2000/svg"><path fill-rule="evenodd" clip-rule="evenodd" d="M16 12a1 1 0 0 1 1 1v5a1 1 0 1 1-2 0v-5a1 1 0 0 1 1-1Z" fill="#000"/><path fill-rule="evenodd" clip-rule="evenodd" d="M14.502 3.403a2.987 2.987 0 0 1 4.09 1.098l.002.002L29.592 23.5a3 3 0 0 1-2.588 4.5H4.997a3 3 0 0 1-2.587-4.5L13.408 4.503l.001-.002a2.987 2.987 0 0 1 1.093-1.098ZM14.276 5l.865.5-11 19a1.002 1.002 0 0 0 .365 1.364 1 1 0 0 0 .497.136h21.996a1 1 0 0 0 .861-1.5L16.858 5.497a.987.987 0 0 0-1.714 0L14.276 5Z" fill="#000"/><path d="M16 24a1.5 1.5 0 1 0 0-3 1.5 1.5 0 0 0 0 3Z" fill="#000"/></svg>