<svg width="32" height="32" fill="none" xmlns="http://www.w3.org/2000/svg"><path d="M6.27 6.524h12.774c6.024 0 10.904 4.884 10.904 10.904S25.07 28.326 19.044 28.326c-6.025 0-10.898-4.88-10.898-10.898 0-.55.039-1.086.12-1.615H6.27" stroke="#000" stroke-width="2" stroke-miterlimit="10"/><path d="M19.043 24.942c4.14 0 7.513-3.379 7.513-7.514s-3.372-7.513-7.513-7.513c-4.14 0-7.508 3.378-7.508 7.513s3.373 7.514 7.508 7.514ZM4.97 5.225H2.054v11.891h2.914c.714 0 1.3-.589 1.3-1.303V6.525c0-.715-.584-1.3-1.3-1.3Z" stroke="#000" stroke-width="2" stroke-miterlimit="10"/><path d="M19.044 19.474a2.05 2.05 0 0 0 2.047-2.046 2.05 2.05 0 0 0-2.047-2.046c-1.13 0-2.04.916-2.04 2.046s.916 2.046 2.04 2.046ZM16.625 10.311c1.823 1.217 2.522 2.957 2.418 5.069" stroke="#000" stroke-width="2" stroke-miterlimit="10"/><path d="M11.527 17.53c1.725-1.36 3.59-1.49 5.572-.737M16.82 24.603c-.758-2.053-.305-3.876 1.02-5.523M25.184 21.76c-2.189.086-3.777-.907-4.934-2.68M25.062 12.925c-.595 2.112-2.03 3.313-4.072 3.87M7.977 9h3.513M7.977 12h3.513" stroke="#000" stroke-width="2" stroke-miterlimit="10"/></svg>