<svg width="32" height="32" fill="none" xmlns="http://www.w3.org/2000/svg"><path d="M9.642 13.816C9.642 11.722 7.925 10 5.831 10 3.722 10 2 11.722 2 13.816v4.036a3.831 3.831 0 0 0 3.826 3.826c2.094 0 3.816-1.717 3.816-3.826v-1.066H5.151" stroke="#000" stroke-width="2" stroke-miterlimit="10"/><path d="m20.397 21.678-3.234-10.773c-.25-.836-1.434-.836-1.688 0l-3.248 10.778" stroke="#000" stroke-width="2" stroke-miterlimit="10" stroke-linecap="round"/><path d="M13.684 16.78h5.24M29.84 12.916c0-1.61-1.634-2.911-3.659-2.911-2.026 0-3.65 1.301-3.65 2.91 0 4.438 7.31 1.385 7.31 5.828 0 1.61-1.635 2.91-3.66 2.91-2.026 0-3.65-1.3-3.65-2.91" stroke="#000" stroke-width="2" stroke-miterlimit="10"/></svg>