<svg width="32" height="32" fill="none" xmlns="http://www.w3.org/2000/svg"><path d="M18.707 5.78c1.2-2.077 3.886-2.797 5.971-1.593a4.382 4.382 0 0 1 1.598 5.963l-6.708 11.618c-1.199 2.078-.479 4.765 1.606 5.968a4.382 4.382 0 0 0 5.963-1.598l2.678-4.37" stroke="#000" stroke-width="2" stroke-miterlimit="10"/><path d="M10.366 10.928a4 4 0 1 1 6.928 4l-8 13.857-6.928-4 8-13.857Z" stroke="#000" stroke-width="2"/><path d="m4.367 21.32 6.928 4" stroke="#000" stroke-width="2" stroke-linejoin="round"/><path stroke="#000" stroke-width="2" d="m16.098 5 3.464 2-2 3.464-3.464-2z"/></svg>