<svg width="32" height="32" fill="none" xmlns="http://www.w3.org/2000/svg"><path fill-rule="evenodd" clip-rule="evenodd" d="M16 11a5 5 0 1 0 0 10 5 5 0 0 0 0-10Zm-7 5a7 7 0 1 1 14 0 7 7 0 0 1-14 0Z" fill="#000"/><path fill-rule="evenodd" clip-rule="evenodd" d="M11.718 2.66a1 1 0 0 1 .822.095l2.923 1.754a12.04 12.04 0 0 1 1.076 0l2.91-1.742a1 1 0 0 1 .815-.096 13.825 13.825 0 0 1 5.148 2.965 1 1 0 0 1 .326.756l-.057 3.397c.197.304.378.617.542.94l2.963 1.647a1 1 0 0 1 .49.656 13.75 13.75 0 0 1 .014 5.931 1 1 0 0 1-.492.662l-2.975 1.647c-.164.322-.345.635-.542.938l.057 3.398a1 1 0 0 1-.326.756 14.002 14.002 0 0 1-5.13 2.975 1 1 0 0 1-.821-.094l-2.923-1.754c-.358.016-.717.016-1.075 0l-2.911 1.742a1 1 0 0 1-.815.095 13.826 13.826 0 0 1-5.148-2.964 1 1 0 0 1-.326-.756l.057-3.39a10.999 10.999 0 0 1-.542-.946l-2.963-1.648a1 1 0 0 1-.49-.656 13.75 13.75 0 0 1-.014-5.932 1 1 0 0 1 .493-.661l2.974-1.648c.164-.322.345-.635.542-.938l-.057-3.397a1 1 0 0 1 .326-.756 14 14 0 0 1 5.13-2.975ZM8.271 6.82l.054 3.25a1 1 0 0 1-.18.59 8.2 8.2 0 0 0-.702 1.214 1 1 0 0 1-.42.45L4.178 13.9a11.75 11.75 0 0 0 .01 4.2l2.836 1.576a1 1 0 0 1 .418.447c.204.43.44.845.71 1.238a1 1 0 0 1 .173.58l-.054 3.238a11.826 11.826 0 0 0 3.649 2.101l2.78-1.663a1 1 0 0 1 .584-.14c.477.035.956.035 1.433 0a1 1 0 0 1 .585.14l2.79 1.673a12 12 0 0 0 3.638-2.111l-.054-3.25a1 1 0 0 1 .18-.59c.268-.383.503-.79.702-1.214a1 1 0 0 1 .42-.45l2.845-1.575a11.751 11.751 0 0 0-.01-4.2l-2.836-1.576a1 1 0 0 1-.42-.45 8.197 8.197 0 0 0-.701-1.214 1 1 0 0 1-.18-.59l.054-3.25a11.826 11.826 0 0 0-3.649-2.1l-2.78 1.663a1 1 0 0 1-.584.14 10.037 10.037 0 0 0-1.433 0 1 1 0 0 1-.586-.14L11.91 4.708a12 12 0 0 0-3.64 2.112Z" fill="#000"/></svg>