<svg width="32" height="32" fill="none" xmlns="http://www.w3.org/2000/svg"><path clip-rule="evenodd" d="M22.419 29c1.756 0 3.252-1.125 3.96-2.778.11-.22.2-.474.26-.717l3.022-8.687c.23-.474.339-.97.339-1.533C30 13.477 28.673 12 27.027 12c-.309 0-.598.066-.877.154l-8.96 3.131L5.392 19.41C3.466 19.905 2 21.812 2 24.127 2 26.817 3.975 29 6.409 29h16.01Z" stroke="#000" stroke-width="2"/><circle cx="20.5" cy="21.5" r="3.5" stroke="#000" stroke-width="2"/><circle cx="9" cy="24" r="2" stroke="#000" stroke-width="2"/><path d="m8.455 3.375 1.228 4.301 3.97 1.311c.458.156.467.855 0 1.01l-3.97 1.33-1.228 4.302c-.143.495-.797.495-.932 0l-1.21-4.302-3.97-1.33c-.457-.155-.457-.864 0-1.01l3.97-1.31 1.21-4.302c.144-.495.789-.505.932 0Z" stroke="#000" stroke-width="2" stroke-miterlimit="10"/></svg>