<svg width="32" height="32" fill="none" xmlns="http://www.w3.org/2000/svg"><path fill-rule="evenodd" clip-rule="evenodd" d="M12.585 6.645A5.5 5.5 0 0 0 4.5 11.5c0 3.79 2.822 7.407 5.919 10.194A38.466 38.466 0 0 0 16 25.84l.017-.01a38.466 38.466 0 0 0 5.564-4.134C24.678 18.906 27.5 15.29 27.5 11.5a5.5 5.5 0 0 0-10.577-2.115L16 9l-.923.385a5.5 5.5 0 0 0-2.492-2.74ZM16 7a7.5 7.5 0 0 0-13.5 4.5c0 4.71 3.428 8.843 6.581 11.68a40.463 40.463 0 0 0 6.387 4.668l.03.017.01.005.002.002L16 27l-.489.872a1 1 0 0 0 .978 0L16 27l.49.872.003-.002.008-.005.03-.017a19.14 19.14 0 0 0 .526-.311 40.466 40.466 0 0 0 5.862-4.356C26.072 20.343 29.5 16.21 29.5 11.5A7.5 7.5 0 0 0 16 7Z" fill="#000"/></svg>