<svg width="16" height="16" fill="none" xmlns="http://www.w3.org/2000/svg"><path fill-rule="evenodd" clip-rule="evenodd" d="M15.587 2.763c.197.506.335 1.09.372 1.941.038.853.041 1.125.041 3.298 0 2.172-.01 2.444-.047 3.297-.037.85-.175 1.432-.372 1.941a4.093 4.093 0 0 1-2.341 2.341c-.507.197-1.091.335-1.942.372-.853.038-1.125.047-3.298.047s-2.445-.01-3.298-.047c-.85-.037-1.432-.175-1.942-.372a3.939 3.939 0 0 1-1.416-.922A3.945 3.945 0 0 1 .42 13.24c-.197-.506-.335-1.09-.372-1.94C.009 10.445 0 10.173 0 8.001 0 5.829.01 5.557.05 4.7c.038-.85.175-1.432.372-1.941a3.94 3.94 0 0 1 .922-1.416c.4-.41.882-.722 1.42-.925C3.27.222 3.854.084 4.705.047 5.558.009 5.83 0 8.003 0s2.445.01 3.301.05c.85.038 1.432.175 1.942.372a3.94 3.94 0 0 1 1.416.922c.41.4.722.881.925 1.419Zm-1.344 9.958c.11-.281.24-.703.275-1.484.038-.844.047-1.094.047-3.23 0-2.134-.01-2.387-.047-3.231-.034-.778-.165-1.203-.275-1.485a2.487 2.487 0 0 0-.597-.919 2.46 2.46 0 0 0-.92-.597c-.28-.109-.703-.24-1.484-.275-.841-.037-1.094-.047-3.233-.047-2.135 0-2.388.01-3.232.047-.778.035-1.204.166-1.485.275-.347.129-.66.332-.92.597a2.432 2.432 0 0 0-.6.92c-.109.28-.24.703-.274 1.484-.038.84-.047 1.097-.047 3.232 0 2.135.009 2.388.047 3.232.034.778.165 1.203.275 1.485.128.346.331.659.597.918.256.266.572.47.919.597.281.11.703.241 1.485.275.84.038 1.097.047 3.232.047 2.136 0 2.389-.009 3.233-.047.778-.034 1.203-.165 1.485-.275a2.654 2.654 0 0 0 1.52-1.519Zm-10.35-4.72a4.112 4.112 0 0 1 8.221 0 4.112 4.112 0 0 1-8.222 0Zm1.443 0a2.667 2.667 0 1 0 5.334 0 2.667 2.667 0 0 0-5.334 0Zm6.94-3.313a.96.96 0 1 0 0-1.92.96.96 0 0 0 0 1.92Z" fill="url(#a)"/><defs><linearGradient id="a" x1="16" y1="0" x2="0" y2="16" gradientUnits="userSpaceOnUse"><stop stop-color="#C8219C"/><stop offset=".495" stop-color="#FF1658"/><stop offset="1" stop-color="#FDBE30"/></linearGradient></defs></svg>