<svg width="32" height="32" fill="none" xmlns="http://www.w3.org/2000/svg"><path d="M26.484 5.484c-3.173-3.065-5.65-4.533-7.24-3.197-3.162 2.858-5.994 6.33-8.536 10.355-1.478 2.542-.742 4.426 1.726 6.893 2.467 2.468 4.35 3.202 6.893 1.726 4.025-2.542 7.493-5.375 10.352-8.538 1.337-1.59-.131-4.068-3.195-7.239Z" stroke="#000" stroke-width="2" stroke-miterlimit="10"/><path d="M18.668 7.542c-1.906 2.104-3.603 4.403-5.118 6.798-.113.197-.297.564-.281.77.045.549 1.159 1.714 1.518 2.073s1.522 1.471 2.073 1.518c.205.015.572-.17.77-.282 2.392-1.515 4.691-3.214 6.798-5.117l-5.76-5.76ZM10.8 17.768l-.073-.073L1.7 26.721l.428 3.119 3.116.425 9.025-9.026-.073-.073" stroke="#000" stroke-width="2" stroke-miterlimit="10"/><path d="m22 6 4 4" stroke="#000" stroke-width="2" stroke-linecap="round"/><path d="m16 11 5 5" stroke="#000" stroke-width="2"/></svg>