<svg width="32" height="32" fill="none" xmlns="http://www.w3.org/2000/svg"><path fill-rule="evenodd" clip-rule="evenodd" d="M21.238 5.107a6.987 6.987 0 0 0-7.365 10.27 1 1 0 0 1-.22 1.243l-8.095 6.986a2.005 2.005 0 0 0 2.836 2.835l6.986-8.094L16 18l.623.126a6.987 6.987 0 0 0 10.27-7.365l-4.06 4.07a1 1 0 0 1-.906.274l-3.538-.712a1 1 0 0 1-.782-.783l-.713-3.537a1 1 0 0 1 .274-.906l4.07-4.06Zm-4.85 15.134L9.88 27.779a4.005 4.005 0 1 1-5.66-5.66l7.538-6.507A8.988 8.988 0 0 1 23.518 3.718a1 1 0 0 1 .313 1.628l-4.87 4.858.475 2.36 2.36.475 4.858-4.87a1 1 0 0 1 1.627.313A8.987 8.987 0 0 1 16.387 20.24Z" fill="#000"/></svg>