<svg width="32" height="32" fill="none" xmlns="http://www.w3.org/2000/svg"><path fill-rule="evenodd" clip-rule="evenodd" d="M3.136 21.496a1 1 0 0 1 1.368-.36L16 27.843l11.496-6.707a1 1 0 1 1 1.008 1.728l-12 7a1 1 0 0 1-1.008 0l-12-7a1 1 0 0 1-.36-1.368Z" fill="#000"/><path fill-rule="evenodd" clip-rule="evenodd" d="M3.136 15.496a1 1 0 0 1 1.368-.36L16 21.843l11.496-6.707a1 1 0 1 1 1.008 1.728l-12 7a1 1 0 0 1-1.008 0l-12-7a1 1 0 0 1-.36-1.368Z" fill="#000"/><path fill-rule="evenodd" clip-rule="evenodd" d="M15.496 2.136a1 1 0 0 1 1.008 0l12 7a1 1 0 0 1 0 1.728l-12 7a1 1 0 0 1-1.008 0l-12-7a1 1 0 0 1 0-1.728l12-7ZM5.985 10 16 15.842 26.015 10 16 4.158 5.985 10Z" fill="#000"/></svg>