<svg width="32" height="32" fill="none" xmlns="http://www.w3.org/2000/svg"><path fill-rule="evenodd" clip-rule="evenodd" d="M16 3a9 9 0 1 0 0 18 9 9 0 0 0 0-18ZM5 12C5 5.925 9.925 1 16 1s11 4.925 11 11-4.925 11-11 11S5 18.075 5 12Z" fill="#000"/><path fill-rule="evenodd" clip-rule="evenodd" d="M16 7a5 5 0 1 0 0 10 5 5 0 0 0 0-10Zm-7 5a7 7 0 1 1 14 0 7 7 0 0 1-14 0Z" fill="#000"/><path fill-rule="evenodd" clip-rule="evenodd" d="M10 19a1 1 0 0 1 1 1v8.382l4.553-2.276a1 1 0 0 1 .894 0L21 28.382V20a1 1 0 1 1 2 0v10a1 1 0 0 1-1.447.894L16 28.118l-5.553 2.776A1 1 0 0 1 9 30V20a1 1 0 0 1 1-1Z" fill="#000"/></svg>