<svg width="32" height="32" fill="none" xmlns="http://www.w3.org/2000/svg"><path fill-rule="evenodd" clip-rule="evenodd" d="M14.858 2.294a2 2 0 0 1 3.017.946l.002.006 2.899 7.97c0 .002.002.004.003.005l.003.003s.001 0 0 0l7.979 2.901a2 2 0 0 1 0 3.75l-.007.002-7.97 2.899a.014.014 0 0 0-.005.003.014.014 0 0 0-.003.004l-2.9 7.978a2 2 0 0 1-3.75 0l-.003-.007-2.899-7.97-.001-.004-.002-.001a.013.013 0 0 0-.004-.003l-7.977-2.9a2 2 0 0 1 0-3.75l.006-.003 7.97-2.899s.001 0 0 0a.012.012 0 0 0 .005-.003.012.012 0 0 0 .003-.004l2.901-7.977a2 2 0 0 1 .733-.946Zm4.98 18.144-.939-.346a2.013 2.013 0 0 1 1.193-1.193l.004-.001L28.065 16l-7.97-2.898-.003-.001a2.013 2.013 0 0 1-1.193-1.193l-.001-.004L16 3.936l-2.898 7.968-.001.004a2.013 2.013 0 0 1-1.193 1.193l-.004.001L3.936 16l7.972 2.9a2.013 2.013 0 0 1 1.193 1.192l.001.004L16 28.065l2.898-7.97.94.343Z" fill="#000"/></svg>