<svg width="32" height="32" fill="none" xmlns="http://www.w3.org/2000/svg"><path d="m17.595 3.777.313.398c.554.71 1.516.964 2.347.626l.482-.193c1.215-.481 2.576.302 2.756 1.59l.072.507c.133.891.83 1.59 1.722 1.723l.505.072a2.03 2.03 0 0 1 1.589 2.771l-.18.47a2.04 2.04 0 0 0 .625 2.35l.398.313a2.03 2.03 0 0 1 0 3.192l-.41.314a2.022 2.022 0 0 0-.626 2.349l.193.482c.482 1.217-.3 2.578-1.589 2.759l-.505.072a2.044 2.044 0 0 0-1.722 1.723l-.072.506c-.192 1.301-1.54 2.085-2.756 1.59l-.482-.192a2.035 2.035 0 0 0-2.347.626l-.313.398a2.025 2.025 0 0 1-3.19 0l-.313-.398a2.013 2.013 0 0 0-2.347-.626l-.482.193c-1.215.482-2.575-.302-2.756-1.59l-.072-.507a2.044 2.044 0 0 0-1.722-1.723l-.505-.072c-1.3-.193-2.083-1.542-1.589-2.759l.193-.482a2.04 2.04 0 0 0-.626-2.35l-.41-.313a2.03 2.03 0 0 1 0-3.192l.398-.314c.71-.554.963-1.518.626-2.349l-.181-.47c-.481-1.217.289-2.578 1.589-2.771l.505-.072a2.044 2.044 0 0 0 1.722-1.723l.072-.506c.193-1.301 1.54-2.085 2.756-1.59l.482.192c.83.338 1.793.072 2.347-.626l.313-.398a2.025 2.025 0 0 1 3.19 0Z" stroke="#000" stroke-width="2"/><path d="m20 13-5.769 6L12 16.702" stroke="#000" stroke-width="2" stroke-miterlimit="10" stroke-linecap="round" stroke-linejoin="round"/></svg>