<svg width="32" height="32" fill="none" xmlns="http://www.w3.org/2000/svg"><path fill-rule="evenodd" clip-rule="evenodd" d="M4.586 5.586A2 2 0 0 1 6 5h20a2 2 0 0 1 2 2v7.338c0 11.185-9.497 14.888-11.36 15.507a1.9 1.9 0 0 1-1.28 0C13.496 29.225 4 25.523 4 14.338V7a2 2 0 0 1 .586-1.414ZM26 7H6v7.338c0 9.782 8.275 13.04 10 13.612 1.725-.571 10-3.83 10-13.612V7Z" fill="#000"/><path d="M12 16.91c0-3.183 4-5.91 4-5.91s4 2.727 4 5.91a4.138 4.138 0 0 1-1.172 2.892A3.955 3.955 0 0 1 16 21a3.955 3.955 0 0 1-2.828-1.198A4.138 4.138 0 0 1 12 16.909Z" stroke="#000" stroke-width="2" stroke-linecap="round" stroke-linejoin="round"/></svg>