<svg width="20" height="20" fill="none" xmlns="http://www.w3.org/2000/svg"><path d="M18 13.98v2.408a1.605 1.605 0 0 1-1.754 1.606 15.94 15.94 0 0 1-6.943-2.465 15.672 15.672 0 0 1-4.827-4.818 15.869 15.869 0 0 1-2.47-6.96 1.603 1.603 0 0 1 .953-1.614c.204-.09.425-.137.648-.137h2.414A1.61 1.61 0 0 1 7.63 3.381c.102.771.29 1.528.563 2.256a1.603 1.603 0 0 1-.362 1.694l-1.022 1.02a12.86 12.86 0 0 0 4.827 4.817l1.022-1.02a1.61 1.61 0 0 1 1.697-.36c.73.271 1.489.46 2.26.561A1.61 1.61 0 0 1 18 13.98Z" stroke="#FBED20" stroke-width="2" stroke-linecap="round" stroke-linejoin="round"/></svg>