<svg width="20" height="20" fill="none" xmlns="http://www.w3.org/2000/svg"><path d="M8.457 11.66c.939.9 1.604 1.525 2.19 1.8.47.273.939.077 1.213-.196.274-.352.547-.626.86-.978.548-.626 3.403.47 4.263.626.665.195 1.017.547 1.017.977v1.526c-.743 1.603-1.877 2.503-3.598 2.581-2.464.078-5.28-.978-8.409-4.028-3.011-3.13-4.067-5.906-3.989-8.409 0-1.682.939-2.855 2.542-3.559h1.525c.47 0 .86.43.94 1.056.273.9 1.407 3.676.742 4.263-.274.274-.665.548-.938.821-.274.274-.47.704-.196 1.252.313.665.86 1.29 1.838 2.268Z" fill="#000"/></svg>