<svg width="32" height="32" fill="none" xmlns="http://www.w3.org/2000/svg"><path d="M8.397 21.674a9.647 9.647 0 0 1-3.513-2.233c-3.744-3.752-3.744-9.817 0-13.558 3.74-3.74 9.808-3.74 13.557 0a9.574 9.574 0 0 1 2.37 9.627" stroke="#000" stroke-width="2" stroke-miterlimit="10"/><path d="m28.218 22.909-9.264-9.256h-2.22l-3.65-3.65a2.02 2.02 0 0 0-2.856 0L9.212 11.02a2.02 2.02 0 0 0 0 2.856l3.65 3.65v2.22l9.256 9.256c1.234 1.234 3.257 1.234 4.483 0l1.614-1.606a3.192 3.192 0 0 0 0-4.484l.003-.002Z" stroke="#000" stroke-width="2" stroke-miterlimit="10"/><path d="m16.04 22.925-4.378 4.377a1.884 1.884 0 0 1-2.65 0 1.874 1.874 0 0 1 0-2.643l4.384-4.385M5.557 10.738a6.207 6.207 0 0 1 4.15-4.174M26.87 23.84l-1.82 1.818M25.076 22.046l-1.82 1.817" stroke="#000" stroke-width="2" stroke-miterlimit="10"/></svg>