<svg width="32" height="32" fill="none" xmlns="http://www.w3.org/2000/svg"><path fill-rule="evenodd" clip-rule="evenodd" d="M21.998 4A3.987 3.987 0 0 1 26 8.002v.002L25 8h1v14a1 1 0 1 1-2 0V7.996A1.988 1.988 0 0 0 22.004 6H5a1 1 0 0 1 0-2h16.998Zm0 0h-.002L22 5V4h-.002Z" fill="#000"/><path fill-rule="evenodd" clip-rule="evenodd" d="M12 13a1 1 0 0 1 1-1h8a1 1 0 1 1 0 2h-8a1 1 0 0 1-1-1ZM12 17a1 1 0 0 1 1-1h8a1 1 0 1 1 0 2h-8a1 1 0 0 1-1-1Z" fill="#000"/><path fill-rule="evenodd" clip-rule="evenodd" d="M5.237 6.016a2 2 0 0 0-1.729 3.318 1 1 0 0 1-1.491 1.332A4 4 0 1 1 9 7.999v16a2 2 0 1 0 3.492-1.333A1 1 0 0 1 13.237 21h14a1 1 0 0 1 .746.333A4 4 0 0 1 25 28H11c-.022 0-.044 0-.066-.002A4.001 4.001 0 0 1 7 24V8a2 2 0 0 0-1.763-1.984ZM14.463 26H25a2.002 2.002 0 0 0 1.978-2.308 1.999 1.999 0 0 0-.245-.692h-11.86l.007.027A4 4 0 0 1 14.463 26Z" fill="#000"/></svg>