<svg width="32" height="32" fill="none" xmlns="http://www.w3.org/2000/svg"><path d="M27.979 10.432c1.315 1.45 2.384 3.083 2.887 5.136.201 1 .175 1.966-.091 2.892-.124.256-.667-.058-1.292-.43-1.108-.66-1.162-1.14-1.628-2.285-.74-1.821-.703-1.22-2.434-2.76a3.634 3.634 0 0 1-3.523-.938 3.633 3.633 0 0 1-.866-3.758L19.7 6.957l-.282.28a1.008 1.008 0 0 1-1.425 0l-1.096-1.094a1.01 1.01 0 0 1 0-1.424l3.425-3.426a1.009 1.009 0 0 1 1.423 0L22.84 2.39a1.007 1.007 0 0 1 0 1.424l-.28.283 1.747 1.747a3.624 3.624 0 0 1 2.733 1.062 3.635 3.635 0 0 1 .938 3.526Z" stroke="#000" stroke-width="2" stroke-miterlimit="10" stroke-linejoin="round"/><path d="M21.012 10.602 4.848 24.78a1.464 1.464 0 0 0-.072 2.159l.985.985.13.13.987.987c.614.614 1.585.58 2.158-.073l14.122-16.1" stroke="#000" stroke-width="2" stroke-miterlimit="10"/><path d="M11.275 5.797a5.434 5.434 0 0 0-5.57-1.31l3.553 3.554-3.423 3.425-3.553-3.554a5.433 5.433 0 0 0 8.994 5.57 5.432 5.432 0 0 0 0-7.685Z" stroke="#000" stroke-width="2" stroke-miterlimit="10" stroke-linejoin="round"/><path d="M12.817 10.396c.842 1.255 1.493 2.185 2.395 3.254m4.864 5.06 6.475 6.474a2.524 2.524 0 1 1-3.572 3.57l-6.241-6.241m-5.564-5.322c-.959-.79-1.835-1.401-2.985-2.171" stroke="#000" stroke-width="2" stroke-miterlimit="10"/></svg>