<svg width="32" height="32" fill="none" xmlns="http://www.w3.org/2000/svg"><path fill-rule="evenodd" clip-rule="evenodd" d="M14.831 2.36a2.037 2.037 0 0 1 3.078.957l2.745 6.914.009.021a.037.037 0 0 0 .012.017.036.036 0 0 0 .02.008h.007l7.375.475c1.914.124 2.568 2.52 1.175 3.68l-5.65 4.711-.002.003a.088.088 0 0 0-.03.087v.001l1.824 7.17c.442 1.742-1.44 3.312-3.078 2.28l-.002-.002-6.3-4a.028.028 0 0 0-.014-.005.024.024 0 0 0-.014.004l-.001.001-5.86 3.712h-.002c-1.796 1.142-3.87-.594-3.38-2.516l1.686-6.644a.088.088 0 0 0-.029-.088l-.003-.003-5.649-4.711c-1.394-1.16-.74-3.556 1.175-3.68l7.381-.475a.036.036 0 0 0 .02-.008.037.037 0 0 0 .013-.017l.008-.021 2.746-6.914c.144-.386.402-.72.74-.956Zm2.256 20.634 6.296 3.998a.1.1 0 0 0 .021.01.087.087 0 0 0 .052-.05.06.06 0 0 0 .004-.017c0-.007 0-.02-.004-.04l-1.827-7.18a2.088 2.088 0 0 1 .696-2.11l5.649-4.712a.086.086 0 0 0 .018-.02.046.046 0 0 0 .006-.014.12.12 0 0 0-.003-.063.096.096 0 0 0-.025-.043l-.002-.002a.064.064 0 0 0-.02-.003l-7.369-.475h-.003a2.038 2.038 0 0 1-1.784-1.313l-2.747-6.916a1.274 1.274 0 0 1-.01-.027.037.037 0 0 0-.07 0l-.01.027-2.747 6.916a2.037 2.037 0 0 1-1.784 1.313l-7.372.475a.068.068 0 0 0-.02.004h-.003a.095.095 0 0 0-.024.044.12.12 0 0 0-.003.063c.001.006.003.01.006.014.002.004.007.01.018.02l.002.002 5.647 4.71.002.001a2.087 2.087 0 0 1 .694 2.11l-.002.005-1.688 6.652a.29.29 0 0 0 .237.373.21.21 0 0 0 .133-.04l5.862-3.712.002-.001a2.025 2.025 0 0 1 2.172 0Z" fill="#000"/></svg>