<svg width="24" height="24" fill="none" xmlns="http://www.w3.org/2000/svg"><mask id="a" fill="#fff"><path fill-rule="evenodd" clip-rule="evenodd" d="M1.484 10.832a1.652 1.652 0 0 0 0 2.336l2.136 2.137v3.906c0 .58.471 1.051 1.052 1.051h3.906l2.254 2.254a1.652 1.652 0 0 0 2.336 0l2.254-2.254h3.671c.581 0 1.052-.47 1.052-1.051V15.54l2.371-2.372a1.652 1.652 0 0 0 0-2.336L20.145 8.46V4.79c0-.581-.471-1.052-1.052-1.052h-3.67l-2.255-2.254a1.652 1.652 0 0 0-2.336 0L8.578 3.738H4.672c-.58 0-1.052.47-1.052 1.051v3.906l-2.136 2.137Z"/></mask><path d="M1.484 13.168.07 14.583l1.414-1.415Zm0-2.336L.07 9.417l1.414 1.415Zm2.136 4.473h2v-.829l-.585-.585-1.415 1.414Zm4.958 4.957 1.414-1.414-.586-.586h-.828v2Zm6.844 0v-2h-.828l-.586.586 1.414 1.414Zm4.723-4.722-1.415-1.414-.585.585v.829h2Zm0-7.08h-2v.829l.585.585 1.415-1.414Zm-4.723-4.722-1.414 1.414.586.586h.828v-2Zm-2.254-2.254L14.583.07l-1.415 1.414Zm-2.336 0L9.417.07l1.415 1.414ZM8.578 3.738v2h.828l.586-.586-1.414-1.414ZM3.62 8.695l1.415 1.414.585-.585v-.829h-2Zm-.722 3.06a.348.348 0 0 1 0 .49L.07 9.418a3.652 3.652 0 0 0 0 5.166l2.828-2.829Zm2.137 2.136-2.137-2.137L.07 14.583l2.136 2.136 2.829-2.828Zm.585 5.32v-3.906h-4v3.906h4Zm-.948-.949c.524 0 .948.425.948.949h-4a3.052 3.052 0 0 0 3.052 3.051v-4Zm3.906 0H4.672v4h3.906v-4Zm3.668 2.84-2.254-2.254-2.829 2.828 2.254 2.254 2.829-2.828Zm-.492 0a.348.348 0 0 1 .492 0L9.417 23.93a3.652 3.652 0 0 0 5.166 0l-2.829-2.828Zm2.254-2.254-2.254 2.254 2.829 2.828 2.254-2.254-2.829-2.828Zm5.085-.586h-3.67v4h3.67v-4Zm-.948.949c0-.524.424-.949.948-.949v4a3.052 3.052 0 0 0 3.052-3.051h-4Zm0-3.671v3.67h4v-3.67h-4Zm2.957-3.786-2.372 2.372 2.829 2.828 2.371-2.371-2.828-2.829Zm0 .492a.348.348 0 0 1 0-.492l2.828 2.829a3.652 3.652 0 0 0 0-5.166l-2.828 2.829ZM18.73 9.874l2.372 2.372 2.828-2.829-2.371-2.37-2.829 2.827Zm-.585-5.085V8.46h4V4.79h-4Zm.948.949a.948.948 0 0 1-.948-.949h4a3.052 3.052 0 0 0-3.052-3.051v4Zm-3.67 0h3.67v-4h-3.67v4Zm-3.669-2.84 2.254 2.254 2.829-2.828L14.583.07l-2.829 2.828Zm.492 0a.348.348 0 0 1-.492 0L14.583.07a3.652 3.652 0 0 0-5.166 0l2.829 2.828ZM9.992 5.152l2.254-2.254L9.417.07 7.163 2.324l2.829 2.828Zm-5.32.586h3.906v-4H4.672v4Zm.948-.949a.948.948 0 0 1-.948.949v-4A3.052 3.052 0 0 0 1.62 4.789h4Zm0 3.906V4.79h-4v3.906h4Zm-2.722 3.55 2.137-2.136-2.829-2.828L.07 9.417l2.828 2.829Z" fill="#000" mask="url(#a)"/><circle cx="9.5" cy="9.5" r="1.5" fill="#000"/><circle cx="14.5" cy="14.5" r="1.5" fill="#000"/><path d="m14 10-4 4" stroke="#000" stroke-width="2" stroke-linecap="round"/></svg>