<svg width="14" height="14" fill="none" xmlns="http://www.w3.org/2000/svg"><rect x="1.668" y="1.742" width="10.515" height="10.515" rx="1.052" fill="#FBED20"/><path d="M.308 7.744a1.052 1.052 0 0 1 0-1.488L6.256.308c.411-.41 1.077-.41 1.488 0l5.948 5.948c.41.411.41 1.077 0 1.488l-5.948 5.948c-.411.41-1.077.41-1.488 0L.308 7.744Z" fill="#FBED20"/><path fill-rule="evenodd" clip-rule="evenodd" d="M6 4.5a1.5 1.5 0 1 1-3 0 1.5 1.5 0 0 1 3 0Zm5 5a1.5 1.5 0 1 1-3 0 1.5 1.5 0 0 1 3 0ZM9.707 5.707a1 1 0 0 0-1.414-1.414l-4 4a1 1 0 0 0 1.414 1.414l4-4Z" fill="#000"/></svg>