<svg width="32" height="32" fill="none" xmlns="http://www.w3.org/2000/svg"><path d="m15.146 16.854 2.947 2.947c.392-1.358.967-2.592 1.794-3.587.753-.908 1.36-1.272 2.43-1.759 1.461-.666 2.89-1.35 4.17-2.19 2.528-1.658 5.537-4.293 1.529-8.295-4.002-3.99-6.628-.983-8.283 1.543-.84 1.278-1.524 2.707-2.19 4.17-.487 1.072-.851 1.675-1.759 2.428-.996.827-2.23 1.404-3.587 1.794l2.95 2.95h-.001Z" stroke="#000" stroke-width="2" stroke-miterlimit="10" stroke-linejoin="round"/><path d="m19.322 16.974-4.297-4.297" stroke="#000" stroke-width="2" stroke-miterlimit="10"/><path d="M16.904 18.61 7.14 27.357l-5.067 2.572 2.572-5.066 8.749-9.763" stroke="#000" stroke-width="2" stroke-miterlimit="10" stroke-linejoin="round"/></svg>