<svg width="33" height="32" fill="none" xmlns="http://www.w3.org/2000/svg"><path d="M5.438 24.584h11.31c2.31 0 4.168-1.885 4.168-4.186v-5.62c0-2.787-2.708-3.636-5.673-3.309l-2.486 1.885H6.642a2.553 2.553 0 0 1-2.531-2.531V4.558C4.11 3.159 5.26 2 6.64 2h19.416C28.492 2 30.5 3.982 30.5 6.416v19.593c0 2.433-2.009 4.416-4.442 4.416H5.438c-1.602 0-2.938-1.301-2.938-2.912a2.942 2.942 0 0 1 2.938-2.938v.01Z" stroke="#FBED20" stroke-width="2" stroke-miterlimit="10"/><path d="M7.5 20a1 1 0 1 0 2 0h-2Zm0-6v6h2v-6h-2Z" fill="#FBED20"/><path d="M12.5 19a1 1 0 1 0 0-2v2Zm-4 0h4v-2h-4v2Z" fill="#FBED20"/><path d="M8.5 2v6" stroke="#FBED20" stroke-width="2"/><circle cx="24.5" cy="8" r="2" stroke="#FBED20" stroke-width="2"/></svg>