<svg width="32" height="32" fill="none" xmlns="http://www.w3.org/2000/svg"><path fill-rule="evenodd" clip-rule="evenodd" d="M4.586 5.586A2 2 0 0 1 6 5h20a2 2 0 0 1 2 2v7.338c0 11.185-9.497 14.888-11.36 15.507a1.9 1.9 0 0 1-1.28 0C13.496 29.225 4 25.523 4 14.338V7a2 2 0 0 1 .586-1.414ZM26 7H6v7.338c0 9.782 8.275 13.04 10 13.612 1.725-.571 10-3.83 10-13.612V7Z" fill="#000"/><path fill-rule="evenodd" clip-rule="evenodd" d="M22.224 12.31a1 1 0 0 1-.034 1.414l-7.337 7a1 1 0 0 1-1.381-.001l-3.663-3.5a1 1 0 0 1 1.382-1.446l2.972 2.84 6.647-6.34a1 1 0 0 1 1.414.033Z" fill="#000"/></svg>