<svg width="33" height="32" fill="none" xmlns="http://www.w3.org/2000/svg"><path d="M15 13c-2.778.019-5.28.125-6.347 1.826-.506.905-1.005 1.807-1.504 2.706H4.18c-1.243 1.419-.726 2.618 1.074 3.651-.448.574-.891 1.147-1.339 1.72v5.353c0 .408.361.744.795.744h3.48c.437 0 .796-.338.796-.744v-2.174h12.03v2.174c0 .408.355.744.79.744h3.486c.437 0 .789-.338.789-.744v-5.353c-.441-.573-.891-1.146-1.332-1.72 1.8-1.033 2.31-2.232 1.067-3.651h-2.961c-.506-.899-1.005-1.803-1.504-2.706C20.28 13.126 17.785 13.019 15 13Z" stroke="#FBED20" stroke-width="2" stroke-miterlimit="10"/><path d="M7.5 17c0 1.5 15 2 15 0" stroke="#FBED20" stroke-width="2" stroke-linecap="round"/><path d="m24.955 3.375 1.228 4.301 3.97 1.311c.458.156.467.855 0 1.01l-3.97 1.33-1.228 4.302c-.143.495-.797.495-.932 0l-1.21-4.302-3.97-1.33c-.457-.155-.457-.864 0-1.01l3.97-1.31 1.21-4.302c.144-.495.789-.505.932 0Z" stroke="#FBED20" stroke-width="2" stroke-miterlimit="10"/><path d="m8.5 22 3 1M21.5 22l-3 1" stroke="#FBED20" stroke-width="2" stroke-linecap="round"/></svg>