<svg width="32" height="32" fill="none" xmlns="http://www.w3.org/2000/svg"><path fill-rule="evenodd" clip-rule="evenodd" d="M16 5C9.925 5 5 9.925 5 16s4.925 11 11 11 11-4.925 11-11S22.075 5 16 5ZM3 16C3 8.82 8.82 3 16 3s13 5.82 13 13-5.82 13-13 13S3 23.18 3 16Z" fill="#000"/><path d="M11.5 15a1.5 1.5 0 1 0 0-3 1.5 1.5 0 0 0 0 3Z" fill="#000"/><path fill-rule="evenodd" clip-rule="evenodd" d="M18 13.5a1 1 0 0 1 1-1h3a1 1 0 1 1 0 2h-3a1 1 0 0 1-1-1ZM10.299 18.135a1 1 0 0 1 1.367.363 5.013 5.013 0 0 0 8.67 0 1 1 0 1 1 1.73 1.004 7.012 7.012 0 0 1-12.13 0 1 1 0 0 1 .363-1.367Z" fill="#000"/></svg>