<svg width="32" height="32" fill="none" xmlns="http://www.w3.org/2000/svg"><path d="M16 2.153c2.702 0 5.222.773 7.351 2.11l1.287-1.288a3.116 3.116 0 0 1 4.387 0 3.116 3.116 0 0 1 0 4.387L27.73 8.65A13.733 13.733 0 0 1 29.848 16c0 2.7-.774 5.222-2.117 7.352l1.294 1.287a3.116 3.116 0 0 1 0 4.386 3.116 3.116 0 0 1-4.387 0l-1.287-1.294A13.733 13.733 0 0 1 16 29.848c-2.7 0-5.222-.774-7.351-2.117l-1.287 1.294a3.116 3.116 0 0 1-4.387 0 3.116 3.116 0 0 1 0-4.386l1.287-1.287A13.764 13.764 0 0 1 2.152 16c0-2.701.774-5.221 2.11-7.35L2.975 7.361a3.117 3.117 0 0 1-.002-4.39 3.116 3.116 0 0 1 4.386 0L8.646 4.26A13.799 13.799 0 0 1 16 2.153Z" stroke="#000" stroke-width="2" stroke-miterlimit="10"/><path d="M16 24.501c4.687 0 8.501-3.814 8.501-8.5 0-4.687-3.814-8.509-8.5-8.509-4.687 0-8.509 3.822-8.509 8.508 0 4.687 3.822 8.501 8.508 8.501Z" stroke="#000" stroke-width="2" stroke-miterlimit="10"/><path d="M16.001 19A3.003 3.003 0 0 0 19 16.001 3.005 3.005 0 0 0 16.001 13 3.007 3.007 0 0 0 13 16.001 3.005 3.005 0 0 0 16.001 19Z" stroke="#000" stroke-width="2" stroke-miterlimit="10"/></svg>