<svg width="32" height="32" fill="none" xmlns="http://www.w3.org/2000/svg"><path d="M13.453 12.262H20.747L19.9 6.708H14.293l-.84 5.554ZM9.264 28.882h15.422v-7.157c0-3.937-3.221-7.15-7.156-7.15h-1.117c-3.93 0-7.15 3.215-7.15 7.15v7.157ZM19.368 12.262v2.555m-4.788 0v-2.555" stroke="#000" stroke-width="2" stroke-miterlimit="10"/><path d="M13.59 11.335H9.838l-3.171 7.546a1.848 1.848 0 0 1-2.418.988 1.845 1.845 0 0 1-.993-2.418L6.882 8.82A1.852 1.852 0 0 1 8.61 7.635h5.263c.094 0 .185.007.279.02M20.035 7.622 27 8.762v1.402l-6.38 1.282" stroke="#000" stroke-width="2" stroke-miterlimit="10"/><path d="M17.137 6.708V4.153M20.118 4.153h-5.962" stroke="#000" stroke-width="2" stroke-linecap="round"/></svg>