<svg width="32" height="32" fill="none" xmlns="http://www.w3.org/2000/svg"><path fill-rule="evenodd" clip-rule="evenodd" d="M13.73 1.293a1 1 0 0 1 1.415 0L28.583 14.73a1 1 0 0 1 0 1.415l-12.03 12.03a3.012 3.012 0 0 1-4.23 0l-.005-.005L1.701 17.552a3.012 3.012 0 0 1 0-4.229l.005-.005L13.73 1.293ZM3.124 14.729a1.013 1.013 0 0 0 0 1.417l.002.002L13.727 26.75l.003.002a1.012 1.012 0 0 0 1.416 0l.003-.002L26.46 15.437 14.438 3.415 3.123 14.73Z" fill="#000"/><path fill-rule="evenodd" clip-rule="evenodd" d="M15.5 13a1.5 1.5 0 1 0 0 3 1.5 1.5 0 0 0 0-3ZM12 14.5a3.5 3.5 0 1 1 7 0 3.5 3.5 0 0 1-7 0ZM29.207 19.793l-.707.707-.707-.707a1 1 0 0 1 1.414 0Zm-.707 2.242c.134.174.276.37.418.582C29.51 23.505 30 24.551 30 25.5a1.5 1.5 0 1 1-3 0c0-.95.49-1.995 1.082-2.883.142-.213.284-.409.418-.582Zm0-1.535-.707-.707-.002.002-.003.002-.008.009-.027.027a11.168 11.168 0 0 0-.403.446c-.254.296-.592.719-.932 1.229C25.76 22.495 25 23.949 25 25.5a3.5 3.5 0 1 0 7 0c0-1.55-.76-3.005-1.418-3.992a12.963 12.963 0 0 0-1.335-1.675l-.027-.027-.008-.009-.003-.002-.001-.001-.708.706Z" fill="#000"/><path fill-rule="evenodd" clip-rule="evenodd" d="M4.031 3.03a1 1 0 0 1 1.414 0l9 9a1 1 0 0 1-1.414 1.414l-9-9a1 1 0 0 1 0-1.414Z" fill="#000"/></svg>