<svg width="32" height="32" fill="none" xmlns="http://www.w3.org/2000/svg"><path d="M14.51 8H5.49C4.671 8 4 8.644 4 9.43v19.14c0 .786.671 1.43 1.49 1.43h9.02c.824 0 1.49-.644 1.49-1.43V9.432c0-.785-.666-1.43-1.49-1.43V8ZM8 29.949V7.594" stroke="#000" stroke-width="2" stroke-miterlimit="10"/><path d="M15.771 16.41h9.887a2.482 2.482 0 0 1 2.474 2.477 2.481 2.481 0 0 1-2.474 2.474h-9.887M12 30.355V8" stroke="#000" stroke-width="2" stroke-miterlimit="10"/><path d="M19.523 2.05h6.894L23.68 3.947M19.523 5.715h6.894l-2.737 1.9M19.523 9.382h6.894l-2.737 1.896" stroke="#000" stroke-width="2" stroke-miterlimit="10" stroke-linejoin="round"/><path d="M19.523 13.045h6.894M8 13.679 11.679 10M8 20.684 11.679 17M8 27.677 11.679 24" stroke="#000" stroke-width="2" stroke-miterlimit="10"/></svg>