<svg width="32" height="32" fill="none" xmlns="http://www.w3.org/2000/svg"><path d="M8.254 15.464c.175-6.906 3.662-12.419 7.94-12.419 4.278 0 7.946 5.8 7.946 12.957v.073m-.48 4.357c-1.11 4.974-4.034 8.52-7.466 8.52-3.04 0-5.682-2.783-7.018-6.875" stroke="#000" stroke-width="2" stroke-miterlimit="10" stroke-linecap="round"/><path d="M27.032 14.487c1.22.437 1.92.959 1.92 1.516 0 .678-1.041 1.298-2.791 1.792m-4.316.783c-1.76.199-3.745.314-5.844.314-7.157-.002-12.956-1.297-12.956-2.89 0-1.594 5.799-2.888 12.956-2.888 1.396 0 2.74.047 3.998.137" stroke="#000" stroke-width="2" stroke-miterlimit="10" stroke-linecap="round"/><path d="M24.019 20.465a2.195 2.195 0 0 0 0-4.389 2.202 2.202 0 0 0-2.197 2.192c0 1.206.986 2.197 2.197 2.197Z" stroke="#000" stroke-width="2" stroke-miterlimit="10"/></svg>