<svg width="16" height="16" fill="none" xmlns="http://www.w3.org/2000/svg"><path d="M13.257 3.422a3.668 3.668 0 0 1-.318-.183 4.459 4.459 0 0 1-.817-.688 3.8 3.8 0 0 1-.92-1.88h.003C11.135.262 11.164 0 11.168 0H8.394v10.626c0 .142 0 .283-.006.422 0 .018-.002.034-.003.052l-.001.024v.006c-.03.381-.153.75-.36 1.073a2.346 2.346 0 0 1-1.973 1.079 2.336 2.336 0 0 1-2.34-2.333 2.336 2.336 0 0 1 3.06-2.22l.003-2.798a5.2 5.2 0 0 0-3.97 1.15c-.478.412-.88.903-1.188 1.451-.117.2-.56 1.004-.613 2.308-.033.74.191 1.507.298 1.824v.007c.068.187.328.824.753 1.36.343.431.748.81 1.202 1.124v-.007l.007.007c1.343.903 2.832.844 2.832.844.257-.01 1.121 0 2.102-.46a5.267 5.267 0 0 0 1.706-1.27c.396-.455.71-.973.93-1.532a5.687 5.687 0 0 0 .335-1.75V5.348c.034.02.482.314.482.314s.646.41 1.653.677c.723.19 1.697.23 1.697.23V3.842c-.341.037-1.034-.07-1.743-.42Z" fill="#fff"/></svg>