<svg width="32" height="32" fill="none" xmlns="http://www.w3.org/2000/svg"><path fill-rule="evenodd" clip-rule="evenodd" d="m26.568 8.447 3.07 5.879.003.004-2.21 1.1-3.073-5.878 2.21-1.105Zm3.52 6.777.445.896-3.087 1.538a1 1 0 0 1-1.332-.432l-4-7.65a1 1 0 0 1 .439-1.358l3.122-1.56a1.988 1.988 0 0 1 2.662.855v.002l3.072 5.88.001.003a2.001 2.001 0 0 1-.876 2.722l-.447-.896ZM5.437 8.312l-3.073 5.883 2.205 1.107 3.073-5.888-2.205-1.102Zm-.627-1.9a2 2 0 0 1 1.503.101l.009.005 3.125 1.563a1 1 0 0 1 .44 1.357l-4 7.662a1 1 0 0 1-1.336.431l-3.084-1.548a1.988 1.988 0 0 1-.877-2.711l3.073-5.884a2 2 0 0 1 1.147-.976Z" fill="#000"/><path fill-rule="evenodd" clip-rule="evenodd" d="M4.212 16.022a1 1 0 0 1 1.403-.172l6.838 5.337.015.012 7.2 1.8a.06.06 0 0 0 .044-.012l4.553-4.553 1.973-2.32a1 1 0 0 1 1.524 1.297l-2 2.35-.055.059-4.6 4.6a.782.782 0 0 1-.024.023 2.064 2.064 0 0 1-1.875.502l-7.25-1.812a2 2 0 0 1-.742-.374l-6.831-5.333a1 1 0 0 1-.173-1.404Z" fill="#000"/><path fill-rule="evenodd" clip-rule="evenodd" d="m17.914 10.112-4.886 4.874a.014.014 0 0 0-.002.003V15l.004.004.671.51a3.012 3.012 0 0 0 3.6-.002l.001-.001 1.598-1.199a1 1 0 0 1 1.188-.008l5.5 4a1 1 0 1 1-1.176 1.617l-4.903-3.566-1.01.759a5.012 5.012 0 0 1-5.997 0l-.007-.005-.675-.513a2.015 2.015 0 0 1-.224-3.007l.01-.01 4.901-4.888a1.986 1.986 0 0 1 1.407-.579h.002l-.003 1v-1H23a1 1 0 1 1 0 2h-5.086Z" fill="#000"/><path fill-rule="evenodd" clip-rule="evenodd" d="m15.763 8.061 4.323 1.962a1 1 0 0 0 .827-1.821l-4.325-1.963h-.002a2 2 0 0 0-1.375-.1L8.794 8.015a1 1 0 1 0 .561 1.92l6.408-1.874ZM6.245 22.345a1 1 0 0 1 1.41-.1l2.822 2.447h.005l3.763.95a1 1 0 1 1-.49 1.94l-3.752-.947a1.925 1.925 0 0 1-.838-.434l-2.82-2.445a1 1 0 0 1-.1-1.411Z" fill="#000"/></svg>