<svg width="32" height="32" fill="none" xmlns="http://www.w3.org/2000/svg"><path fill-rule="evenodd" clip-rule="evenodd" d="M13.476 5.902c-.365.317-.804.65-1.305.859-.504.21-1.05.281-1.53.313-.314.02-.664.026-.984.031-.152.003-.296.005-.427.009-.961.027-1.45.145-1.71.406-.259.258-.372.733-.397 1.688l-.007.398c-.004.326-.01.688-.032 1.017-.033.487-.109 1.036-.324 1.55-.213.51-.547.953-.867 1.323-.219.253-.47.517-.7.755l-.274.29c-.31.329-.548.608-.71.872C4.05 15.67 4 15.855 4 16c0 .144.05.332.212.595.166.268.408.553.717.885l.29.305c.225.236.472.494.683.739.317.365.65.803.859 1.304.21.505.281 1.05.313 1.53.02.315.026.665.031.985.003.152.005.296.009.427.027.96.145 1.45.406 1.71.258.26.733.372 1.688.397l.398.007c.326.004.688.01 1.017.032.487.033 1.036.108 1.55.324.51.213.953.547 1.323.867.253.219.516.47.755.7l.29.274c.329.31.608.548.872.71.257.159.442.209.587.209.144 0 .332-.05.595-.212.268-.166.553-.407.885-.717l.305-.29c.236-.225.494-.472.739-.683.365-.317.803-.65 1.304-.859.505-.21 1.05-.281 1.53-.313.315-.02.665-.026.985-.031.151-.003.296-.005.427-.009.96-.027 1.45-.145 1.71-.406.26-.258.372-.733.397-1.688a34.6 34.6 0 0 0 .007-.398c.004-.326.01-.688.032-1.017.033-.487.108-1.036.324-1.55.213-.51.547-.953.867-1.323.219-.254.47-.517.7-.755l.274-.29c.31-.329.548-.608.71-.872.159-.257.209-.442.209-.587 0-.144-.05-.332-.212-.595-.166-.268-.407-.553-.717-.885a37.834 37.834 0 0 0-.29-.305 21.13 21.13 0 0 1-.683-.739c-.317-.365-.65-.804-.859-1.305-.21-.504-.281-1.05-.313-1.53-.02-.314-.026-.664-.031-.984a35.335 35.335 0 0 0-.009-.427c-.027-.961-.145-1.45-.406-1.71-.258-.259-.733-.372-1.688-.397a34.999 34.999 0 0 0-.398-.007c-.326-.004-.688-.01-1.017-.032-.487-.033-1.036-.109-1.55-.324-.51-.213-.953-.547-1.323-.867-.254-.219-.517-.47-.755-.7l-.29-.274c-.329-.31-.608-.548-.872-.71C16.33 4.05 16.145 4 16 4c-.144 0-.332.05-.595.212-.268.166-.553.408-.885.717l-.305.29c-.236.225-.494.472-.739.683Zm.881-3.393C14.81 2.231 15.362 2 16 2c.636 0 1.186.228 1.637.506.444.274.845.63 1.19.954.126.117.242.229.353.335.219.21.417.4.63.584.312.269.567.443.789.536.216.09.51.146.914.174.275.019.542.022.838.026.154.002.317.004.492.009.879.022 2.16.09 3.052.981.89.89.965 2.182.99 3.068.006.19.009.362.011.526.004.285.008.543.026.811.026.406.08.692.164.893.085.206.253.452.524.764.18.209.366.403.57.616l.353.372c.326.35.683.755.958 1.202.278.453.509 1.005.509 1.643 0 .636-.228 1.186-.506 1.637-.274.444-.63.845-.953 1.19-.118.126-.23.242-.336.353-.21.219-.4.417-.584.63-.269.312-.443.567-.536.789-.09.216-.146.51-.174.914-.019.275-.022.542-.026.838-.002.154-.004.317-.009.492-.022.879-.09 2.16-.981 3.052-.89.89-2.182.965-3.068.99-.19.006-.362.009-.526.011a15.86 15.86 0 0 0-.811.026c-.406.026-.692.08-.893.164-.206.085-.452.253-.764.524-.209.18-.403.366-.616.57l-.372.353c-.35.326-.755.683-1.202.958-.453.278-1.005.509-1.643.509-.636 0-1.186-.228-1.636-.506-.445-.274-.846-.63-1.192-.953-.126-.118-.242-.23-.352-.336-.219-.21-.417-.4-.63-.584-.312-.269-.567-.443-.789-.536-.216-.09-.51-.146-.914-.174-.275-.019-.542-.022-.838-.026a37.806 37.806 0 0 1-.492-.009c-.879-.022-2.16-.09-3.052-.981-.89-.89-.965-2.182-.99-3.068-.006-.19-.009-.362-.011-.526a15.848 15.848 0 0 0-.026-.811c-.027-.406-.08-.692-.164-.893-.085-.206-.253-.452-.524-.764-.18-.209-.366-.403-.57-.616a42.183 42.183 0 0 1-.353-.372c-.326-.35-.683-.755-.958-1.202C2.231 17.19 2 16.638 2 16c0-.636.228-1.186.506-1.636.274-.445.63-.846.954-1.192.117-.126.229-.242.335-.353.21-.218.4-.416.584-.63.269-.311.443-.566.536-.788.09-.216.146-.51.174-.914.019-.275.022-.542.026-.838.002-.154.004-.317.009-.492.022-.879.09-2.16.981-3.052.89-.89 2.182-.965 3.068-.99.19-.006.362-.009.526-.011.285-.004.543-.008.811-.026.406-.027.692-.08.893-.164.206-.085.452-.253.764-.524.209-.18.403-.366.616-.57l.372-.353c.35-.326.755-.683 1.202-.958Z" fill="#000"/><path fill-rule="evenodd" clip-rule="evenodd" d="M22.224 12.31a1 1 0 0 1-.034 1.414l-7.337 7a1 1 0 0 1-1.381-.001l-3.663-3.5a1 1 0 0 1 1.382-1.446l2.972 2.84 6.647-6.34a1 1 0 0 1 1.414.033Z" fill="#000"/></svg>