<svg width="32" height="32" fill="none" xmlns="http://www.w3.org/2000/svg"><path d="M16 2.006C8.272 2.006 2.007 8.27 2.007 16c0 7.73 6.265 13.993 13.995 13.993 7.73 0 13.993-6.265 13.993-13.993 0-7.729-6.265-13.995-13.993-13.995Zm0 9.63c1.17 0 2.234.461 3.018 1.213 2.064.67 4.115 1.316 5.99 1.613.597.072.925-.053 1.058-.334-.88-4.76-5.052-8.365-10.065-8.365S6.814 9.369 5.934 14.128c.134.282.461.407 1.058.335 1.875-.298 3.926-.943 5.99-1.614a4.344 4.344 0 0 1 3.019-1.213Zm-9.925 6.879a10.256 10.256 0 0 0 7.72 7.484c.23-.229.445-.538.638-.944.483-1.96-.046-5.142-1.657-6.524-1.068-.917-2.609-1.288-4.808-.904-1.028.194-1.687.444-1.893.888Zm12.13 7.484a10.256 10.256 0 0 0 7.72-7.484c-.205-.445-.865-.694-1.893-.889-2.199-.384-3.74-.013-4.807.904-1.612 1.383-2.14 4.564-1.657 6.524.192.407.406.716.638.944Z" stroke="#000" stroke-width="2" stroke-miterlimit="10" stroke-linejoin="round"/></svg>