<svg width="32" height="32" fill="none" xmlns="http://www.w3.org/2000/svg"><path d="M10.654 5.042 3.107 6.913a1.483 1.483 0 0 0-1.066 1.784l4.563 19.175c.19.789.974 1.276 1.747 1.088l7.547-1.872c.773-.194 1.25-.994 1.06-1.784L12.401 6.13c-.19-.79-.974-1.28-1.747-1.088Z" stroke="#000" stroke-width="2" stroke-miterlimit="10"/><path d="m12 11 1-2M13 19l1.5-3" stroke="#000" stroke-width="2" stroke-miterlimit="10" stroke-linecap="round"/><path d="M14.106 24.053a1 1 0 1 0 1.788.894l-1.788-.894Zm2.788-1.106.448-.894-1.79-.895-.446.895 1.788.894Zm-1 2 1-2-1.788-.894-1 2 1.788.894Z" fill="#000"/><path d="m5 13-2-1M7 20l-2.5-1.5M8.5 26.5 6 25" stroke="#000" stroke-width="2" stroke-miterlimit="10" stroke-linecap="round"/><path d="m7 6 5 22M30 21.974a3.558 3.558 0 0 1-.426.026C27.047 22 25 19.757 25 16.997 25 14.237 27.048 12 29.574 12c.141 0 .283.011.426.02" stroke="#000" stroke-width="2" stroke-miterlimit="10"/><path d="M26 14h-6v6h6M20 14l-7-5M20 20l-4 1" stroke="#000" stroke-width="2" stroke-miterlimit="10"/></svg>