<svg width="20" height="20" fill="none" xmlns="http://www.w3.org/2000/svg"><path d="M19 3v5h-5M1 16v-5h5" stroke="#FBED20" stroke-width="2" stroke-linecap="round" stroke-linejoin="round"/><path d="M3.054 7a7.511 7.511 0 0 1 2.05-3.105 7.316 7.316 0 0 1 3.266-1.71 7.232 7.232 0 0 1 3.671.11A7.336 7.336 0 0 1 15.204 4.2L19 7.833M1 11.167l3.796 3.635a7.336 7.336 0 0 0 3.162 1.903 7.234 7.234 0 0 0 3.672.11 7.316 7.316 0 0 0 3.266-1.71 7.511 7.511 0 0 0 2.05-3.104" stroke="#FBED20" stroke-width="2" stroke-linecap="round" stroke-linejoin="round"/></svg>