<svg width="16" height="16" fill="none" xmlns="http://www.w3.org/2000/svg"><g clip-path="url(#a)"><path d="M15.672 11.435c-.184.611-.725 1.094-1.41 1.258C13.01 13 8 13 8 13s-5.01 0-6.26-.293c-.671-.165-1.224-.658-1.409-1.27C0 10.318 0 8.002 0 8.002s0-2.329.328-3.433c.184-.611.725-1.094 1.41-1.258 1.265-.307 6.259-.307 6.259-.307s5.01 0 6.26.293c.684.164 1.224.647 1.409 1.258C16 5.672 16 7.987 16 7.987s.012 2.33-.328 3.448ZM6.406 5.86v4.282l4.166-2.142-4.166-2.14Z" fill="#FF2323"/></g><defs><clipPath id="a"><path fill="#fff" transform="matrix(1 0 0 -1 0 13)" d="M0 0h16v10H0z"/></clipPath></defs></svg>