<svg width="221" height="44" viewBox="0 0 221 44" fill="none" xmlns="http://www.w3.org/2000/svg">
<path d="M72.831 0.524713V25.431H65.4295V15.6014H58.4354V25.431H51V0.524713H58.4354V8.88511H65.4295V0.524713H72.831Z" fill="#FBED20"/>
<path d="M98.6611 0.524713V15.2516C98.6611 19.0528 97.7331 21.7813 95.8771 23.4371C94.0437 25.0695 91.3049 25.8857 87.6608 25.8857C80.3498 25.8857 76.6943 22.481 76.6943 15.6714V0.524713H84.0958V15.7763C84.0958 17.0823 84.3901 18.0501 84.9786 18.6797C85.5671 19.3094 86.5064 19.6242 87.7966 19.6242C90.1053 19.6242 91.2596 18.3416 91.2596 15.7763V0.524713H98.6611Z" fill="#FBED20"/>
<path d="M124.355 0.524713V25.431H117.26L111.25 14.8318C110.684 13.8291 110.073 12.5814 109.417 11.0889C109.575 12.5814 109.654 14.482 109.654 16.7908L109.688 25.431H102.524V0.524713H109.858L115.087 9.86457C116.15 11.7302 116.943 13.2927 117.463 14.552C117.327 12.663 117.26 10.7507 117.26 8.81515L117.226 0.524713H124.355Z" fill="#FBED20"/>
<path d="M148.115 0.524713V6.92619H141.324V25.431H133.923V6.92619H127.166V0.524713H148.115Z" fill="#FBED20"/>
<path d="M171.031 0.524713V6.57638H158.299V9.68967H169.843V15.4615H158.299V19.0995H171.37V25.431H150.999V0.524713H171.031Z" fill="#FBED20"/>
<path d="M174.837 0.524713H187.84C188.859 0.524713 189.844 0.641315 190.794 0.87452C191.745 1.10772 192.662 1.49251 193.544 2.02888C194.427 2.54193 195.129 3.29985 195.649 4.30263C196.193 5.30541 196.464 6.49476 196.464 7.87067C196.464 9.22325 196.136 10.4476 195.48 11.5436C194.846 12.6397 193.986 13.4443 192.899 13.9573C193.986 14.2372 194.812 14.9834 195.378 16.1961C195.944 17.4087 196.294 18.7147 196.43 20.1139L196.668 22.7375C196.781 24.0667 196.985 24.9646 197.279 25.431H189.946C189.742 24.9879 189.595 24.2067 189.504 23.0873L189.402 21.6881C189.334 20.8485 189.244 20.1722 189.131 19.6592C189.04 19.1461 188.859 18.6331 188.587 18.12C188.316 17.607 187.908 17.2338 187.365 17.0006C186.822 16.7674 186.132 16.6508 185.294 16.6508H182.171V25.431H174.837V0.524713ZM182.171 6.29653V11.4037H186.245C188.259 11.4037 189.266 10.5409 189.266 8.81515C189.266 7.13607 188.123 6.29653 185.837 6.29653H182.171Z" fill="#FBED20"/>
<path d="M219.015 8.08055H212.055C212.033 7.3343 211.75 6.75128 211.206 6.33151C210.663 5.91175 209.916 5.70186 208.966 5.70186C207.336 5.70186 206.521 6.21491 206.521 7.24101C206.521 7.52086 206.657 7.78905 206.929 8.04557C207.2 8.3021 207.574 8.52364 208.049 8.71021C208.547 8.87345 209 9.01337 209.407 9.12997C209.814 9.24658 210.267 9.36318 210.765 9.47978C211.286 9.57306 211.591 9.63136 211.682 9.65468C212.632 9.91121 213.447 10.1561 214.126 10.3893C214.805 10.6225 215.541 10.9606 216.333 11.4037C217.125 11.8235 217.759 12.3016 218.235 12.8379C218.732 13.351 219.151 14.0156 219.491 14.8318C219.83 15.6247 220 16.5226 220 17.5254C220 20.1139 219.049 22.1778 217.148 23.7169C215.247 25.2328 212.678 25.9907 209.441 25.9907C206.068 25.9907 203.409 25.1978 201.462 23.612C199.516 22.0029 198.52 19.8108 198.475 17.0356H205.91C206.023 19.1811 207.279 20.2538 209.679 20.2538C210.607 20.2538 211.342 20.0673 211.886 19.6942C212.429 19.321 212.7 18.8196 212.7 18.19C212.7 17.7935 212.542 17.4554 212.225 17.1755C211.931 16.919 211.365 16.6392 210.527 16.336C209.69 16.0328 208.694 15.718 207.54 15.3915C206.408 15.0417 205.695 14.8085 205.401 14.6919C204.427 14.3421 203.624 14.004 202.99 13.6775C202.356 13.351 201.745 12.9312 201.157 12.4182C200.568 11.8818 200.127 11.2405 199.833 10.4942C199.561 9.72465 199.425 8.82681 199.425 7.80071C199.425 5.46866 200.319 3.59136 202.107 2.16881C203.918 0.722936 206.283 0 209.203 0C212.282 0 214.67 0.711276 216.367 2.13383C218.087 3.53306 218.97 5.5153 219.015 8.08055Z" fill="#FBED20"/>
<path d="M61.6046 36.5034V42.7109H60.0211L59.7812 41.4049C58.9281 42.4583 57.7872 42.985 56.3583 42.985C54.7695 42.985 53.4792 42.4314 52.4875 41.3243C51.4958 40.2171 51 38.7822 51 37.0194C51 35.2458 51.5225 33.8001 52.5675 32.6822C53.6125 31.5536 54.9561 30.9893 56.5982 30.9893C57.8991 30.9893 58.9974 31.3601 59.8932 32.1018C60.7889 32.8327 61.3114 33.8001 61.4607 35.0039H59.0454C58.9281 34.402 58.6509 33.9344 58.2137 33.6012C57.7765 33.268 57.2273 33.1014 56.5662 33.1014C55.6172 33.1014 54.8708 33.4507 54.3269 34.1494C53.7831 34.8373 53.5112 35.794 53.5112 37.0194C53.5112 38.2662 53.7831 39.239 54.3269 39.9377C54.8814 40.6256 55.6545 40.9696 56.6462 40.9696C57.4246 40.9696 58.0644 40.7331 58.5656 40.2601C59.0668 39.7764 59.3333 39.1476 59.3653 38.3737H56.8221V36.5034H61.6046Z" fill="#FBED20"/>
<path d="M89.8962 31.215L94.2308 42.7109H91.6076L90.7119 40.1473H86.4733L85.5456 42.7109H82.9864L87.321 31.215H89.8962ZM90.1041 38.3092L88.6006 34.0366L87.0811 38.3092H90.1041Z" fill="#FBED20"/>
<path d="M115.913 31.2311H121.575C122.705 31.2311 123.628 31.4998 124.342 32.0373C125.057 32.5747 125.414 33.3916 125.414 34.488C125.414 35.1544 125.254 35.7402 124.934 36.2454C124.614 36.7399 124.172 37.0946 123.607 37.3096C124.588 37.5138 125.147 38.406 125.286 39.986C125.286 40.0398 125.297 40.2064 125.318 40.4859C125.339 40.7653 125.361 40.9911 125.382 41.163C125.403 41.3243 125.43 41.5231 125.462 41.7596C125.494 41.9961 125.542 42.1949 125.606 42.3562C125.67 42.5174 125.745 42.6356 125.83 42.7109H123.239C123.153 42.5389 123.089 42.3239 123.047 42.0659C123.004 41.7972 122.967 41.4586 122.935 41.0502C122.903 40.631 122.887 40.3999 122.887 40.3569C122.801 39.5507 122.599 38.9918 122.279 38.6801C121.97 38.3683 121.415 38.2125 120.615 38.2125H118.392V42.7109H115.913V31.2311ZM118.392 33.2143V36.3905H120.759C121.453 36.3905 121.991 36.2831 122.375 36.0681C122.769 35.8424 122.967 35.407 122.967 34.7621C122.967 34.1602 122.775 33.7517 122.391 33.5367C122.018 33.3218 121.511 33.2143 120.871 33.2143H118.392Z" fill="#FBED20"/>
<path d="M153.656 31.215L157.99 42.7109H155.367L154.472 40.1473H150.233L149.305 42.7109H146.746L151.081 31.215H153.656ZM153.864 38.3092L152.36 34.0366L150.841 38.3092H153.864Z" fill="#FBED20"/>
<path d="M189.717 36.5034V42.7109H188.134L187.894 41.4049C187.041 42.4583 185.9 42.985 184.471 42.985C182.882 42.985 181.592 42.4314 180.6 41.3243C179.609 40.2171 179.113 38.7822 179.113 37.0194C179.113 35.2458 179.635 33.8001 180.68 32.6822C181.725 31.5536 183.069 30.9893 184.711 30.9893C186.012 30.9893 187.11 31.3601 188.006 32.1018C188.902 32.8327 189.424 33.8001 189.573 35.0039H187.158C187.041 34.402 186.764 33.9344 186.326 33.6012C185.889 33.268 185.34 33.1014 184.679 33.1014C183.73 33.1014 182.984 33.4507 182.44 34.1494C181.896 34.8373 181.624 35.794 181.624 37.0194C181.624 38.2662 181.896 39.239 182.44 39.9377C182.994 40.6256 183.767 40.9696 184.759 40.9696C185.537 40.9696 186.177 40.7331 186.678 40.2601C187.18 39.7764 187.446 39.1476 187.478 38.3737H184.935V36.5034H189.717Z" fill="#FBED20"/>
<path d="M220.888 31.2311V33.2949H214.826V35.794H220.392V37.7771H214.826V40.5987H221V42.7109H212.347V31.2311H220.888Z" fill="#FBED20"/>
<mask id="mask0_4_212" style="mask-type:alpha" maskUnits="userSpaceOnUse" x="0" y="0" width="45" height="44">
<rect width="44.0158" height="44" fill="black"/>
</mask>
<g mask="url(#mask0_4_212)">
<path fill-rule="evenodd" clip-rule="evenodd" d="M35.2528 61.6368L-35.6543 -9.16796L-41 -3.82876L29.9071 66.976L35.2528 61.6368ZM53.3745 58.5782L-17.5165 -12.2266L-22.8622 -6.8874L48.0288 63.9228L53.3745 58.5836V58.5782ZM67.8106 51.8224L-3.09654 -18.9932L-8.44225 -13.654L62.4541 57.1669L67.816 51.8277L67.8106 51.8224ZM88.9946 51.8224L18.1036 -18.9932L12.7579 -13.654L83.6543 57.1669L89 51.8277L88.9946 51.8224Z" fill="#FBED20"/>
</g>
</svg>
