<svg width="141" height="545" viewBox="0 0 141 545" fill="none" xmlns="http://www.w3.org/2000/svg">
<mask id="path-1-outside-1_132_4090" maskUnits="userSpaceOnUse" x="6.91343e-06" y="3" width="87" height="542" fill="black">
<rect fill="white" x="6.91343e-06" y="3" width="87" height="542"/>
<path d="M3.67567 473.503L83.2127 473.503L83.2127 497.065L51.8224 497.065L51.8224 519.33L83.2127 519.33L83.2127 543L3.67568 543L3.67567 519.33L30.3742 519.33L30.3742 497.065L3.67567 497.065L3.67567 473.503Z"/>
<path d="M3.67567 391.274L50.7053 391.274C62.8444 391.274 71.5577 394.228 76.8453 400.137C82.0584 405.973 84.6649 414.692 84.6649 426.293C84.6649 449.567 73.7919 461.204 52.0458 461.204L3.67567 461.204L3.67567 437.642L52.3809 437.642C56.5514 437.642 59.642 436.705 61.6528 434.832C63.6636 432.958 64.669 429.968 64.669 425.861C64.669 418.511 60.5729 414.836 52.3809 414.836L3.67567 414.836L3.67567 391.274Z"/>
<path d="M3.67566 309.478L83.2127 309.478L83.2127 332.067L49.3648 351.198C46.1624 352.999 42.1781 354.945 37.4119 357.034C42.1781 356.53 48.2477 356.278 55.6205 356.278L83.2127 356.17L83.2127 378.975L3.67567 378.975L3.67567 355.629L33.5021 338.985C39.4599 335.598 44.4496 333.076 48.4711 331.419C42.4388 331.851 36.332 332.067 30.1508 332.067L3.67567 332.175L3.67566 309.478Z"/>
<path d="M3.67566 233.842L24.1185 233.842L24.1185 255.459L83.2127 255.459L83.2127 279.021L24.1185 279.021L24.1185 300.53L3.67566 300.53L3.67566 233.842Z"/>
<path d="M3.67566 160.89L23.0014 160.89L23.0014 201.421L32.9435 201.421L32.9435 164.673L51.3755 164.673L51.3755 201.421L62.9933 201.421L62.9933 159.809L83.2127 159.809L83.2127 224.659L3.67566 224.659L3.67566 160.89Z"/>
<path d="M3.67566 148.773L3.67566 107.378C3.67566 104.135 4.04802 101.001 4.79275 97.9743C5.53748 94.948 6.76628 92.0298 8.47915 89.2196C10.1176 86.4094 12.5379 84.1757 15.7403 82.5184C18.9426 80.7891 22.7407 79.9245 27.1346 79.9245C31.454 79.9245 35.3639 80.9693 38.8641 83.0589C42.3643 85.0764 44.9336 87.8145 46.572 91.2732C47.4657 87.8145 49.8488 85.1845 53.7214 83.3831C57.594 81.5817 61.7645 80.4648 66.2329 80.0325L74.6111 79.2759C78.856 78.9156 81.7232 78.2672 83.2127 77.3304L83.2127 100.676C81.7977 101.325 79.3029 101.793 75.7282 102.082L71.2598 102.406C68.5788 102.622 66.419 102.91 64.7806 103.27C63.1422 103.559 61.5038 104.135 59.8654 105C58.227 105.864 57.0355 107.161 56.2907 108.891C55.546 110.62 55.1736 112.818 55.1736 115.484L55.1736 125.427L83.2127 125.427L83.2127 148.773L3.67566 148.773ZM22.1077 125.427L38.4172 125.427L38.4172 112.457C38.4172 106.045 35.6618 102.838 30.1508 102.838C24.7887 102.838 22.1077 106.477 22.1077 113.754L22.1077 125.427Z"/>
<path d="M27.8049 8.1344L27.8049 30.2914C25.4217 30.3635 23.5599 31.2642 22.2194 32.9936C20.8789 34.7229 20.2086 37.1007 20.2086 40.127C20.2086 45.315 21.847 47.909 25.1238 47.909C26.0175 47.909 26.874 47.4767 27.6932 46.612C28.5124 45.7473 29.2198 44.5584 29.8156 43.0453C30.3369 41.4601 30.7838 40.0189 31.1561 38.7219C31.5285 37.4249 31.9009 35.9839 32.2732 34.3986C32.5711 32.7414 32.7573 31.7686 32.8318 31.4804C33.651 28.454 34.4329 25.86 35.1777 23.6984C35.9224 21.5367 37.0023 19.1949 38.4172 16.673C39.7578 14.1511 41.2845 12.1335 42.9973 10.6203C44.6357 9.03509 46.7582 7.70209 49.3648 6.62121C51.8968 5.5404 54.764 5 57.9664 5C66.2329 5 72.8237 8.0263 77.7389 14.079C82.5797 20.1316 85 28.3099 85 38.6139C85 49.3501 82.468 57.8166 77.4038 64.0134C72.2652 70.2102 65.2647 73.3806 56.4024 73.5247L56.4024 49.8545C63.254 49.4942 66.6797 45.4951 66.6797 37.8573C66.6797 34.903 66.0839 32.5612 64.8924 30.8319C63.7008 29.1025 62.0996 28.2379 60.0889 28.2379C58.8228 28.2379 57.743 28.7422 56.8493 29.751C56.0301 30.6877 55.1364 32.4892 54.1683 35.1552C53.2001 37.8213 52.1947 40.9917 51.1521 44.6665C50.035 48.2693 49.2903 50.539 48.9179 51.4757C47.8008 54.5741 46.721 57.1321 45.6784 59.1497C44.6357 61.1672 43.2952 63.1127 41.6568 64.9861C39.9439 66.8596 37.8959 68.2647 35.5128 69.2014C33.0552 70.066 30.188 70.4984 26.9112 70.4984C19.4639 70.4984 13.4688 67.6522 8.92599 61.9598C4.30867 56.1954 2.00001 48.6656 2.00001 39.3705C2.00001 29.5709 4.27143 21.9691 8.81428 16.5649C13.2827 11.0887 19.6128 8.2785 27.8049 8.1344Z"/>
</mask>
<path d="M3.67567 473.503L83.2127 473.503L83.2127 497.065L51.8224 497.065L51.8224 519.33L83.2127 519.33L83.2127 543L3.67568 543L3.67567 519.33L30.3742 519.33L30.3742 497.065L3.67567 497.065L3.67567 473.503Z" stroke="#2F3243" stroke-width="4" mask="url(#path-1-outside-1_132_4090)"/>
<path d="M3.67567 391.274L50.7053 391.274C62.8444 391.274 71.5577 394.228 76.8453 400.137C82.0584 405.973 84.6649 414.692 84.6649 426.293C84.6649 449.567 73.7919 461.204 52.0458 461.204L3.67567 461.204L3.67567 437.642L52.3809 437.642C56.5514 437.642 59.642 436.705 61.6528 434.832C63.6636 432.958 64.669 429.968 64.669 425.861C64.669 418.511 60.5729 414.836 52.3809 414.836L3.67567 414.836L3.67567 391.274Z" stroke="#2F3243" stroke-width="4" mask="url(#path-1-outside-1_132_4090)"/>
<path d="M3.67566 309.478L83.2127 309.478L83.2127 332.067L49.3648 351.198C46.1624 352.999 42.1781 354.945 37.4119 357.034C42.1781 356.53 48.2477 356.278 55.6205 356.278L83.2127 356.17L83.2127 378.975L3.67567 378.975L3.67567 355.629L33.5021 338.985C39.4599 335.598 44.4496 333.076 48.4711 331.419C42.4388 331.851 36.332 332.067 30.1508 332.067L3.67567 332.175L3.67566 309.478Z" stroke="#2F3243" stroke-width="4" mask="url(#path-1-outside-1_132_4090)"/>
<path d="M3.67566 233.842L24.1185 233.842L24.1185 255.459L83.2127 255.459L83.2127 279.021L24.1185 279.021L24.1185 300.53L3.67566 300.53L3.67566 233.842Z" stroke="#2F3243" stroke-width="4" mask="url(#path-1-outside-1_132_4090)"/>
<path d="M3.67566 160.89L23.0014 160.89L23.0014 201.421L32.9435 201.421L32.9435 164.673L51.3755 164.673L51.3755 201.421L62.9933 201.421L62.9933 159.809L83.2127 159.809L83.2127 224.659L3.67566 224.659L3.67566 160.89Z" stroke="#2F3243" stroke-width="4" mask="url(#path-1-outside-1_132_4090)"/>
<path d="M3.67566 148.773L3.67566 107.378C3.67566 104.135 4.04802 101.001 4.79275 97.9743C5.53748 94.948 6.76628 92.0298 8.47915 89.2196C10.1176 86.4094 12.5379 84.1757 15.7403 82.5184C18.9426 80.7891 22.7407 79.9245 27.1346 79.9245C31.454 79.9245 35.3639 80.9693 38.8641 83.0589C42.3643 85.0764 44.9336 87.8145 46.572 91.2732C47.4657 87.8145 49.8488 85.1845 53.7214 83.3831C57.594 81.5817 61.7645 80.4648 66.2329 80.0325L74.6111 79.2759C78.856 78.9156 81.7232 78.2672 83.2127 77.3304L83.2127 100.676C81.7977 101.325 79.3029 101.793 75.7282 102.082L71.2598 102.406C68.5788 102.622 66.419 102.91 64.7806 103.27C63.1422 103.559 61.5038 104.135 59.8654 105C58.227 105.864 57.0355 107.161 56.2907 108.891C55.546 110.62 55.1736 112.818 55.1736 115.484L55.1736 125.427L83.2127 125.427L83.2127 148.773L3.67566 148.773ZM22.1077 125.427L38.4172 125.427L38.4172 112.457C38.4172 106.045 35.6618 102.838 30.1508 102.838C24.7887 102.838 22.1077 106.477 22.1077 113.754L22.1077 125.427Z" stroke="#2F3243" stroke-width="4" mask="url(#path-1-outside-1_132_4090)"/>
<path d="M27.8049 8.1344L27.8049 30.2914C25.4217 30.3635 23.5599 31.2642 22.2194 32.9936C20.8789 34.7229 20.2086 37.1007 20.2086 40.127C20.2086 45.315 21.847 47.909 25.1238 47.909C26.0175 47.909 26.874 47.4767 27.6932 46.612C28.5124 45.7473 29.2198 44.5584 29.8156 43.0453C30.3369 41.4601 30.7838 40.0189 31.1561 38.7219C31.5285 37.4249 31.9009 35.9839 32.2732 34.3986C32.5711 32.7414 32.7573 31.7686 32.8318 31.4804C33.651 28.454 34.4329 25.86 35.1777 23.6984C35.9224 21.5367 37.0023 19.1949 38.4172 16.673C39.7578 14.1511 41.2845 12.1335 42.9973 10.6203C44.6357 9.03509 46.7582 7.70209 49.3648 6.62121C51.8968 5.5404 54.764 5 57.9664 5C66.2329 5 72.8237 8.0263 77.7389 14.079C82.5797 20.1316 85 28.3099 85 38.6139C85 49.3501 82.468 57.8166 77.4038 64.0134C72.2652 70.2102 65.2647 73.3806 56.4024 73.5247L56.4024 49.8545C63.254 49.4942 66.6797 45.4951 66.6797 37.8573C66.6797 34.903 66.0839 32.5612 64.8924 30.8319C63.7008 29.1025 62.0996 28.2379 60.0889 28.2379C58.8228 28.2379 57.743 28.7422 56.8493 29.751C56.0301 30.6877 55.1364 32.4892 54.1683 35.1552C53.2001 37.8213 52.1947 40.9917 51.1521 44.6665C50.035 48.2693 49.2903 50.539 48.9179 51.4757C47.8008 54.5741 46.721 57.1321 45.6784 59.1497C44.6357 61.1672 43.2952 63.1127 41.6568 64.9861C39.9439 66.8596 37.8959 68.2647 35.5128 69.2014C33.0552 70.066 30.188 70.4984 26.9112 70.4984C19.4639 70.4984 13.4688 67.6522 8.92599 61.9598C4.30867 56.1954 2.00001 48.6656 2.00001 39.3705C2.00001 29.5709 4.27143 21.9691 8.81428 16.5649C13.2827 11.0887 19.6128 8.2785 27.8049 8.1344Z" stroke="#2F3243" stroke-width="4" mask="url(#path-1-outside-1_132_4090)"/>
<mask id="path-2-outside-2_132_4090" maskUnits="userSpaceOnUse" x="98" y="-1.79217e-06" width="43" height="545" fill="black">
<rect fill="white" x="98" y="-1.79217e-06" width="43" height="545"/>
<path d="M117.927 509.252L138.109 509.252L138.109 514.292L133.863 515.055C137.288 517.77 139 521.401 139 525.948C139 531.004 137.2 535.11 133.601 538.266C130.001 541.422 125.336 543 119.605 543C113.839 543 109.138 541.337 105.504 538.012C101.835 534.686 100 530.41 100 525.185C100 521.045 101.206 517.549 103.617 514.699C105.993 511.848 109.138 510.186 113.052 509.711L113.052 517.397C111.095 517.77 109.575 518.652 108.492 520.043C107.409 521.435 106.867 523.182 106.867 525.286C106.867 528.306 108.003 530.682 110.274 532.413C112.511 534.143 115.621 535.008 119.605 535.008C123.659 535.008 126.821 534.143 129.093 532.413C131.329 530.648 132.448 528.188 132.448 525.032C132.448 522.555 131.679 520.519 130.141 518.924C128.569 517.329 126.524 516.48 124.008 516.379L124.008 524.472L117.927 524.472L117.927 509.252Z"/>
<path d="M100.734 419.219L138.109 405.424L138.109 413.772L129.774 416.623L129.774 430.112L138.109 433.064L138.109 441.208L100.734 427.414L100.734 419.219ZM123.798 418.557L109.907 423.342L123.798 428.177L123.798 418.557Z"/>
<path d="M100.786 336.424L100.786 318.405C100.786 314.808 101.66 311.873 103.407 309.599C105.155 307.325 107.811 306.189 111.375 306.189C113.542 306.189 115.446 306.698 117.089 307.716C118.696 308.734 119.849 310.142 120.548 311.94C121.212 308.818 124.113 307.037 129.25 306.596C129.425 306.596 129.966 306.562 130.875 306.494C131.784 306.426 132.518 306.358 133.077 306.29C133.601 306.223 134.247 306.138 135.016 306.036C135.785 305.934 136.431 305.781 136.956 305.578C137.48 305.374 137.864 305.137 138.109 304.865L138.109 313.111C137.55 313.383 136.851 313.586 136.012 313.722C135.138 313.858 134.038 313.976 132.71 314.078C131.347 314.18 130.595 314.231 130.456 314.231C127.835 314.502 126.018 315.147 125.004 316.165C123.991 317.149 123.484 318.914 123.484 321.459L123.484 328.534L138.109 328.534L138.109 336.424L100.786 336.424ZM107.234 328.534L117.561 328.534L117.561 321.001C117.561 318.795 117.211 317.081 116.512 315.86C115.778 314.604 114.363 313.976 112.266 313.976C110.309 313.976 108.981 314.587 108.282 315.809C107.583 316.997 107.234 318.608 107.234 320.645L107.234 328.534Z"/>
<path d="M100.734 216.313L138.109 202.519L138.109 210.867L129.774 213.717L129.774 227.206L138.109 230.158L138.109 238.302L100.734 224.508L100.734 216.313ZM123.798 215.651L109.907 220.436L123.798 225.272L123.798 215.651Z"/>
<path d="M117.927 101.552L138.109 101.552L138.109 106.592L133.863 107.355C137.288 110.07 139 113.701 139 118.248C139 123.304 137.2 127.41 133.601 130.566C130.001 133.722 125.336 135.3 119.605 135.3C113.839 135.3 109.138 133.637 105.504 130.312C101.835 126.986 100 122.71 100 117.484C100 113.345 101.206 109.849 103.617 106.999C105.993 104.148 109.138 102.486 113.052 102.01L113.052 109.697C111.095 110.07 109.575 110.952 108.492 112.343C107.409 113.735 106.867 115.482 106.867 117.586C106.867 120.606 108.003 122.982 110.274 124.712C112.511 126.443 115.621 127.308 119.605 127.308C123.659 127.308 126.821 126.443 129.093 124.712C131.329 122.948 132.448 120.488 132.448 117.332C132.448 114.855 131.679 112.819 130.141 111.224C128.569 109.629 126.524 108.78 124.008 108.679L124.008 116.772L117.927 116.772L117.927 101.552Z"/>
<path d="M100.786 2.35632L107.496 2.35632L107.496 21.6479L115.621 21.6479L115.621 3.93426L122.069 3.93426L122.069 21.6479L131.242 21.6479L131.242 2L138.109 2L138.109 29.5377L100.786 29.5377L100.786 2.35632Z"/>
</mask>
<path d="M117.927 509.252L138.109 509.252L138.109 514.292L133.863 515.055C137.288 517.77 139 521.401 139 525.948C139 531.004 137.2 535.11 133.601 538.266C130.001 541.422 125.336 543 119.605 543C113.839 543 109.138 541.337 105.504 538.012C101.835 534.686 100 530.41 100 525.185C100 521.045 101.206 517.549 103.617 514.699C105.993 511.848 109.138 510.186 113.052 509.711L113.052 517.397C111.095 517.77 109.575 518.652 108.492 520.043C107.409 521.435 106.867 523.182 106.867 525.286C106.867 528.306 108.003 530.682 110.274 532.413C112.511 534.143 115.621 535.008 119.605 535.008C123.659 535.008 126.821 534.143 129.093 532.413C131.329 530.648 132.448 528.188 132.448 525.032C132.448 522.555 131.679 520.519 130.141 518.924C128.569 517.329 126.524 516.48 124.008 516.379L124.008 524.472L117.927 524.472L117.927 509.252Z" stroke="#2F3243" stroke-width="4" mask="url(#path-2-outside-2_132_4090)"/>
<path d="M100.734 419.219L138.109 405.424L138.109 413.772L129.774 416.623L129.774 430.112L138.109 433.064L138.109 441.208L100.734 427.414L100.734 419.219ZM123.798 418.557L109.907 423.342L123.798 428.177L123.798 418.557Z" stroke="#2F3243" stroke-width="4" mask="url(#path-2-outside-2_132_4090)"/>
<path d="M100.786 336.424L100.786 318.405C100.786 314.808 101.66 311.873 103.407 309.599C105.155 307.325 107.811 306.189 111.375 306.189C113.542 306.189 115.446 306.698 117.089 307.716C118.696 308.734 119.849 310.142 120.548 311.94C121.212 308.818 124.113 307.037 129.25 306.596C129.425 306.596 129.966 306.562 130.875 306.494C131.784 306.426 132.518 306.358 133.077 306.29C133.601 306.223 134.247 306.138 135.016 306.036C135.785 305.934 136.431 305.781 136.956 305.578C137.48 305.374 137.864 305.137 138.109 304.865L138.109 313.111C137.55 313.383 136.851 313.586 136.012 313.722C135.138 313.858 134.038 313.976 132.71 314.078C131.347 314.18 130.595 314.231 130.456 314.231C127.835 314.502 126.018 315.147 125.004 316.165C123.991 317.149 123.484 318.914 123.484 321.459L123.484 328.534L138.109 328.534L138.109 336.424L100.786 336.424ZM107.234 328.534L117.561 328.534L117.561 321.001C117.561 318.795 117.211 317.081 116.512 315.86C115.778 314.604 114.363 313.976 112.266 313.976C110.309 313.976 108.981 314.587 108.282 315.809C107.583 316.997 107.234 318.608 107.234 320.645L107.234 328.534Z" stroke="#2F3243" stroke-width="4" mask="url(#path-2-outside-2_132_4090)"/>
<path d="M100.734 216.313L138.109 202.519L138.109 210.867L129.774 213.717L129.774 227.206L138.109 230.158L138.109 238.302L100.734 224.508L100.734 216.313ZM123.798 215.651L109.907 220.436L123.798 225.272L123.798 215.651Z" stroke="#2F3243" stroke-width="4" mask="url(#path-2-outside-2_132_4090)"/>
<path d="M117.927 101.552L138.109 101.552L138.109 106.592L133.863 107.355C137.288 110.07 139 113.701 139 118.248C139 123.304 137.2 127.41 133.601 130.566C130.001 133.722 125.336 135.3 119.605 135.3C113.839 135.3 109.138 133.637 105.504 130.312C101.835 126.986 100 122.71 100 117.484C100 113.345 101.206 109.849 103.617 106.999C105.993 104.148 109.138 102.486 113.052 102.01L113.052 109.697C111.095 110.07 109.575 110.952 108.492 112.343C107.409 113.735 106.867 115.482 106.867 117.586C106.867 120.606 108.003 122.982 110.274 124.712C112.511 126.443 115.621 127.308 119.605 127.308C123.659 127.308 126.821 126.443 129.093 124.712C131.329 122.948 132.448 120.488 132.448 117.332C132.448 114.855 131.679 112.819 130.141 111.224C128.569 109.629 126.524 108.78 124.008 108.679L124.008 116.772L117.927 116.772L117.927 101.552Z" stroke="#2F3243" stroke-width="4" mask="url(#path-2-outside-2_132_4090)"/>
<path d="M100.786 2.35632L107.496 2.35632L107.496 21.6479L115.621 21.6479L115.621 3.93426L122.069 3.93426L122.069 21.6479L131.242 21.6479L131.242 2L138.109 2L138.109 29.5377L100.786 29.5377L100.786 2.35632Z" stroke="#2F3243" stroke-width="4" mask="url(#path-2-outside-2_132_4090)"/>
</svg>
