<svg width="490" height="385" viewBox="0 0 490 385" fill="none" xmlns="http://www.w3.org/2000/svg">
<mask id="mask0_376_9665" style="mask-type:alpha" maskUnits="userSpaceOnUse" x="0" y="0" width="490" height="385">
<rect width="490" height="385" fill="#D9D9D9"/>
</mask>
<g mask="url(#mask0_376_9665)">
<path fill-rule="evenodd" clip-rule="evenodd" d="M40.3846 264.347L45.7281 190.861L281.208 3.19336L420.72 160.62L422.947 187.335L469.539 233.007L486.837 385.871L449.558 393.432L435.192 396.345L425.577 398.288L387.02 406.102L379.476 407.627L356.285 412.341L292.645 425.225L274.347 430.13L251.799 425.896L207.444 419.15L3.15869 388.099L10.2968 278.249L40.3846 264.347Z" fill="#FBED20" stroke="#A69D15" stroke-miterlimit="10"/>
<path d="M37.6929 301.383L45.7282 190.861L281.208 3.19336L420.72 160.62L431.425 288.7L289.471 223.326L37.6929 301.383Z" stroke="#A69D15" stroke-miterlimit="10"/>
<path d="M299.734 91.9153L383.882 168.412L389.02 222.881L302.185 162.399L299.734 91.9153Z" stroke="#A69D15" stroke-miterlimit="10"/>
<path d="M300.265 107.031L376.958 172.85L380.592 217.02" stroke="#A69D15" stroke-miterlimit="10"/>
<path d="M383.882 168.412L376.958 172.85" stroke="#A69D15" stroke-miterlimit="10"/>
<path d="M222.568 115.036L260.848 91.0215L262.289 162.399L223.238 180.526L222.568 115.036Z" stroke="#A69D15" stroke-miterlimit="10"/>
<path d="M261.075 102.255L231.161 119.928L231.563 176.657" stroke="#A69D15" stroke-miterlimit="10"/>
<path d="M231.161 119.928L222.568 115.036" stroke="#A69D15" stroke-miterlimit="10"/>
<path d="M37.6929 301.383L47.2326 302.82L277.244 240.457L407.823 293.152L431.425 288.7" stroke="#A69D15" stroke-miterlimit="10"/>
<path d="M274.347 430.13L251.799 425.896L248.647 248.208" stroke="#A69D15" stroke-miterlimit="10"/>
<path d="M270.45 242.298L274.347 430.13L292.645 425.225L286.775 244.299" stroke="#A69D15" stroke-miterlimit="10"/>
<path d="M422.947 187.335L469.539 233.008L486.837 385.872" stroke="#A69D15" stroke-miterlimit="10"/>
<path d="M289.114 316.486L381.489 329.619L387.02 406.102" stroke="#A69D15" stroke-miterlimit="10"/>
<path d="M207.966 259.237L207.444 419.15" stroke="#A69D15" stroke-miterlimit="10"/>
<path d="M425.577 398.288L417.983 313.057L442.192 320.164L449.558 393.432" stroke="#A69D15" stroke-miterlimit="10"/>
<path d="M418.809 322.347L428.018 325.056L435.192 396.344" stroke="#A69D15" stroke-miterlimit="10"/>
<path d="M442.192 320.164L428.018 325.056" stroke="#A69D15" stroke-miterlimit="10"/>
<path d="M166.915 323.014V323.028L159.299 350.156L167.977 380.979L158.018 380.246L149.554 350.156L156.866 324.122V324.113L166.915 323.014Z" stroke="#A69D15" stroke-miterlimit="10"/>
<path d="M150.808 324.78V324.793L143.393 350.876L151.567 379.77L144.112 379.214L136.104 350.876L143.277 325.625L143.291 325.611L150.808 324.78Z" stroke="#A69D15" stroke-miterlimit="10"/>
<path d="M137.103 326.292V326.306L129.939 351.606L137.635 378.734L130.193 378.178L122.662 351.606L129.573 327.124L137.103 326.292Z" stroke="#A69D15" stroke-miterlimit="10"/>
<path d="M40.3846 264.347L10.2968 278.249L3.15869 388.099L251.799 425.896L3.15869 388.099" stroke="#A69D15" stroke-miterlimit="10"/>
<path d="M123.461 327.791L116.502 352.326L123.702 377.702L116.247 377.146L109.212 352.326L115.93 328.622L123.461 327.791Z" stroke="#A69D15" stroke-miterlimit="10"/>
<path d="M102.225 330.126L95.7615 353.042L102.266 376.11L109.707 376.666L103.051 353.042L109.743 329.303L102.225 330.126Z" stroke="#A69D15" stroke-miterlimit="10"/>
<path d="M68.2406 212.395C68.013 218.95 67.7987 225.505 67.5844 232.047C67.3701 238.589 67.1558 245.157 66.9505 251.699C64.7363 252.744 62.5087 253.816 60.2946 254.861C60.3972 252.34 60.4865 249.818 60.5713 247.297C60.6472 244.775 60.7633 242.24 60.8615 239.719C58.7723 240.839 56.6965 241.938 54.6341 243.045C54.5314 245.518 54.4064 247.999 54.3172 250.459C54.2145 252.931 54.1163 255.399 54.0136 257.859C51.7726 258.917 49.5585 259.976 47.3577 261.021C47.6478 254.932 47.9291 248.831 48.2192 242.729C48.496 236.654 48.7772 230.553 49.0674 224.451C51.2191 223.077 53.3931 221.716 55.5716 220.342C55.4957 222.459 55.4064 224.554 55.3171 226.644C55.2278 228.738 55.1519 230.842 55.0403 232.932C57.1027 231.749 59.1785 230.548 61.2409 229.365C61.3302 227.209 61.3927 225.065 61.482 222.926C61.5579 220.769 61.6472 218.625 61.7231 216.482C63.9015 215.108 66.0621 213.76 68.2406 212.386V212.395Z" stroke="#A69D15" stroke-miterlimit="10"/>
<path d="M90.9403 198.097C90.851 202.309 90.7751 206.507 90.6993 210.692C90.6234 214.89 90.5475 219.075 90.4716 223.273C90.3957 226.502 90.1189 229.423 89.6636 231.958C89.2216 234.48 88.561 236.659 87.6905 238.464C85.9941 242.018 83.5032 244.566 80.2355 246.105C76.9454 247.679 74.5393 247.452 72.9724 245.487C71.4278 243.57 70.718 239.901 70.8966 234.471C71.0127 230.424 71.1377 226.404 71.2493 222.37C71.3653 218.336 71.5171 214.303 71.6287 210.256C73.8072 208.895 75.9544 207.534 78.1329 206.182C78.0168 210.34 77.9186 214.476 77.8025 218.639C77.6865 222.797 77.5749 226.946 77.4588 231.104C77.4097 233.235 77.624 234.671 78.1284 235.44C78.6329 236.21 79.4453 236.299 80.6104 235.694C82.6595 234.649 83.7621 231.976 83.8514 227.702C83.954 223.455 84.0433 219.204 84.1415 214.957C84.2308 210.723 84.3335 206.471 84.4183 202.224C86.5968 200.85 88.7574 199.489 90.9358 198.102L90.9403 198.097Z" stroke="#A69D15" stroke-miterlimit="10"/>
<path d="M113.515 183.928C113.452 191.542 113.399 199.182 113.336 206.796C113.287 214.422 113.247 222.036 113.185 229.676C111.06 230.673 108.944 231.695 106.819 232.687C105.935 229.965 105.087 227.239 104.225 224.518C103.364 221.845 102.515 219.145 101.667 216.499C101.185 215.001 100.667 213.084 100.123 210.776C100.225 213.333 100.239 216.651 100.199 220.724C100.158 223.259 100.123 225.803 100.083 228.338C100.056 230.873 100.042 233.408 100.007 235.938C97.8684 236.961 95.7301 237.966 93.5918 238.989C93.7168 231.816 93.8329 224.656 93.9578 217.482C94.0828 210.322 94.1855 203.149 94.3105 195.975C96.4622 194.65 98.6005 193.289 100.752 191.929C101.484 194.197 102.207 196.478 102.94 198.786C103.663 201.116 104.422 203.425 105.181 205.759C106.078 208.557 106.747 210.989 107.194 212.995C107.091 209.668 107.078 206.249 107.118 202.771C107.131 200.298 107.131 197.817 107.158 195.335C107.198 192.854 107.207 190.354 107.234 187.859C109.323 186.561 111.408 185.235 113.511 183.928H113.515Z" stroke="#A69D15" stroke-miterlimit="10"/>
<path d="M134.38 170.795C134.394 174.967 134.394 179.143 134.407 183.314C132.421 184.497 130.421 185.685 128.407 186.859C128.407 192.782 128.421 198.719 128.434 204.634C128.434 210.558 128.407 216.495 128.407 222.41C126.193 223.468 123.979 224.513 121.778 225.585C121.805 219.773 121.818 213.951 121.827 208.152C121.841 202.339 121.854 196.518 121.876 190.692C119.863 191.889 117.877 193.049 115.904 194.223C115.917 190.279 115.953 186.334 115.966 182.385C122.091 178.529 128.229 174.669 134.376 170.8L134.38 170.795Z" stroke="#A69D15" stroke-miterlimit="10"/>
<path d="M154.527 158.139C154.567 162.31 154.616 166.495 154.652 170.671C150.907 172.89 147.175 175.109 143.429 177.315C143.429 179.396 143.456 181.487 143.456 183.568C146.862 181.624 150.277 179.672 153.692 177.72C153.732 181.678 153.768 185.649 153.808 189.634C150.38 191.462 146.951 193.316 143.532 195.131C143.545 197.577 143.572 200.009 143.581 202.442C147.465 200.449 151.348 198.444 155.25 196.443C155.299 200.819 155.339 205.19 155.388 209.566C149.291 212.466 143.202 215.379 137.117 218.265C137.077 210.095 137.054 201.913 137.028 193.747C136.988 185.578 136.952 177.408 136.925 169.217C142.782 165.534 148.67 161.83 154.527 158.148V158.139Z" stroke="#A69D15" stroke-miterlimit="10"/>
<path d="M157.857 156.044C161.665 153.647 165.486 151.254 169.307 148.844C170.182 148.274 171.053 147.999 171.901 147.972C172.749 147.945 173.557 148.288 174.356 148.968C175.164 149.622 175.811 150.898 176.316 152.815C176.834 154.732 177.124 157.2 177.177 160.228C177.226 163.19 176.985 166.054 176.454 168.789C175.936 171.511 175.2 173.681 174.267 175.344C175.24 175.42 176.012 176.643 176.57 179.04C177.101 181.437 177.481 184.132 177.673 187.147C177.762 189.051 177.865 190.928 177.99 192.822C178.155 195.682 178.369 197.576 178.637 198.47C176.45 199.528 174.244 200.574 172.07 201.61C171.878 200.738 171.704 199.115 171.588 196.731C171.539 195.748 171.499 194.752 171.436 193.756C171.361 191.977 171.245 190.541 171.133 189.496C171.017 188.424 170.843 187.401 170.588 186.418C170.32 185.435 169.954 184.804 169.45 184.59C168.954 184.337 168.338 184.412 167.588 184.79C166.664 185.293 165.727 185.787 164.816 186.276C164.856 189.389 164.906 192.502 164.955 195.606C164.995 198.719 165.044 201.832 165.08 204.936C162.879 205.981 160.687 207.031 158.5 208.089C158.384 199.417 158.285 190.745 158.183 182.069C158.067 173.397 157.968 164.725 157.852 156.048L157.857 156.044ZM164.477 164.249C164.539 167.869 164.602 171.498 164.656 175.104C165.843 174.437 167.048 173.77 168.263 173.085C170.062 172.076 170.919 169.692 170.843 165.974C170.794 162.345 169.731 161.131 167.718 162.319C166.642 162.963 165.566 163.617 164.477 164.249Z" stroke="#A69D15" stroke-miterlimit="10"/>
<path d="M197.119 149.097C195.056 150.28 193.03 151.468 190.98 152.677C190.918 150.974 190.628 149.791 190.119 149.133C189.623 148.466 188.954 148.364 188.119 148.866C186.664 149.724 185.981 151.312 186.03 153.62C186.043 154.238 186.182 154.781 186.423 155.221C186.677 155.661 187.016 155.964 187.449 156.142C187.905 156.257 188.324 156.342 188.69 156.409C189.043 156.449 189.476 156.471 189.891 156.498C190.373 156.449 190.637 156.422 190.713 156.449C191.588 156.538 192.32 156.689 192.927 156.889C193.561 157.067 194.217 157.48 194.954 158.085C195.663 158.677 196.257 159.459 196.712 160.442C197.168 161.398 197.596 162.737 197.94 164.463C198.293 166.126 198.52 168.118 198.587 170.426C198.739 176.412 197.994 181.647 196.386 186.031C194.766 190.332 192.516 193.156 189.614 194.517C186.579 195.953 184.137 195.322 182.325 192.627C181.414 191.266 180.691 189.5 180.2 187.295C179.704 185.115 179.441 182.478 179.352 179.427C181.552 178.267 183.767 177.106 185.981 175.936C186.182 180.699 187.36 182.532 189.498 181.446C190.333 181.019 190.98 180.272 191.449 179.178C191.918 178.071 192.132 176.808 192.097 175.372C192.083 174.464 191.918 173.771 191.614 173.277C191.338 172.837 190.829 172.459 190.048 172.178C189.289 171.889 188.4 171.636 187.351 171.458C186.316 171.218 185.682 171.031 185.427 170.902C184.53 170.6 183.793 170.235 183.226 169.804C182.633 169.386 182.075 168.759 181.543 167.9C180.985 166.993 180.57 165.806 180.267 164.294C179.99 162.728 179.825 160.816 179.771 158.543C179.682 153.376 180.405 148.746 181.896 144.615C183.414 140.403 185.463 137.455 188.048 135.84C190.757 134.115 192.855 134.453 194.449 136.774C196.043 139.069 196.94 143.178 197.119 149.089V149.097Z" stroke="#A69D15" stroke-miterlimit="10"/>
<path d="M379.476 407.627L374.199 334.626L351.843 331.446L356.285 412.341" stroke="#A69D15" stroke-miterlimit="10"/>
<path d="M405.408 333.946L400.85 333.452L397.649 354.692L404.229 376.768H408.863L402.283 354.692L405.408 333.946Z" stroke="#A69D15" stroke-miterlimit="10"/>
<path d="M413.921 334.866L409.367 334.373L406.292 354.692L412.872 376.768H417.505L410.925 354.692L413.921 334.866Z" stroke="#A69D15" stroke-miterlimit="10"/>
</g>
</svg>
