<svg width="196" height="61" viewBox="0 0 196 61" fill="none" xmlns="http://www.w3.org/2000/svg">
<rect width="195.533" height="60.0567" rx="9.0085" fill="black"/>
<path fill-rule="evenodd" clip-rule="evenodd" d="M38.6897 30.8984C38.7225 28.3513 40.0579 25.9986 42.2279 24.6645C40.8527 22.7004 38.6319 21.4999 36.2355 21.4249C33.7142 21.1602 31.27 22.9335 29.9852 22.9335C28.6756 22.9335 26.6975 21.4511 24.5674 21.495C21.7647 21.5855 19.2152 23.1404 17.8517 25.5906C14.9479 30.618 17.1138 38.0066 19.8954 42.0703C21.287 44.0602 22.9135 46.283 25.0417 46.2042C27.1242 46.1178 27.902 44.8762 30.4159 44.8762C32.9064 44.8762 33.6361 46.2042 35.8074 46.1541C38.0421 46.1178 39.4501 44.1553 40.7929 42.1466C41.7928 40.7287 42.5623 39.1616 43.0727 37.5034C40.4186 36.3809 38.6928 33.7802 38.6897 30.8984Z" fill="white"/>
<path fill-rule="evenodd" clip-rule="evenodd" d="M34.5885 18.7528C35.8069 17.2901 36.4072 15.4101 36.2618 13.512C34.4003 13.7075 32.6808 14.5972 31.4459 16.0037C30.2265 17.3915 29.6087 19.2071 29.7287 21.0506C31.6152 21.07 33.4063 20.2231 34.5885 18.7528Z" fill="white"/>
<path d="M69.2003 16.1341C69.2003 17.4554 68.0442 19.4973 65.0414 19.4973C62.489 19.4973 60.6122 18.3112 60.6122 15.7287H61.9785C62.0386 17.6656 63.4499 18.3412 65.1615 18.3412C66.6329 18.3412 67.789 17.4704 67.789 16.1041C67.789 14.5426 66.5128 14.2273 65.0864 14.2273C64.7862 14.2273 64.3508 14.2423 64.1255 14.2574V13.0863C64.3658 13.1163 64.8462 13.1163 65.0864 13.1163C66.4377 13.1163 67.4136 12.6508 67.4136 11.1945C67.4136 9.87322 66.3176 9.48285 65.1165 9.48285C63.54 9.48285 62.6241 10.1134 62.459 11.6599H61.0927C61.1828 9.36274 62.8944 8.31175 65.1615 8.31175C67.2185 8.31175 68.825 9.18257 68.825 11.1945C68.825 12.3205 67.9542 13.2514 67.0533 13.5217V13.5667C68.4646 13.837 69.2003 14.963 69.2003 16.1341ZM77.9151 18.2361V19.2271C77.6449 19.3322 77.3296 19.3772 77.0443 19.3772C76.3236 19.3772 75.9333 18.9718 75.9182 18.2361C75.1525 19.0919 74.3117 19.4673 73.1106 19.4673C71.5791 19.4673 70.6332 18.6265 70.6332 17.2752C70.6332 15.8939 71.5491 15.0831 73.3808 14.8579C75.2276 14.6327 75.8582 14.6778 75.8582 13.6268C75.8582 12.801 75.2426 12.3506 74.1015 12.3506C72.9154 12.3506 72.2998 12.786 72.1797 13.927H70.9335C70.9786 12.2755 72.1797 11.2996 74.1766 11.2996C75.2126 11.2996 76.0984 11.5698 76.6089 12.0503C77.1494 12.5758 77.1344 13.3715 77.1344 14.0622C77.1344 15.2183 77.0743 16.3593 77.0743 17.5154C77.0743 18.086 77.2095 18.2812 77.5998 18.2812C77.7199 18.2812 77.78 18.2661 77.9151 18.2361ZM75.8582 15.2333C75.3777 15.5936 74.7171 15.6236 74.1466 15.6987C73.2157 15.8188 71.9545 15.9239 71.9545 17.1701C71.9545 17.9659 72.54 18.4613 73.501 18.4613C74.7021 18.4613 75.8582 17.6355 75.8582 16.6446V15.2333ZM79.3882 19.2571V11.5098H82.9765C84.3278 11.5098 85.6341 11.81 85.6341 13.3865C85.6341 14.2123 85.2137 14.7228 84.493 15.0531V15.0681C85.3938 15.2483 85.9644 15.9389 85.9644 16.9749C85.9644 18.2962 84.9884 19.2571 83.6071 19.2571H79.3882ZM82.8414 14.6327C83.9374 14.6327 84.3128 14.2574 84.3128 13.5967C84.3128 12.9511 83.9675 12.6058 82.8414 12.6058H80.6343V14.6327H82.8414ZM80.6343 15.7137V18.161H83.3669C84.1777 18.161 84.6431 17.6055 84.6431 16.8698C84.6431 16.1642 84.1927 15.7137 83.1417 15.7137H80.6343ZM94.6442 18.2361V19.2271C94.3739 19.3322 94.0586 19.3772 93.7734 19.3772C93.0527 19.3772 92.6623 18.9718 92.6473 18.2361C91.8816 19.0919 91.0408 19.4673 89.8397 19.4673C88.3082 19.4673 87.3623 18.6265 87.3623 17.2752C87.3623 15.8939 88.2782 15.0831 90.1099 14.8579C91.9567 14.6327 92.5873 14.6778 92.5873 13.6268C92.5873 12.801 91.9717 12.3506 90.8306 12.3506C89.6445 12.3506 89.0289 12.786 88.9088 13.927H87.6626C87.7076 12.2755 88.9088 11.2996 90.9057 11.2996C91.9416 11.2996 92.8275 11.5698 93.338 12.0503C93.8785 12.5758 93.8635 13.3715 93.8635 14.0622C93.8635 15.2183 93.8034 16.3593 93.8034 17.5154C93.8034 18.086 93.9385 18.2812 94.3289 18.2812C94.449 18.2812 94.5091 18.2661 94.6442 18.2361ZM92.5873 15.2333C92.1068 15.5936 91.4462 15.6236 90.8756 15.6987C89.9448 15.8188 88.6836 15.9239 88.6836 17.1701C88.6836 17.9659 89.2691 18.4613 90.23 18.4613C91.4312 18.4613 92.5873 17.6355 92.5873 16.6446V15.2333ZM97.4235 19.2571H96.1473V11.5098H97.4235V14.5877H101.297V11.5098H102.573V19.2571H101.297V15.7137H97.4235V19.2571ZM110.721 12.6358H107.943V19.2571H106.667V12.6358H103.89V11.5098H110.721V12.6358ZM118.638 18.2361V19.2271C118.368 19.3322 118.053 19.3772 117.767 19.3772C117.047 19.3772 116.656 18.9718 116.641 18.2361C115.876 19.0919 115.035 19.4673 113.834 19.4673C112.302 19.4673 111.356 18.6265 111.356 17.2752C111.356 15.8939 112.272 15.0831 114.104 14.8579C115.951 14.6327 116.581 14.6778 116.581 13.6268C116.581 12.801 115.966 12.3506 114.825 12.3506C113.638 12.3506 113.023 12.786 112.903 13.927H111.657C111.702 12.2755 112.903 11.2996 114.9 11.2996C115.936 11.2996 116.821 11.5698 117.332 12.0503C117.872 12.5758 117.857 13.3715 117.857 14.0622C117.857 15.2183 117.797 16.3593 117.797 17.5154C117.797 18.086 117.932 18.2812 118.323 18.2812C118.443 18.2812 118.503 18.2661 118.638 18.2361ZM116.581 15.2333C116.101 15.5936 115.44 15.6236 114.87 15.6987C113.939 15.8188 112.678 15.9239 112.678 17.1701C112.678 17.9659 113.263 18.4613 114.224 18.4613C115.425 18.4613 116.581 17.6355 116.581 16.6446V15.2333ZM123.414 15.5035L120.757 19.2571H119.18L122.573 14.6928L119.616 11.5098H121.192L124.345 15.0681H124.375V11.5098H125.651V15.0681H125.681L128.834 11.5098H130.411L127.453 14.6928L130.846 19.2571H129.27L126.612 15.5035L125.651 16.4795V19.2571H124.375V16.4795L123.414 15.5035ZM138.538 11.5098L135.22 20.248C134.8 21.3441 134.364 22.38 132.983 22.38C132.653 22.38 132.353 22.32 132.037 22.2449V21.1038C132.443 21.2239 132.638 21.269 132.863 21.269C133.283 21.269 133.614 20.9837 133.764 20.6234L134.364 19.212L131.287 11.5098H132.728L135.025 17.6806L137.202 11.5098H138.538ZM145.415 8.56699C145.22 9.76812 144.469 10.6389 143.163 10.6389C141.917 10.6389 141.031 9.76812 140.881 8.56699H141.646C141.856 9.28767 142.382 9.73809 143.148 9.73809C143.928 9.73809 144.409 9.28767 144.649 8.56699H145.415ZM141.571 19.2571H139.935V11.5098H141.211V17.8307H141.241L144.724 11.5098H146.361V19.2571H145.085V12.9361H145.055L141.571 19.2571ZM159.468 11.5098L156.15 20.248C155.729 21.3441 155.294 22.38 153.913 22.38C153.582 22.38 153.282 22.32 152.967 22.2449V21.1038C153.372 21.2239 153.567 21.269 153.793 21.269C154.213 21.269 154.543 20.9837 154.693 20.6234L155.294 19.212L152.216 11.5098H153.657L155.955 17.6806L158.132 11.5098H159.468Z" fill="white"/>
<path d="M85.4606 32.9947C88.9106 32.9948 91.1848 35.7219 91.1848 39.9344C91.1848 44.1586 88.9238 46.8726 85.5119 46.8726C83.7483 46.9649 82.0871 46.0411 81.2349 44.4944H81.1704V51.2273H78.3801V33.137H81.081V35.3979H81.1323C82.0224 33.8608 83.6854 32.9375 85.4606 32.9947ZM100.422 32.9948C103.872 32.9948 106.146 35.7219 106.146 39.9344C106.146 44.1586 103.885 46.8726 100.473 46.8726C98.7097 46.9649 97.0485 46.0411 96.1963 44.4944H96.1318V51.2273H93.3415V33.137H96.0423V35.3979H96.0936C96.9837 33.8608 98.6467 32.9375 100.422 32.9948ZM120.454 27.7749C124.393 27.7749 127.094 29.9845 127.185 33.2014H124.368C124.2 31.3408 122.662 30.2176 120.414 30.2176C118.166 30.2176 116.628 31.354 116.628 33.0079C116.628 34.326 117.611 35.1017 120.014 35.6954L122.068 36.1998C125.893 37.1045 127.483 38.6411 127.483 41.3683C127.483 44.8564 124.704 47.0411 120.285 47.0411C116.15 47.0411 113.358 44.9077 113.178 41.5354L116.034 41.5355C116.241 43.3844 118.037 44.5984 120.492 44.5984C122.844 44.5984 124.536 43.3844 124.536 41.7173C124.536 40.2701 123.515 39.4036 121.099 38.8097L118.682 38.2276C115.259 37.4007 113.669 35.7996 113.669 33.2014C113.669 29.9845 116.473 27.7749 120.454 27.7749ZM144.034 32.9698C147.975 32.9698 150.482 35.6574 150.482 39.9344C150.482 44.2231 147.988 46.899 144.034 46.899C140.081 46.899 137.587 44.2231 137.587 39.9344C137.587 35.6574 140.106 32.9698 144.034 32.9698ZM166.628 32.9698C170.389 32.9698 172.754 35.5533 172.754 39.6749V40.6309H163.153V40.7995C163.063 41.8115 163.413 42.8132 164.113 43.5499C164.812 44.2866 165.795 44.6872 166.81 44.6498C168.164 44.7767 169.441 43.9991 169.949 42.7378L172.599 42.7378C172.223 45.2055 169.82 46.899 166.745 46.899C162.791 46.899 160.336 44.2495 160.336 39.9989C160.336 35.7351 162.804 32.9698 166.628 32.9698ZM133.504 29.9201V33.137H136.089V35.3466H133.504V42.8405C133.504 44.0047 134.022 44.5472 135.158 44.5472C135.465 44.5418 135.772 44.5203 136.076 44.4826V46.679C135.565 46.7745 135.046 46.8177 134.526 46.808C131.774 46.808 130.701 45.7743 130.701 43.1381V35.3466H128.725V33.137H130.701V29.9201H133.504ZM69.9157 28.0858L76.6471 46.7304H73.5856L71.8804 41.691H64.7736L63.0669 46.7304H60.0567L66.7882 28.0858H69.9157ZM158.778 32.9947C159.099 32.9936 159.42 33.0285 159.734 33.0988V35.7087C159.328 35.5847 158.905 35.5277 158.48 35.5401C157.66 35.5068 156.866 35.8338 156.307 36.435C155.748 37.0363 155.48 37.8519 155.573 38.6676V46.7304H152.782V33.137H155.444V35.4507H155.508C155.879 33.9612 157.244 32.9362 158.778 32.9947ZM144.034 35.2689C141.773 35.2689 140.43 37.0137 140.43 39.9344C140.43 42.8801 141.773 44.5985 144.034 44.5985C146.294 44.5985 147.639 42.8801 147.639 39.9344C147.639 37.0005 146.294 35.2689 144.034 35.2689ZM84.7246 35.373C82.5927 35.373 81.1587 37.2204 81.1587 39.9344C81.1587 42.6733 82.5927 44.5076 84.7246 44.5076C86.8946 44.5076 88.3168 42.7115 88.3168 39.9344C88.3168 37.1823 86.8946 35.373 84.7246 35.373ZM99.6859 35.373C97.554 35.373 96.1201 37.2204 96.1201 39.9344C96.1201 42.6733 97.554 44.5076 99.6859 44.5076C101.856 44.5076 103.278 42.7115 103.278 39.9344C103.278 37.1823 101.856 35.373 99.6859 35.373ZM68.3659 31.1869H68.2882L65.5096 39.3655H71.143L68.3659 31.1869ZM166.628 35.2307C165.71 35.2253 164.828 35.5866 164.178 36.2345C163.528 36.8823 163.164 37.763 163.166 38.6808H169.962C170.013 37.7714 169.682 36.8822 169.049 36.2273C168.416 35.5724 167.539 35.2112 166.628 35.2307Z" fill="white"/>
</svg>
