<svg width="196" height="61" viewBox="0 0 196 61" fill="none" xmlns="http://www.w3.org/2000/svg">
<rect x="0.466797" width="195.533" height="60.0567" rx="9.0085" fill="black"/>
<path fill-rule="evenodd" clip-rule="evenodd" d="M14.8075 12.0295C14.3706 12.4919 14.1138 13.2081 14.1138 14.1375V47.3158C14.1138 48.2452 14.3706 48.9614 14.8075 49.4238L14.9186 49.5319L33.5047 30.9458V30.5074L14.9186 11.9214L14.8075 12.0295Z" fill="#00D7FE"/>
<mask id="mask0_2011_6010" style="mask-type:alpha" maskUnits="userSpaceOnUse" x="33" y="24" width="16" height="14">
<path d="M39.6987 37.1441L33.5054 30.9463V30.5079L39.7017 24.3115L47.1818 28.5605C49.2778 29.7527 49.2778 31.7015 47.1818 32.8921L39.8414 37.0631L39.6987 37.1441Z" fill="white"/>
</mask>
<g mask="url(#mask0_2011_6010)">
<path fill-rule="evenodd" clip-rule="evenodd" d="M39.6983 37.1441L33.505 30.9463V30.5079L39.7013 24.3115L47.1814 28.5605C49.2774 29.7527 49.2774 31.7015 47.1814 32.8921L39.841 37.0631L39.6983 37.1441Z" fill="url(#paint0_linear_2011_6010)"/>
</g>
<mask id="mask1_2011_6010" style="mask-type:alpha" maskUnits="userSpaceOnUse" x="14" y="30" width="26" height="21">
<path d="M39.8402 37.0635L33.5042 30.7275L14.8071 49.4247C15.4992 50.1559 16.6403 50.246 17.9255 49.5163L39.8402 37.0635Z" fill="white"/>
</mask>
<g mask="url(#mask1_2011_6010)">
<path fill-rule="evenodd" clip-rule="evenodd" d="M39.8403 37.0633L33.5043 30.7273L14.8072 49.4244C15.4993 50.1556 16.6404 50.2457 17.9256 49.516L39.8403 37.0633Z" fill="url(#paint1_linear_2011_6010)"/>
</g>
<mask id="mask2_2011_6010" style="mask-type:alpha" maskUnits="userSpaceOnUse" x="14" y="11" width="26" height="20">
<path d="M39.8402 24.3917L17.9255 11.939C16.6403 11.2093 15.4992 11.2994 14.8071 12.0306L33.5042 30.7277L39.8402 24.3917Z" fill="white"/>
</mask>
<g mask="url(#mask2_2011_6010)">
<path fill-rule="evenodd" clip-rule="evenodd" d="M39.8403 24.3917L17.9256 11.939C16.6404 11.2093 15.4993 11.2994 14.8072 12.0306L33.5043 30.7277L39.8403 24.3917Z" fill="url(#paint2_linear_2011_6010)"/>
</g>
<path fill-rule="evenodd" clip-rule="evenodd" d="M156.629 47.1715H159.431V28.4023H156.629V47.1715ZM181.864 35.1632L178.652 43.3008H178.556L175.223 35.1632H172.205L177.203 46.5364L174.354 52.8634H177.277L184.979 35.1632H181.864ZM165.976 45.0395C165.057 45.0395 163.778 44.5815 163.778 43.4465C163.778 41.9976 165.372 41.4421 166.747 41.4421C167.98 41.4421 168.558 41.7078 169.307 42.0697C169.09 43.8083 167.593 45.0395 165.976 45.0395ZM166.314 34.7533C164.285 34.7533 162.185 35.6466 161.315 37.627L163.802 38.6645C164.333 37.627 165.323 37.2877 166.362 37.2877C167.81 37.2877 169.283 38.157 169.307 39.7034V39.8956C168.8 39.6059 167.714 39.1719 166.386 39.1719C163.706 39.1719 160.976 40.6448 160.976 43.3969C160.976 45.9088 163.174 47.5273 165.636 47.5273C167.521 47.5273 168.558 46.682 169.211 45.6911H169.307V47.14H172.011V39.9452C172.011 36.612 169.525 34.7533 166.314 34.7533ZM148.999 37.4483H145.014V31.0147H148.999C151.094 31.0147 152.283 32.7489 152.283 34.2308C152.283 35.6856 151.094 37.4483 148.999 37.4483ZM148.927 28.4023H142.214V47.1715H145.014V40.0608H148.927C152.032 40.0608 155.084 37.8117 155.084 34.2308C155.084 30.6499 152.032 28.4023 148.927 28.4023ZM112.321 45.0425C110.386 45.0425 108.766 43.4225 108.766 41.1974C108.766 38.9482 110.386 37.3027 112.321 37.3027C114.232 37.3027 115.731 38.9482 115.731 41.1974C115.731 43.4225 114.232 45.0425 112.321 45.0425ZM115.537 36.2141H115.441C114.812 35.4649 113.603 34.7878 112.079 34.7878C108.886 34.7878 105.96 37.5925 105.96 41.1974C105.96 44.7767 108.886 47.5589 112.079 47.5589C113.603 47.5589 114.812 46.8817 115.441 46.107H115.537V47.0259C115.537 49.4702 114.232 50.7764 112.127 50.7764C110.41 50.7764 109.345 49.5422 108.91 48.5017L106.467 49.5182C107.168 51.2118 109.031 53.2913 112.127 53.2913C115.417 53.2913 118.199 51.3559 118.199 46.64V35.1737H115.537V36.2141ZM120.134 47.1715H122.941V28.4008H120.134V47.1715ZM127.075 40.9796C127.003 38.5128 128.987 37.2546 130.413 37.2546C131.527 37.2546 132.47 37.8102 132.784 38.6089L127.075 40.9796ZM135.784 38.8506C135.252 37.4243 133.631 34.7878 130.317 34.7878C127.027 34.7878 124.295 37.3747 124.295 41.1733C124.295 44.7527 127.003 47.5589 130.631 47.5589C133.559 47.5589 135.252 45.7692 135.953 44.7287L133.776 43.2768C133.051 44.3413 132.059 45.0425 130.631 45.0425C129.204 45.0425 128.188 44.3894 127.535 43.1087L136.073 39.5773L135.784 38.8506ZM67.7575 36.7472V39.4557H74.2391C74.0454 40.9796 73.5379 42.0922 72.7647 42.8669C71.8203 43.8098 70.3444 44.8488 67.7575 44.8488C63.7667 44.8488 60.6453 41.6328 60.6453 37.642C60.6453 33.6497 63.7667 30.4337 67.7575 30.4337C69.9105 30.4337 71.4825 31.2805 72.6431 32.369L74.5544 30.4577C72.9329 28.9098 70.7813 27.7236 67.7575 27.7236C62.2908 27.7236 57.695 32.1753 57.695 37.642C57.695 43.1087 62.2908 47.5589 67.7575 47.5589C70.7078 47.5589 72.9329 46.5919 74.6745 44.7767C76.4642 42.987 77.0212 40.4722 77.0212 38.4392C77.0212 37.8102 76.9732 37.2306 76.8756 36.7472H67.7575ZM84.3917 45.0425C82.4564 45.0425 80.7868 43.4465 80.7868 41.1733C80.7868 38.8747 82.4564 37.3027 84.3917 37.3027C86.3255 37.3027 87.9951 38.8747 87.9951 41.1733C87.9951 43.4465 86.3255 45.0425 84.3917 45.0425ZM84.3917 34.7878C80.8589 34.7878 77.9806 37.4723 77.9806 41.1733C77.9806 44.8488 80.8589 47.5589 84.3917 47.5589C87.923 47.5589 90.8012 44.8488 90.8012 41.1733C90.8012 37.4723 87.923 34.7878 84.3917 34.7878ZM98.3744 45.0425C96.4391 45.0425 94.7695 43.4465 94.7695 41.1733C94.7695 38.8747 96.4391 37.3027 98.3744 37.3027C100.31 37.3027 101.978 38.8747 101.978 41.1733C101.978 43.4465 100.31 45.0425 98.3744 45.0425ZM98.3744 34.7878C94.8431 34.7878 91.9648 37.4723 91.9648 41.1733C91.9648 44.8488 94.8431 47.5589 98.3744 47.5589C101.906 47.5589 104.784 44.8488 104.784 41.1733C104.784 37.4723 101.906 34.7878 98.3744 34.7878Z" fill="#FFFFFE"/>
<path d="M66.8386 16.0831C66.8386 17.4044 65.6825 19.4463 62.6797 19.4463C60.1273 19.4463 58.2505 18.2602 58.2505 15.6777H59.6168C59.6769 17.6146 61.0882 18.2902 62.7998 18.2902C64.2712 18.2902 65.4273 17.4194 65.4273 16.0531C65.4273 14.4916 64.1511 14.1763 62.7247 14.1763C62.4244 14.1763 61.989 14.1913 61.7638 14.2063V13.0352C62.0041 13.0653 62.4845 13.0653 62.7247 13.0653C64.076 13.0653 65.0519 12.5998 65.0519 11.1434C65.0519 9.8222 63.9559 9.43183 62.7548 9.43183C61.1783 9.43183 60.2624 10.0624 60.0973 11.6089H58.731C58.821 9.31171 60.5327 8.26072 62.7998 8.26072C64.8567 8.26072 66.4633 9.13154 66.4633 11.1434C66.4633 12.2695 65.5924 13.2004 64.6916 13.4706V13.5157C66.1029 13.7859 66.8386 14.912 66.8386 16.0831ZM75.2531 18.1851V19.176C74.9829 19.2811 74.6676 19.3262 74.3823 19.3262C73.6616 19.3262 73.2713 18.9208 73.2562 18.1851C72.4905 19.0409 71.6497 19.4163 70.4486 19.4163C68.9171 19.4163 67.9712 18.5755 67.9712 17.2242C67.9712 15.8429 68.8871 15.0321 70.7188 14.8069C72.5656 14.5817 73.1962 14.6267 73.1962 13.5757C73.1962 12.75 72.5806 12.2995 71.4395 12.2995C70.2534 12.2995 69.6378 12.7349 69.5177 13.876H68.2715C68.3166 12.2245 69.5177 11.2485 71.5146 11.2485C72.5506 11.2485 73.4364 11.5188 73.9469 11.9993C74.4874 12.5247 74.4724 13.3205 74.4724 14.0112C74.4724 15.1672 74.4123 16.3083 74.4123 17.4644C74.4123 18.0349 74.5475 18.2301 74.9378 18.2301C75.0579 18.2301 75.118 18.2151 75.2531 18.1851ZM73.1962 15.1823C72.7157 15.5426 72.0551 15.5726 71.4846 15.6477C70.5537 15.7678 69.2925 15.8729 69.2925 17.1191C69.2925 17.9148 69.878 18.4103 70.839 18.4103C72.0401 18.4103 73.1962 17.5845 73.1962 16.5936V15.1823ZM76.4259 19.2061V11.4587H80.0143C81.3655 11.4587 82.6718 11.759 82.6718 13.3355C82.6718 14.1613 82.2514 14.6718 81.5307 15.0021V15.0171C82.4315 15.1973 83.0021 15.8879 83.0021 16.9239C83.0021 18.2451 82.0262 19.2061 80.6449 19.2061H76.4259ZM79.8791 14.5817C80.9752 14.5817 81.3505 14.2063 81.3505 13.5457C81.3505 12.9001 81.0052 12.5548 79.8791 12.5548H77.672V14.5817H79.8791ZM77.672 15.6627V18.11H80.4046C81.2154 18.11 81.6808 17.5545 81.6808 16.8188C81.6808 16.1131 81.2304 15.6627 80.1794 15.6627H77.672ZM91.3816 18.1851V19.176C91.1114 19.2811 90.7961 19.3262 90.5108 19.3262C89.7901 19.3262 89.3998 18.9208 89.3847 18.1851C88.619 19.0409 87.7782 19.4163 86.5771 19.4163C85.0456 19.4163 84.0998 18.5755 84.0998 17.2242C84.0998 15.8429 85.0156 15.0321 86.8474 14.8069C88.6941 14.5817 89.3247 14.6267 89.3247 13.5757C89.3247 12.75 88.7091 12.2995 87.568 12.2995C86.3819 12.2995 85.7663 12.7349 85.6462 13.876H84.4C84.4451 12.2245 85.6462 11.2485 87.6431 11.2485C88.6791 11.2485 89.5649 11.5188 90.0754 11.9993C90.6159 12.5247 90.6009 13.3205 90.6009 14.0112C90.6009 15.1672 90.5408 16.3083 90.5408 17.4644C90.5408 18.0349 90.676 18.2301 91.0663 18.2301C91.1864 18.2301 91.2465 18.2151 91.3816 18.1851ZM89.3247 15.1823C88.8442 15.5426 88.1836 15.5726 87.6131 15.6477C86.6822 15.7678 85.421 15.8729 85.421 17.1191C85.421 17.9148 86.0066 18.4103 86.9675 18.4103C88.1686 18.4103 89.3247 17.5845 89.3247 16.5936V15.1823ZM93.8606 19.2061H92.5844V11.4587H93.8606V14.5366H97.7343V11.4587H99.0105V19.2061H97.7343V15.6627H93.8606V19.2061ZM106.858 12.5848H104.08V19.2061H102.804V12.5848H100.026V11.4587H106.858V12.5848ZM114.475 18.1851V19.176C114.204 19.2811 113.889 19.3262 113.604 19.3262C112.883 19.3262 112.493 18.9208 112.478 18.1851C111.712 19.0409 110.871 19.4163 109.67 19.4163C108.139 19.4163 107.193 18.5755 107.193 17.2242C107.193 15.8429 108.109 15.0321 109.94 14.8069C111.787 14.5817 112.418 14.6267 112.418 13.5757C112.418 12.75 111.802 12.2995 110.661 12.2995C109.475 12.2995 108.859 12.7349 108.739 13.876H107.493C107.538 12.2245 108.739 11.2485 110.736 11.2485C111.772 11.2485 112.658 11.5188 113.168 11.9993C113.709 12.5247 113.694 13.3205 113.694 14.0112C113.694 15.1672 113.634 16.3083 113.634 17.4644C113.634 18.0349 113.769 18.2301 114.159 18.2301C114.28 18.2301 114.34 18.2151 114.475 18.1851ZM112.418 15.1823C111.937 15.5426 111.277 15.5726 110.706 15.6477C109.775 15.7678 108.514 15.8729 108.514 17.1191C108.514 17.9148 109.1 18.4103 110.061 18.4103C111.262 18.4103 112.418 17.5845 112.418 16.5936V15.1823ZM118.951 15.4525L116.293 19.2061H114.717L118.11 14.6417L115.152 11.4587H116.728L119.881 15.0171H119.911V11.4587H121.188V15.0171H121.218L124.371 11.4587H125.947L122.989 14.6417L126.383 19.2061H124.806L122.149 15.4525L121.188 16.4284V19.2061H119.911V16.4284L118.951 15.4525ZM133.774 11.4587L130.456 20.197C130.036 21.293 129.6 22.329 128.219 22.329C127.889 22.329 127.589 22.2689 127.273 22.1939V21.0528C127.679 21.1729 127.874 21.218 128.099 21.218C128.519 21.218 128.85 20.9327 129 20.5723L129.6 19.161L126.523 11.4587H127.964L130.261 17.6296L132.438 11.4587H133.774ZM140.351 8.51596C140.155 9.7171 139.405 10.5879 138.098 10.5879C136.852 10.5879 135.966 9.7171 135.816 8.51596H136.582C136.792 9.23664 137.318 9.68707 138.083 9.68707C138.864 9.68707 139.345 9.23664 139.585 8.51596H140.351ZM136.507 19.2061H134.87V11.4587H136.147V17.7797H136.177L139.66 11.4587H141.296V19.2061H140.02V12.8851H139.99L136.507 19.2061ZM153.803 11.4587L150.485 20.197C150.065 21.293 149.629 22.329 148.248 22.329C147.918 22.329 147.617 22.2689 147.302 22.1939V21.0528C147.707 21.1729 147.902 21.218 148.128 21.218C148.548 21.218 148.878 20.9327 149.029 20.5723L149.629 19.161L146.551 11.4587H147.993L150.29 17.6296L152.467 11.4587H153.803Z" fill="white"/>
<defs>
<linearGradient id="paint0_linear_2011_6010" x1="45.8178" y1="30.7275" x2="33.505" y2="30.7275" gradientUnits="userSpaceOnUse">
<stop stop-color="#FFBC00"/>
<stop offset="1" stop-color="#FFDA03"/>
</linearGradient>
<linearGradient id="paint1_linear_2011_6010" x1="36.397" y1="36.6891" x2="20.3266" y2="49.9354" gradientUnits="userSpaceOnUse">
<stop stop-color="#E22652"/>
<stop offset="1" stop-color="#FF3A44"/>
</linearGradient>
<linearGradient id="paint2_linear_2011_6010" x1="17.6384" y1="14.2814" x2="28.3528" y2="23.7027" gradientUnits="userSpaceOnUse">
<stop stop-color="#0ED574"/>
<stop offset="1" stop-color="#07F076"/>
</linearGradient>
</defs>
</svg>
