<svg width="32" height="32" viewBox="0 0 32 32" fill="none" xmlns="http://www.w3.org/2000/svg">
<path fill-rule="evenodd" clip-rule="evenodd" d="M22.8634 4.11105C23.3417 4.38719 23.5055 4.99878 23.2294 5.47707L10.5015 27.5225C10.2253 28.0008 9.61373 28.1647 9.13544 27.8885C8.65715 27.6124 8.49327 27.0008 8.76942 26.5225L21.4973 4.47708C21.7735 3.99878 22.3851 3.83491 22.8634 4.11105Z" fill="black"/>
<path fill-rule="evenodd" clip-rule="evenodd" d="M8.47196 4.11833C8.79712 4.29235 9.00011 4.63121 9.00011 5V16.5C9.00011 17.0523 8.55239 17.5 8.00011 17.5C7.44782 17.5 7.00011 17.0523 7.00011 16.5V6.86852L5.55481 7.83205C5.09528 8.1384 4.47441 8.01423 4.16806 7.5547C3.8617 7.09517 3.98588 6.4743 4.44541 6.16795L7.44541 4.16795C7.75226 3.96338 8.14681 3.94431 8.47196 4.11833Z" fill="black"/>
<path fill-rule="evenodd" clip-rule="evenodd" d="M24.3955 16.0395C23.9437 15.9484 23.4742 16.0161 23.0666 16.2312C22.6589 16.4463 22.3381 16.7957 22.1583 17.2201C21.943 17.7287 21.3561 17.9664 20.8476 17.751C20.339 17.5356 20.1013 16.9488 20.3167 16.4402C20.6762 15.5913 21.3178 14.8926 22.1331 14.4624C22.9484 14.0321 23.8874 13.8967 24.791 14.079C25.6947 14.2613 26.5077 14.7501 27.0924 15.4628C27.6771 16.1755 27.9977 17.0683 28 17.9902L27 17.9927L28 17.9881C28 17.9888 28 17.9895 28 17.9902C28.0032 18.7893 27.7639 19.5706 27.3138 20.2309L26.4875 19.6677L25.6872 19.0681L25.6724 19.0878C25.8876 18.7651 26.0018 18.3854 26 17.9972L26 17.9951C25.9989 17.5342 25.8386 17.0878 25.5462 16.7314C25.2538 16.3751 24.8474 16.1307 24.3955 16.0395ZM22.9986 25.9927L27.2878 20.2672L26.4875 19.6677L25.6612 19.1044C25.665 19.0989 25.6687 19.0933 25.6724 19.0878L20.1997 26.3931C19.9726 26.6962 19.9363 27.1015 20.1057 27.4401C20.2751 27.7788 20.6213 27.9927 21 27.9927H27C27.5523 27.9927 28 27.5449 28 26.9927C28 26.4404 27.5523 25.9927 27 25.9927H22.9986Z" fill="black"/>
</svg>
