<svg width="32" height="32" viewBox="0 0 32 32" fill="none" xmlns="http://www.w3.org/2000/svg">
<path d="M6.42943 4.28307C12.0697 3.67243 17.8379 4.07557 23.6834 5.2435C25.4445 5.59625 26.3815 6.80569 26.9557 8.50423C28.7674 13.923 29.1303 19.4869 28.9637 25.1073C28.9131 26.8977 27.4703 28.1249 25.6914 28.368C19.8994 29.1743 13.9379 29.3669 7.54499 27.9974C5.78389 27.618 4.66834 26.4856 4.27269 24.7367C3.06491 19.4188 2.77635 13.6443 3.15713 7.5438C3.2672 5.75633 4.64156 4.46982 6.42943 4.28307Z" stroke="black" stroke-width="2" stroke-miterlimit="10"/>
<path d="M7 8L9 10M15.5 8.5L14 10.5M10.5 14L9 16M16 16L17.5 18M20.5 14L22.5 12M23 9.5L20.5 7.5M23.5 17.5L22 20M17.5 23.5L14.5 22M10.5 20.5L8 22.5M22.5 23.5L24.5 25.5" stroke="black" stroke-width="2"/>
</svg>
