<svg width="32" height="32" viewBox="0 0 32 32" fill="none" xmlns="http://www.w3.org/2000/svg">
<path d="M23.143 7.69974C20.9078 5.41408 17.7921 4 14.3443 4C7.53182 4 2 9.53182 2 16.3443C2 23.1568 7.52885 28.6797 14.3443 28.6797C17.7891 28.6797 20.9078 27.2686 23.143 24.983" stroke="black" stroke-width="2" stroke-miterlimit="10"/>
<path d="M14.5037 20.6982C16.9807 20.6982 19 18.6789 19 16.2019C19 13.7249 16.9807 11.6982 14.5037 11.6982C12.0267 11.6982 10 13.7249 10 16.2019C10 18.6789 12.0267 20.6982 14.5037 20.6982Z" stroke="black" stroke-width="2" stroke-miterlimit="10"/>
<path d="M29.834 16.3443C29.834 14.8235 29.8014 13.6792 29.5316 12.1851C29.4308 11.7404 29.0276 11.4884 28.6155 11.2957C27.4801 10.7651 27.6906 11.0852 27.1451 9.8253C26.6649 8.71657 25.4909 6.27972 24.0768 7.06829C23.3891 7.44775 22.7665 7.96654 22.1855 8.6217C21.3791 9.51995 21.471 9.43695 21.6044 10.605C21.7971 12.2681 22.0491 13.5873 22.0491 16.3443C22.0491 19.1013 21.7971 20.4116 21.6044 22.0747C21.471 23.2517 21.3762 23.1598 22.1855 24.0669C22.7665 24.7132 23.3861 25.2349 24.0768 25.6203C25.488 26.403 26.6649 23.9661 27.1451 22.8544C27.6906 21.5945 27.4801 21.9206 28.6155 21.384C29.0276 21.1913 29.4308 20.9393 29.5316 20.4946C29.8014 18.9976 29.834 17.8651 29.834 16.3443Z" stroke="black" stroke-width="2" stroke-miterlimit="10"/>
<path d="M15.5479 9.21136C14.8749 7.93364 14.1279 6.79823 13.1348 6.01855" stroke="black" stroke-width="2" stroke-miterlimit="10"/>
<path d="M10.153 10.4479C8.78335 10.018 7.43745 9.75121 6.19531 9.89351" stroke="black" stroke-width="2" stroke-miterlimit="10"/>
<path d="M7.21233 15.1348C5.93462 15.8077 4.7992 16.5548 4.01953 17.5479" stroke="black" stroke-width="2" stroke-miterlimit="10"/>
<path d="M8.44837 20.5303C8.01851 21.9088 7.7517 23.2458 7.894 24.4879" stroke="black" stroke-width="2" stroke-miterlimit="10"/>
<path d="M13.1348 23.4712C13.8077 24.7489 14.5548 25.8843 15.5479 26.664" stroke="black" stroke-width="2" stroke-miterlimit="10"/>
</svg>
