<svg width="32" height="32" viewBox="0 0 32 32" fill="none" xmlns="http://www.w3.org/2000/svg">
<path fill-rule="evenodd" clip-rule="evenodd" d="M8.60382 21.6249H6.88851C5.84988 21.6249 5 20.7561 5 19.6945V13.1707C5 12.1101 5.84877 11.2419 6.88684 11.2419H6.95068C7.28986 11.2419 7.61182 11.091 7.83332 10.8288L8.94133 9.5175C9.21944 9.18896 9.62357 9 10.0488 9H19.951C20.5372 9 21.0673 9.35805 21.2971 9.90903L22.2663 12.2344H23.2683C23.8024 12.2344 24.2348 12.677 24.2348 13.2223V14.5535H26.7794L26.7811 14.5456V13.0821C26.7811 12.614 27.1525 12.2338 27.611 12.2338H28.638C29.9425 12.2338 31 14.9428 31 18.2833C31 21.6238 29.9425 24.3344 28.638 24.3344H27.611C27.153 24.3344 26.7811 23.9548 26.7811 23.4861V22.0227L26.7794 22.0147H24.2348V24.0121C24.2348 24.558 23.8018 25 23.2683 25H13.8791C13.6659 25 13.46 24.9228 13.2968 24.7827L10.424 22.3047C9.915 21.8655 9.26996 21.6243 8.60326 21.6243L8.60382 21.6249Z" stroke="black" stroke-width="2"/>
<path fill-rule="evenodd" clip-rule="evenodd" d="M17.3714 11.0718C17.8842 11.2769 18.1336 11.8589 17.9285 12.3717L16.477 16.0003H19C19.3318 16.0003 19.642 16.1649 19.8281 16.4396C20.0141 16.7144 20.0517 17.0636 19.9285 17.3717L17.9285 22.3717C17.7234 22.8844 17.1414 23.1339 16.6286 22.9287C16.1158 22.7236 15.8664 22.1417 16.0715 21.6289L17.523 18.0003H15C14.6682 18.0003 14.358 17.8357 14.1719 17.5609C13.9859 17.2861 13.9483 16.937 14.0715 16.6289L16.0715 11.6289C16.2766 11.1161 16.8586 10.8667 17.3714 11.0718Z" fill="black"/>
<path d="M10 5H20" stroke="black" stroke-width="2" stroke-linecap="round"/>
<path d="M1 20L1 12" stroke="black" stroke-width="2" stroke-linecap="round"/>
<path d="M5 16H1" stroke="black" stroke-width="2" stroke-linecap="round"/>
<path d="M15 5L15 9" stroke="black" stroke-width="2" stroke-linecap="round"/>
</svg>
