<svg width="32" height="32" viewBox="0 0 32 32" fill="none" xmlns="http://www.w3.org/2000/svg">
<path d="M2.25938 15.0688C2.00438 17.1775 1.91407 18.9518 2.09469 21.0929C2.41345 24.5013 4.87848 28.5353 9.54822 31H18.4627C23.1324 28.5407 25.6028 24.5013 25.9162 21.0929C26.0809 18.9518 25.9906 17.1775 25.7515 15.0688C17.9208 14.9771 10.0901 14.9771 2.25938 15.0688Z" fill="#FBED20" stroke="black" stroke-width="2" stroke-miterlimit="10"/>
<path d="M25.6014 17.2213C26.4283 16.924 27.3079 16.9141 28.0823 17.2659C29.937 18.1081 30.5488 20.6795 29.4637 23.023C28.3643 25.3566 25.979 26.5754 24.1243 25.7332C24.0813 25.7183 24.043 25.6886 24 25.6787" stroke="black" stroke-width="2" stroke-miterlimit="10"/>
<path d="M14.6549 13C14.1365 12.5335 13.8694 11.6799 14.0632 10.7734C14.5554 8.43009 16.451 9.56991 16.9433 7.22664C17.1213 6.32538 16.8699 5.46653 16.3358 5" stroke="black" stroke-width="2" stroke-miterlimit="10"/>
<path d="M11.6565 9C11.1368 8.53254 10.8691 7.67729 11.0634 6.78486C11.5568 4.43692 13.4466 5.56308 13.9348 3.21514C14.129 2.32802 13.8771 1.46746 13.3416 1" stroke="black" stroke-width="2" stroke-miterlimit="10"/>
</svg>
