<svg width="32" height="32" viewBox="0 0 32 32" fill="none" xmlns="http://www.w3.org/2000/svg">
<path d="M16.551 29C23.989 29 30.0542 22.9371 30.0542 15.4968C30.0542 8.05656 23.9913 2.00049 16.551 2.00049C9.11076 2.00049 3.05469 8.06571 3.05469 15.4968C3.05469 22.9279 9.11762 29 16.551 29Z" stroke="black" stroke-width="2" stroke-miterlimit="10"/>
<path d="M16.5505 17.6773C17.7493 17.6773 18.7285 16.698 18.7285 15.4992C18.7285 14.3003 17.7493 13.3257 16.5505 13.3257C15.3516 13.3257 14.377 14.3049 14.377 15.4992C14.377 16.6935 15.3562 17.6773 16.5505 17.6773Z" stroke="black" stroke-width="2" stroke-miterlimit="10"/>
<path d="M16.3193 13.0976C14.6573 11.522 12.9954 9.9412 11.3359 8.3579C13.2998 7.17803 18.2197 5.34354 18.2274 8.3579V13.7447" stroke="black" stroke-width="2.21805" stroke-miterlimit="10"/>
<path d="M14.2112 14.9906C12.1965 16.0842 10.1768 17.1778 8.16214 18.2714C7.65214 16.0334 7.42124 10.7913 10.291 11.7199L15.4113 13.3819" stroke="black" stroke-width="2.21805" stroke-miterlimit="10"/>
<path d="M15.3653 17.5862C15.7764 19.8368 16.1925 22.095 16.6086 24.3482C14.3225 24.1477 9.26555 22.737 11.0341 20.2986L14.1981 15.9395" stroke="black" stroke-width="2.21805" stroke-miterlimit="10"/>
<path d="M18.1747 17.292C20.4481 17.5939 22.7267 17.8959 24.9925 18.1978C24.0943 20.3064 21.1941 24.6782 19.4256 22.2398L16.2539 17.8883" stroke="black" stroke-width="2.21805" stroke-miterlimit="10"/>
<path d="M18.7721 14.5237C19.7565 12.4532 20.7512 10.3802 21.7357 8.31738C23.4687 9.81949 26.7342 13.9351 23.8645 14.8688L18.7441 16.5384V16.5308" stroke="black" stroke-width="2.21805" stroke-miterlimit="10"/>
</svg>
