<svg width="32" height="32" viewBox="0 0 32 32" fill="none" xmlns="http://www.w3.org/2000/svg">
<path d="M22.12 10.12C22.61 9.41 23.1 8.7 23.54 7.94C22.66 8.56 21.85 9.24 21.04 9.92C21.26 10.74 21.47 11.56 21.71 12.38C20.94 13.06 20.2 13.76 19.46 14.46C18.57 14.42 17.68 14.39 16.79 14.37L16.4 12.11L16.35 11.81L16.21 11.67L14.89 10.36L15.62 8.03L15.73 7.69L15.5 7.51L12.25 4.85L10.6 2L11.9 5.08V5.1L11.95 5.14L14.62 7.94C14.29 8.66 13.4 10.59 13.39 10.61L13.66 10.96L14.83 12.47L14.95 15.23C14.23 16.13 13.57 17.07 12.94 18.03C12.43 18.14 11.62 18.31 11.47 18.35C10.56 19.92 9.72 21.51 9 23.19C10.17 22.08 11.22 20.89 12.25 19.66L12.5 19.64C12.81 21.4 13.21 24.06 13.46 25.74L13.54 26.26C13.78 26.23 14.82 26.1 15.38 26.03L15.74 27.4L15.78 27.57C15.78 27.57 16.91 27.81 17.24 27.88L17.56 29.74L17.51 27.74V27.65L17.41 27.61L16.22 27.17C16.17 26.71 16.02 25.39 16.01 25.24C15.86 25.24 15.04 25.22 14.47 25.21C14.47 23.87 14.44 21.41 14.42 20.43C14.42 20.14 14.39 19.37 14.38 19.1C14.38 19.05 14.37 18.99 14.36 18.94C15.09 18.06 15.83 17.18 16.58 16.31C17.81 16.35 19.04 16.37 20.27 16.36C21.22 15.28 22.19 14.22 23.1 13.11L23.43 12.7L23.26 12.33C22.91 11.58 22.52 10.84 22.13 10.1L22.12 10.12Z" fill="black"/>
</svg>
