<svg width="32" height="32" viewBox="0 0 32 32" fill="none" xmlns="http://www.w3.org/2000/svg">
<path d="M8.30658 23.827C8.04691 20.5075 8.37323 17.1241 9.1505 13.6886C9.30544 12.3072 9.24398 11.0781 8.89083 9.62048C8.5524 7.70412 9.53655 6.95801 11.2434 6.95801H20.9914C22.7018 6.95801 23.6851 7.70412 23.3466 9.62048C22.9935 11.0781 22.932 12.3072 23.0869 13.6886C23.8651 17.1241 24.1914 20.5067 23.9309 23.827" stroke="black" stroke-width="2" stroke-miterlimit="10"/>
<path d="M8.9361 9.82227C10.8914 10.352 12.4278 11.8832 12.9523 13.8238C13.0796 14.2946 13.1462 14.7906 13.1462 15.3004C13.1462 17.563 11.8141 19.5183 9.88303 20.4306C9.36802 20.6738 8.8106 20.8426 8.22461 20.924" stroke="black" stroke-width="2" stroke-miterlimit="10"/>
<path d="M16.1176 23.4985C14.2947 23.521 12.4788 23.6509 10.6853 24.1901C8.81828 23.7314 5.38805 23.1644 6.09435 26.2268C6.5756 28.3171 8.18209 28.9698 10.1677 29.4069C12.1135 29.696 13.5218 29.8068 16.1176 29.8068C18.7134 29.8068 20.1217 29.696 22.0675 29.4069C24.0522 28.9698 25.6596 28.3171 26.1408 26.2268C26.8471 23.1644 23.4178 23.7314 21.5499 24.1901C19.7564 23.65 17.9405 23.5202 16.1176 23.4985Z" stroke="black" stroke-width="2" stroke-miterlimit="10"/>
<path d="M12.9497 6.95882C12.1646 6.95882 11.5215 6.3157 11.5215 5.53064V3.42818C11.5215 2.64311 12.1646 2 12.9497 2H19.2899C20.075 2 20.7181 2.64311 20.7181 3.42818V5.53064C20.7181 6.3157 20.075 6.95882 19.2899 6.95882" stroke="black" stroke-width="2" stroke-miterlimit="10"/>
<path d="M23.296 9.82227C21.3433 10.352 19.807 11.8832 19.2824 13.8238C19.1552 14.2946 19.0859 14.7906 19.0859 15.3004C19.0859 17.563 20.4206 19.5183 22.3517 20.4306C22.8667 20.6738 23.4241 20.8426 24.0101 20.924" stroke="black" stroke-width="2" stroke-miterlimit="10"/>
</svg>
