<svg width="32" height="32" viewBox="0 0 32 32" fill="none" xmlns="http://www.w3.org/2000/svg">
<rect x="2" y="6" width="28" height="18" rx="3" stroke="black" stroke-width="2"/>
<path d="M10.125 20C11.1701 20 12 19.147 12 18.125C12 17.103 11.1701 16.25 10.125 16.25C9.07992 16.25 8.25 17.103 8.25 18.125C8.25 19.147 9.10297 20 10.125 20Z" stroke="black" stroke-width="2.025" stroke-miterlimit="10"/>
<path d="M21.875 20C22.897 20 23.75 19.147 23.75 18.125C23.75 17.103 22.897 16.25 21.875 16.25C20.853 16.25 20 17.103 20 18.125C20 19.147 20.853 20 21.875 20Z" stroke="black" stroke-width="2.025" stroke-miterlimit="10"/>
<path d="M12.0337 18.4351H20M23.5 18.5H25.5921C26.0121 18.5 26.25 17.9662 26.25 17.5983V15.6144C26.25 14.7342 25.1371 13.3447 24.3671 13.1643C23.3172 12.9768 22.2672 12.818 21.2103 12.6521C20.0203 11.7936 18.8724 10.9352 17.5985 10.5023C16.4645 10.1921 15.5336 10.0695 14.5816 10.0334C12.5587 9.95404 12.1037 9.9324 10.3328 10.9712C9.81482 11.2598 9.40184 11.5267 8.62488 12.0173C8.2049 12.3419 7.72892 12.5511 7.19694 12.6088C6.28699 12.7098 6.007 13.8108 6.30099 14.8136C6.36398 14.9795 6.41998 15.1815 6.49698 15.4052C6.33598 15.7947 6 15.9751 6 16.5883V17.5694C6 18.0816 6.49698 18.3846 6.87496 18.3846H8.63888" stroke="black" stroke-width="2.025" stroke-miterlimit="10"/>
<path fill-rule="evenodd" clip-rule="evenodd" d="M11 28C11 27.4477 11.4477 27 12 27H20C20.5523 27 21 27.4477 21 28C21 28.5523 20.5523 29 20 29H12C11.4477 29 11 28.5523 11 28Z" fill="black"/>
</svg>
