<svg width="32" height="32" viewBox="0 0 32 32" fill="none" xmlns="http://www.w3.org/2000/svg">
<path d="M9.03931 2H22.9616C24.6342 2 26 3.39491 26 5.09732V17.5825L24.1928 19.4248V28.2187C24.1928 29.1994 23.4048 30 22.4453 30H9.5573C8.5952 30 7.80723 29.1994 7.80723 28.2187V19.4248L6 17.5825V5.09821C6 3.39581 7.36927 2 9.03931 2Z" stroke="black" stroke-width="2" stroke-miterlimit="10"/>
<rect x="10" y="6" width="12" height="9" rx="1" stroke="black" stroke-width="2"/>
<path fill-rule="evenodd" clip-rule="evenodd" d="M11 19C11 18.4477 11.4477 18 12 18H20C20.5523 18 21 18.4477 21 19C21 19.5523 20.5523 20 20 20H12C11.4477 20 11 19.5523 11 19Z" fill="black"/>
<path fill-rule="evenodd" clip-rule="evenodd" d="M11 23C11 22.4477 11.4477 22 12 22H14C14.5523 22 15 22.4477 15 23C15 23.5523 14.5523 24 14 24H12C11.4477 24 11 23.5523 11 23Z" fill="black"/>
<path fill-rule="evenodd" clip-rule="evenodd" d="M11 26C11 25.4477 11.4477 25 12 25H14C14.5523 25 15 25.4477 15 26C15 26.5523 14.5523 27 14 27H12C11.4477 27 11 26.5523 11 26Z" fill="black"/>
<path fill-rule="evenodd" clip-rule="evenodd" d="M17 23C17 22.4477 17.4477 22 18 22H20C20.5523 22 21 22.4477 21 23C21 23.5523 20.5523 24 20 24H18C17.4477 24 17 23.5523 17 23Z" fill="black"/>
<path fill-rule="evenodd" clip-rule="evenodd" d="M17 26C17 25.4477 17.4477 25 18 25H20C20.5523 25 21 25.4477 21 26C21 26.5523 20.5523 27 20 27H18C17.4477 27 17 26.5523 17 26Z" fill="black"/>
</svg>
