<svg width="32" height="32" viewBox="0 0 32 32" fill="none" xmlns="http://www.w3.org/2000/svg">
<path fill-rule="evenodd" clip-rule="evenodd" d="M5 6C4.73478 6 4.48043 6.10536 4.29289 6.29289C4.10536 6.48043 4 6.73478 4 7V24C4 24.5523 3.55228 25 3 25C2.44772 25 2 24.5523 2 24V7C2 6.20435 2.31607 5.44129 2.87868 4.87868C3.44129 4.31607 4.20435 4 5 4H27C27.7957 4 28.5587 4.31607 29.1213 4.87868C29.6839 5.44129 30 6.20435 30 7V24C30 24.5523 29.5523 25 29 25C28.4477 25 28 24.5523 28 24V7C28 6.73478 27.8946 6.48043 27.7071 6.29289C27.5196 6.10536 27.2652 6 27 6H5Z" fill="black"/>
<path fill-rule="evenodd" clip-rule="evenodd" d="M0 24C0 23.4477 0.447715 23 1 23H31C31.5523 23 32 23.4477 32 24V26C32 26.7957 31.6839 27.5587 31.1213 28.1213C30.5587 28.6839 29.7957 29 29 29H3C2.20435 29 1.44129 28.6839 0.87868 28.1213C0.31607 27.5587 0 26.7956 0 26V24ZM2 25V26C2 26.2652 2.10536 26.5196 2.29289 26.7071C2.48043 26.8946 2.73478 27 3 27H29C29.2652 27 29.5196 26.8946 29.7071 26.7071C29.8946 26.5196 30 26.2652 30 26V25H2Z" fill="black"/>
<path d="M16 9C14.0674 9.0129 12.3269 9.08598 11.5845 10.2553C11.2327 10.8773 10.8855 11.4978 10.5383 12.1154H8.47391C7.60908 13.0913 7.96865 13.9153 9.22094 14.6261C8.90942 15.0202 8.601 15.4143 8.28947 15.8084V19.4884C8.28947 19.7693 8.54055 20 8.84278 20H11.2637C11.5674 20 11.817 19.7678 11.817 19.4884V17.9937H20.1862V19.4884C20.1862 19.7693 20.4327 20 20.7349 20H23.1604C23.4642 20 23.7091 19.7678 23.7091 19.4884V15.8084C23.4022 15.4143 23.0891 15.0202 22.7823 14.6261C24.0345 13.9153 24.3895 13.0913 23.5246 12.1154H21.4649C21.113 11.4978 20.7659 10.8758 20.4187 10.2553C19.6732 9.08598 17.9374 9.0129 16 9Z" stroke="black" stroke-width="2" stroke-miterlimit="10"/>
<path d="M11 12C15.0458 14.2237 17.1818 14.1441 21 12" stroke="black" stroke-width="2" stroke-linecap="round"/>
</svg>
