<svg width="32" height="32" viewBox="0 0 32 32" fill="none" xmlns="http://www.w3.org/2000/svg">
<path d="M6.5 26C7.89344 26 9 24.8627 9 23.5C9 22.1373 7.89344 21 6.5 21C5.10656 21 4 22.1373 4 23.5C4 24.8627 5.1373 26 6.5 26Z" stroke="black" stroke-width="2" stroke-miterlimit="10"/>
<path d="M23.5 26C24.8627 26 26 24.8627 26 23.5C26 22.1373 24.8627 21 23.5 21C22.1373 21 21 22.1373 21 23.5C21 24.8627 22.1373 26 23.5 26Z" stroke="black" stroke-width="2" stroke-miterlimit="10"/>
<path d="M9.04494 23.9134L21.1123 24M25.6668 24H27.1227C27.6827 24 28 23.2882 28 22.7976V20.1525C28 18.979 26.5161 18.4596 25.4895 18.2191C24.0895 17.969 22.6896 17.7574 21.2803 17.5362C19.6937 16.3915 18.1632 15.2469 16.4646 14.6698C14.9526 14.2561 13.7114 14.0926 12.4421 14.0445C9.7449 13.9387 9.13827 13.9099 6.77705 15.295C6.08642 15.6797 5.53578 16.0356 4.49983 16.6897C3.93986 17.1225 3.30522 17.4015 2.59592 17.4784C1.38265 17.6131 1.00933 17.7478 1.40131 19.0848C1.48531 19.306 1.55997 19.5753 1.66263 19.8735C1.44798 20.3929 1 20.6334 1 21.451V22.7592C1 23.4421 1.66263 23.8461 2.16661 23.8461H4.51849" stroke="black" stroke-width="2" stroke-miterlimit="10"/>
<path d="M2 20H3" stroke="black" stroke-width="2" stroke-miterlimit="10"/>
<path d="M27.7524 16H29.1549C29.6943 16 30 15.2882 30 14.7688V12.1526C30 10.9502 28.5436 10.4597 27.5816 10.1904C26.2331 9.96914 24.8845 9.75754 23.527 9.50745C21.9986 8.3917 20.5242 7.24708 18.861 6.66997C17.4046 6.25637 16.2358 6.09285 15.0131 6.04476C12.388 5.93896 11.8306 5.9101 9.53804 7.27594C8.89972 7.68954 8.36929 8.03581 7.37137 8.68987C6.83195 9.12271 6.20263 9.40165 5.51037 9.4786C4.35961 9.5844 4.00899 9.74792 4.38658 11.0849C4.4675 11.3061 4.53942 11.5754 4.63831 11.8448C4.43154 12.393 4 12.6335 4 13.4511V14.1051" stroke="black" stroke-width="2" stroke-miterlimit="10"/>
</svg>
