<svg width="32" height="32" viewBox="0 0 32 32" fill="none" xmlns="http://www.w3.org/2000/svg">
<path fill-rule="evenodd" clip-rule="evenodd" d="M12.5459 3.14251C12.2984 2.99402 11.9988 2.9597 11.7242 3.04836C9.82177 3.66247 8.07294 4.67689 6.59534 6.02336C6.38306 6.2168 6.26419 6.49218 6.26903 6.77934L6.32623 10.1771C6.129 10.48 5.94801 10.7931 5.78403 11.1152L2.80938 12.7627C2.55776 12.9021 2.37833 13.143 2.31693 13.424C1.88986 15.3786 1.89446 17.4028 2.33041 19.3554C2.39262 19.634 2.57095 19.8728 2.82045 20.0115L5.78415 21.6593C5.94913 21.9834 6.13006 22.2992 6.32629 22.6055L6.26903 25.9956C6.26418 26.2828 6.38303 26.5582 6.59531 26.7516C8.07603 28.101 9.83234 29.1125 11.7426 29.716C12.0154 29.8022 12.3119 29.7675 12.5574 29.6206L15.0462 28.1312C14.5363 27.6802 14.0779 27.1723 13.681 26.6174L11.9258 27.6678C10.5935 27.1914 9.35744 26.4796 8.27656 25.5666L8.33124 22.3294C8.33474 22.1224 8.27389 21.9194 8.15709 21.7484C7.88849 21.3552 7.65146 20.9414 7.44825 20.5107C7.35898 20.3216 7.21263 20.1652 7.02981 20.0635L4.19426 18.487C3.93872 17.0992 3.93527 15.6766 4.18406 14.2876L7.02838 12.7123C7.2126 12.6103 7.3599 12.4527 7.4493 12.262C7.64815 11.8379 7.88298 11.4316 8.1512 11.0476C8.27178 10.875 8.33479 10.6687 8.33124 10.4582L8.27653 7.20834C9.3558 6.29568 10.5879 5.58085 11.9158 5.09686L14.7044 6.77C14.8806 6.87575 15.0852 6.92462 15.2902 6.90995C15.7671 6.87585 16.2457 6.87585 16.7225 6.90995C16.9272 6.92459 17.1313 6.87594 17.3074 6.77059L20.087 5.10721C21.4193 5.58365 22.6553 6.29538 23.7362 7.20847L23.6815 10.4582C23.678 10.6687 23.741 10.875 23.8616 11.0476C24.1298 11.4316 24.3646 11.8379 24.5635 12.262C24.6526 12.4522 24.7994 12.6094 24.983 12.7115L27.8185 14.288C27.9053 14.7596 27.9631 15.2351 27.9917 15.712C28.8047 16.7115 29.4075 17.8888 29.7328 19.1765C30.1223 17.2762 30.1054 15.3142 29.6824 13.4196C29.6201 13.141 29.4418 12.9022 29.1923 12.7635L26.2292 11.116C26.0651 10.7937 25.8839 10.4803 25.6865 10.1771L25.7437 6.77934C25.7486 6.49219 25.6297 6.21683 25.4175 6.02338C23.9367 4.67397 22.1804 3.66248 20.2701 3.05896C19.9974 2.97279 19.7008 3.00754 19.4554 3.15441L16.5444 4.8964C16.1861 4.88037 15.8273 4.88036 15.469 4.89638L12.5459 3.14251Z" fill="black"/>
<path fill-rule="evenodd" clip-rule="evenodd" d="M11.0059 16.3877C11.0059 13.6263 13.2444 11.3877 16.0059 11.3877C17.2331 11.3877 18.357 11.8298 19.2271 12.5634C19.8021 12.4482 20.3969 12.3877 21.0059 12.3877C21.2644 12.3877 21.5205 12.3986 21.7736 12.42C20.5111 10.5883 18.3987 9.3877 16.0059 9.3877C12.1399 9.3877 9.00586 12.5217 9.00586 16.3877C9.00586 18.7805 10.2065 20.8929 12.0381 22.1554C12.0168 21.9023 12.0059 21.6463 12.0059 21.3877C12.0059 20.7787 12.0663 20.1839 12.1816 19.6089C11.448 18.7388 11.0059 17.6149 11.0059 16.3877Z" fill="black"/>
<path fill-rule="evenodd" clip-rule="evenodd" d="M21.7828 14.4595C22.2955 14.6646 22.545 15.2466 22.3399 15.7594L20.4829 20.5167H24.0059C24.3377 20.5167 24.6479 20.6813 24.8339 20.956C25.02 21.2308 25.0576 21.58 24.9343 21.8881L22.5288 28.0164C22.3237 28.5292 21.7417 28.7786 21.229 28.5735C20.7162 28.3684 20.4668 27.7864 20.6719 27.2736L22.5288 22.5167H19.0059C18.674 22.5167 18.3638 22.3521 18.1778 22.0773C17.9918 21.8025 17.9542 21.4534 18.0774 21.1453L20.4829 15.0166C20.688 14.5038 21.27 14.2544 21.7828 14.4595Z" fill="black"/>
</svg>
