<svg width="32" height="32" viewBox="0 0 32 32" fill="none" xmlns="http://www.w3.org/2000/svg">
<path fill-rule="evenodd" clip-rule="evenodd" d="M16 12C16.5523 12 17 12.4477 17 13V18C17 18.5523 16.5523 19 16 19C15.4477 19 15 18.5523 15 18V13C15 12.4477 15.4477 12 16 12Z" fill="black"/>
<path fill-rule="evenodd" clip-rule="evenodd" d="M14.5021 3.40261C14.9574 3.13857 15.4744 2.99951 16.0008 2.99951C16.5271 2.99951 17.0441 3.13857 17.4994 3.40261C17.954 3.66621 18.331 4.04502 18.5924 4.50081C18.5928 4.50159 18.5933 4.50236 18.5937 4.50313L29.5918 23.4998C29.8547 23.9551 29.9933 24.4715 29.9937 24.9972C29.9942 25.5229 29.8565 26.0395 29.5944 26.4953C29.3324 26.951 28.9552 27.3299 28.5006 27.5939C28.046 27.858 27.53 27.998 27.0043 27.9998L27.0008 27.9998H5.00077L4.99725 27.9998C4.47153 27.998 3.95554 27.858 3.50095 27.5939C3.04636 27.3299 2.66915 26.951 2.40709 26.4953C2.14504 26.0395 2.00735 25.5229 2.00781 24.9972C2.00828 24.4715 2.14689 23.9551 2.40975 23.4998L13.4078 4.50313C13.4083 4.50236 13.4087 4.50159 13.4092 4.50081C13.6706 4.04502 14.0475 3.66621 14.5021 3.40261ZM14.2758 4.99983L15.1412 5.50086L4.14179 24.4998C4.14172 24.5 4.14186 24.4997 4.14179 24.4998C4.05431 24.6515 4.00797 24.8239 4.00781 24.999C4.00766 25.1742 4.05355 25.3464 4.14091 25.4983C4.22826 25.6502 4.354 25.7765 4.50553 25.8645C4.65666 25.9523 4.82816 25.999 5.00293 25.9998H26.9986C27.1734 25.999 27.3449 25.9523 27.496 25.8645C27.6475 25.7765 27.7733 25.6502 27.8606 25.4983C27.948 25.3464 27.9939 25.1742 27.9937 24.999C27.9936 24.8239 27.9475 24.652 27.8601 24.5004C27.86 24.5002 27.8602 24.5006 27.8601 24.5004L16.8578 5.49653C16.7714 5.34553 16.6467 5.22003 16.4961 5.13275C16.3456 5.04548 16.1747 4.99951 16.0008 4.99951C15.8268 4.99951 15.6559 5.04548 15.5054 5.13275C15.3549 5.22003 15.2301 5.34552 15.1437 5.49652L14.2758 4.99983Z" fill="black"/>
<path d="M16 24C16.8284 24 17.5 23.3284 17.5 22.5C17.5 21.6716 16.8284 21 16 21C15.1716 21 14.5 21.6716 14.5 22.5C14.5 23.3284 15.1716 24 16 24Z" fill="black"/>
</svg>
