<svg width="32" height="32" viewBox="0 0 32 32" fill="none" xmlns="http://www.w3.org/2000/svg">
<path d="M6.26953 6.52441H19.0442C25.0677 6.52441 29.9478 11.4083 29.9478 17.428C29.9478 23.4476 25.0697 28.3257 19.0442 28.3257C13.0188 28.3257 8.14647 23.4457 8.14647 17.428C8.14647 16.8774 8.18497 16.3422 8.26582 15.8128H6.26953" stroke="black" stroke-width="2" stroke-miterlimit="10"/>
<path d="M19.0429 24.9416C23.1837 24.9416 26.5564 21.5631 26.5564 17.4281C26.5564 13.293 23.1837 9.91455 19.0429 9.91455C14.9021 9.91455 11.5352 13.293 11.5352 17.4281C11.5352 21.5631 14.9079 24.9416 19.0429 24.9416Z" stroke="black" stroke-width="2" stroke-miterlimit="10"/>
<path d="M4.96923 5.2251H2.05469V17.1162H4.96923C5.68343 17.1162 6.26864 16.5271 6.26864 15.8129V6.52451C6.26864 5.81032 5.68535 5.2251 4.96923 5.2251Z" stroke="black" stroke-width="2" stroke-miterlimit="10"/>
<path d="M19.0445 19.4745C20.1745 19.4745 21.0908 18.5524 21.0908 17.4282C21.0908 16.3039 20.1745 15.3818 19.0445 15.3818C17.9145 15.3818 17.0039 16.2982 17.0039 17.4282C17.0039 18.5582 17.9202 19.4745 19.0445 19.4745Z" stroke="black" stroke-width="2" stroke-miterlimit="10"/>
<path d="M16.625 10.311C18.448 11.5277 19.1468 13.2679 19.0429 15.3797" stroke="black" stroke-width="2" stroke-miterlimit="10"/>
<path d="M11.5273 17.5299C13.2522 16.1708 15.1176 16.0399 17.0985 16.7926" stroke="black" stroke-width="2" stroke-miterlimit="10"/>
<path d="M16.8205 24.6026C16.0621 22.5505 16.5145 20.7274 17.8408 19.0796" stroke="black" stroke-width="2" stroke-miterlimit="10"/>
<path d="M25.1839 21.7593C22.9951 21.8459 21.407 20.8526 20.25 19.0796" stroke="black" stroke-width="2" stroke-miterlimit="10"/>
<path d="M25.0617 12.9253C24.4669 15.0371 23.0327 16.2383 20.9902 16.7947" stroke="black" stroke-width="2" stroke-miterlimit="10"/>
<path d="M7.97656 9H11.4898" stroke="black" stroke-width="2" stroke-miterlimit="10"/>
<path d="M7.97656 12H11.4898" stroke="black" stroke-width="2" stroke-miterlimit="10"/>
</svg>
