<svg width="32" height="32" viewBox="0 0 32 32" fill="none" xmlns="http://www.w3.org/2000/svg">
<path fill-rule="evenodd" clip-rule="evenodd" d="M27 9H5L5 28H27V9ZM3 7V28C3 29.1046 3.89543 30 5 30H27C28.1046 30 29 29.1046 29 28V7H3Z" fill="black"/>
<path fill-rule="evenodd" clip-rule="evenodd" d="M23 14H9V28H23V14ZM7 12V30H25V12H7Z" fill="black"/>
<path fill-rule="evenodd" clip-rule="evenodd" d="M24 18H8V16H24V18Z" fill="black"/>
<path fill-rule="evenodd" clip-rule="evenodd" d="M24 22H8V20H24V22Z" fill="black"/>
<path fill-rule="evenodd" clip-rule="evenodd" d="M24 26H8V24H24V26Z" fill="black"/>
<path fill-rule="evenodd" clip-rule="evenodd" d="M5.31879 4L4.03308 7H27.9669L26.6812 4H5.31879ZM28 2H4L1 9H31L28 2Z" fill="black"/>
</svg>
