<svg width="32" height="32" viewBox="0 0 32 32" fill="none" xmlns="http://www.w3.org/2000/svg">
<path d="M9.64197 13.8161C9.64197 11.7221 7.92473 10 5.83077 10C3.72213 10 2 11.7221 2 13.8161V17.8523C2 19.961 3.71724 21.6782 5.82588 21.6782C7.91984 21.6782 9.64197 19.961 9.64197 17.8523V16.7858H5.15072" stroke="black" stroke-width="2" stroke-miterlimit="10"/>
<path d="M20.3969 21.6784L17.163 10.9053C16.9135 10.0687 15.7295 10.0687 15.4751 10.9053L12.2266 21.6833" stroke="black" stroke-width="2" stroke-miterlimit="10" stroke-linecap="round"/>
<path d="M13.6836 16.7808H18.9234" stroke="black" stroke-width="2" stroke-miterlimit="10"/>
<path d="M29.8405 12.9159C29.8405 11.3063 28.2065 10.0049 26.181 10.0049C24.1555 10.0049 22.5312 11.3063 22.5312 12.9159C22.5312 17.3533 29.8405 14.3004 29.8405 18.7428C29.8405 20.3524 28.2065 21.6538 26.181 21.6538C24.1555 21.6538 22.5312 20.3524 22.5312 18.7428" stroke="black" stroke-width="2" stroke-miterlimit="10"/>
</svg>
