<svg width="32" height="32" viewBox="0 0 32 32" fill="none" xmlns="http://www.w3.org/2000/svg">
<path fill-rule="evenodd" clip-rule="evenodd" d="M16 11C13.2386 11 11 13.2386 11 16C11 18.7614 13.2386 21 16 21C18.7614 21 21 18.7614 21 16C21 13.2386 18.7614 11 16 11ZM9 16C9 12.134 12.134 9 16 9C19.866 9 23 12.134 23 16C23 19.866 19.866 23 16 23C12.134 23 9 19.866 9 16Z" fill="black"/>
<path fill-rule="evenodd" clip-rule="evenodd" d="M11.7183 2.66066C11.993 2.572 12.2925 2.60633 12.54 2.75481L15.4631 4.50868C15.8214 4.49267 16.1803 4.49268 16.5386 4.50871L19.4495 2.76672C19.695 2.61984 19.9915 2.5851 20.2643 2.67126C22.1746 3.27479 23.9309 4.28627 25.4116 5.63569C25.6239 5.82913 25.7427 6.10449 25.7379 6.39164L25.6807 9.78943C25.8781 10.0926 26.0592 10.406 26.2233 10.7283L29.1865 12.3758C29.436 12.5145 29.6143 12.7533 29.6765 13.0319C30.1125 14.9845 30.1171 17.0087 29.69 18.9633C29.6286 19.2443 29.4491 19.4852 29.1975 19.6246L26.2229 21.2721C26.0589 21.5942 25.8779 21.9073 25.6807 22.2102L25.7379 25.608C25.7427 25.8951 25.6239 26.1705 25.4116 26.364C23.934 27.7104 22.1851 28.7248 20.2827 29.339C20.0081 29.4276 19.7085 29.3933 19.461 29.2448L16.5379 27.4909C16.1796 27.5069 15.8208 27.5069 15.4625 27.4909L12.5515 29.2329C12.3061 29.3798 12.0095 29.4145 11.7368 29.3284C9.82648 28.7248 8.07017 27.7133 6.58945 26.3639C6.37717 26.1705 6.25832 25.8951 6.26317 25.6079L6.32043 22.2178C6.1242 21.9116 5.94327 21.5958 5.77829 21.2716L2.8146 19.6238C2.56509 19.4851 2.38676 19.2463 2.32455 18.9677C1.8886 17.0151 1.884 14.9909 2.31107 13.0363C2.37248 12.7553 2.5519 12.5144 2.80352 12.375L5.77817 10.7275C5.94215 10.4054 6.12314 10.0923 6.32037 9.78943L6.26317 6.39164C6.25833 6.10448 6.3772 5.82911 6.58948 5.63566C8.06708 4.28919 9.81591 3.27478 11.7183 2.66066ZM8.27067 6.82064L8.32538 10.0705C8.32893 10.281 8.26592 10.4873 8.14534 10.6599C7.87712 11.0439 7.64229 11.4502 7.44344 11.8743C7.35404 12.065 7.20674 12.2226 7.02252 12.3246L4.1782 13.8999C3.92941 15.2889 3.93286 16.7115 4.1884 18.0993L7.02395 19.6758C7.20677 19.7775 7.35312 19.9339 7.44239 20.123C7.6456 20.5537 7.88263 20.9675 8.15124 21.3607C8.26803 21.5317 8.32888 21.7347 8.32538 21.9417L8.2707 25.1789C9.35158 26.0919 10.5876 26.8037 11.9199 27.2801L14.6995 25.6167C14.8756 25.5114 15.0797 25.4627 15.2844 25.4774C15.7612 25.5115 16.2399 25.5115 16.7167 25.4774C16.9217 25.4627 17.1263 25.5116 17.3025 25.6173L20.0911 27.2904C21.419 26.8065 22.6511 26.0916 23.7304 25.179L23.6757 21.9291C23.6721 21.7186 23.7351 21.5123 23.8557 21.3397C24.1239 20.9557 24.3588 20.5494 24.5576 20.1253C24.647 19.9346 24.7943 19.777 24.9785 19.675L27.8229 18.0997C28.0716 16.7107 28.0682 15.2881 27.8126 13.9003L24.9771 12.3238C24.7935 12.2217 24.6468 12.0645 24.5576 11.8743C24.3588 11.4502 24.1239 11.0439 23.8557 10.6599C23.7351 10.4873 23.6721 10.281 23.6757 10.0705L23.7304 6.82078C22.6495 5.90768 21.4134 5.19596 20.0811 4.71952L17.3015 6.3829C17.1255 6.48824 16.9213 6.5369 16.7167 6.52226C16.2399 6.48815 15.7612 6.48815 15.2844 6.52226C15.0793 6.53692 14.8748 6.48805 14.6985 6.3823L11.91 4.70917C10.582 5.19316 9.34994 5.90799 8.27067 6.82064Z" fill="black"/>
</svg>
