<svg width="32" height="32" viewBox="0 0 32 32" fill="none" xmlns="http://www.w3.org/2000/svg">
<path fill-rule="evenodd" clip-rule="evenodd" d="M22.419 29C24.1746 29 25.6708 27.8755 26.3791 26.2218C26.4888 26.0013 26.5786 25.7477 26.6384 25.5052L29.6608 16.8178C29.8903 16.3437 30 15.8476 30 15.2853C30 13.4773 28.6733 12 27.0274 12C26.7182 12 26.4289 12.0661 26.1496 12.1543L17.1902 15.2853L5.39152 19.4086C3.46633 19.9047 2 21.8119 2 24.1271C2 26.8171 3.97506 29 6.40898 29H22.419Z" stroke="black" stroke-width="2"/>
<circle cx="20.5" cy="21.5" r="3.5" stroke="black" stroke-width="2"/>
<circle cx="9" cy="24" r="2" stroke="black" stroke-width="2"/>
<path d="M8.45542 3.37504L9.68331 7.67641L13.6538 8.98721C14.1109 9.14257 14.1199 9.84166 13.6538 9.99702L9.68331 11.3272L8.45542 15.6286C8.31201 16.1238 7.65773 16.1238 7.52329 15.6286L6.31332 11.3272L2.34282 9.99702C1.88573 9.84166 1.88573 9.13286 2.34282 8.98721L6.31332 7.67641L7.52329 3.37504C7.66669 2.87985 8.31201 2.87014 8.45542 3.37504Z" stroke="black" stroke-width="2" stroke-miterlimit="10"/>
</svg>
