<svg width="16" height="16" viewBox="0 0 16 16" fill="none" xmlns="http://www.w3.org/2000/svg">
<path fill-rule="evenodd" clip-rule="evenodd" d="M15.5874 2.763C15.7843 3.26945 15.9218 3.85391 15.9593 4.70406C15.9968 5.55738 16 5.82928 16 8.00159C16 10.1739 15.9906 10.4458 15.9531 11.2991C15.9156 12.1493 15.778 12.7307 15.5811 13.2402C15.1653 14.3153 14.315 15.1655 13.2395 15.5812C12.7331 15.7782 12.1485 15.9156 11.2982 15.9531C10.4447 15.9907 10.1728 16 8.00006 16C5.82734 16 5.55526 15.9907 4.7019 15.9531C3.85147 15.9156 3.27007 15.7782 2.76047 15.5812C2.22902 15.3812 1.74445 15.0655 1.34427 14.6592C0.937865 14.2591 0.62219 13.7778 0.418986 13.2402C0.22201 12.7337 0.0843834 12.1493 0.0468932 11.2991C0.00940306 10.4458 0 10.1739 0 8.00159C0 5.82928 0.00940306 5.55738 0.0500683 4.70088C0.0875585 3.85074 0.225063 3.26945 0.422039 2.75995C0.62219 2.22859 0.937865 1.74412 1.34427 1.34402C1.74445 0.934512 2.22584 0.62195 2.76365 0.418784C3.27007 0.221968 3.85465 0.0843673 4.70496 0.0468843C5.55844 0.00940127 5.83039 0 8.00311 0C10.1758 0 10.4478 0.00940127 11.3044 0.0500587C12.1548 0.0875418 12.7363 0.22502 13.2458 0.421959C13.7772 0.62195 14.2618 0.937686 14.662 1.34402C15.0715 1.74412 15.3842 2.22542 15.5874 2.763ZM14.2431 12.7213C14.3526 12.44 14.4838 12.0181 14.5183 11.2367C14.5558 10.3927 14.5652 10.1427 14.5652 8.00786C14.5652 5.87304 14.5558 5.61994 14.5183 4.77602C14.4838 3.99767 14.3526 3.57266 14.2431 3.29135C14.1149 2.94436 13.9117 2.63179 13.646 2.37234C13.3897 2.10667 13.0739 1.9035 12.7269 1.77542C12.4456 1.66603 12.0235 1.53478 11.242 1.50034C10.4009 1.46286 10.1478 1.45346 8.00939 1.45346C5.87428 1.45346 5.62101 1.46286 4.77693 1.50034C3.99855 1.53478 3.57334 1.66603 3.29198 1.77542C2.94492 1.9035 2.6323 2.10667 2.37292 2.37234C2.10401 2.62874 1.90081 2.94436 1.77259 3.29135C1.66317 3.57266 1.53189 3.99461 1.49758 4.77602C1.45996 5.61676 1.45068 5.87304 1.45068 8.00786C1.45068 10.1427 1.45996 10.3959 1.49758 11.2398C1.53189 12.0181 1.66317 12.4432 1.77259 12.7245C1.90081 13.0714 2.10401 13.3839 2.36974 13.6434C2.62607 13.9091 2.94186 14.1122 3.2888 14.2404C3.57016 14.3498 3.9922 14.4811 4.77375 14.5154C5.61478 14.553 5.8711 14.5623 8.00633 14.5623C10.1416 14.5623 10.3947 14.553 11.2388 14.5154C12.0173 14.4811 12.4424 14.3498 12.7237 14.2404C13.4209 13.9716 13.9742 13.4184 14.2431 12.7213ZM3.89209 8.00164C3.89209 5.73239 5.7335 3.89145 8.00306 3.89145C10.2727 3.89145 12.114 5.73239 12.114 8.00164C12.114 10.2709 10.2727 12.1118 8.00306 12.1118C5.7335 12.1118 3.89209 10.2709 3.89209 8.00164ZM5.33643 8.00167C5.33643 9.47389 6.53074 10.6679 8.00311 10.6679C9.47561 10.6679 10.6698 9.47389 10.6698 8.00167C10.6698 6.52946 9.47561 5.33549 8.00311 5.33549C6.53074 5.33549 5.33643 6.52946 5.33643 8.00167ZM12.2766 4.68848C12.8067 4.68848 13.2365 4.25883 13.2365 3.72893C13.2365 3.19892 12.8067 2.76939 12.2766 2.76939C11.7466 2.76939 11.3169 3.19892 11.3169 3.72893C11.3169 4.25883 11.7466 4.68848 12.2766 4.68848Z" fill="url(#paint0_linear_132_11110)"/>
<defs>
<linearGradient id="paint0_linear_132_11110" x1="16" y1="0" x2="9.53674e-07" y2="16" gradientUnits="userSpaceOnUse">
<stop stop-color="#C8219C"/>
<stop offset="0.495" stop-color="#FF1658"/>
<stop offset="1" stop-color="#FDBE30"/>
</linearGradient>
</defs>
</svg>
