<svg width="32" height="32" viewBox="0 0 32 32" fill="none" xmlns="http://www.w3.org/2000/svg">
<path d="M26.4844 5.48444C23.311 2.41878 20.8334 0.950827 19.2436 2.28714C16.0816 5.14542 13.2501 8.61689 10.7078 12.6422C9.23033 15.1837 9.96611 17.068 12.4335 19.5354C14.9009 22.0028 16.7836 22.7369 19.3267 21.261C23.352 18.7187 26.8202 15.8856 29.6793 12.7228C31.0156 11.1331 29.5477 8.65549 26.4844 5.48444Z" stroke="black" stroke-width="2" stroke-miterlimit="10"/>
<path d="M18.668 7.5415C16.7616 9.646 15.0649 11.9454 13.5503 14.3403C13.4366 14.537 13.2531 14.904 13.2688 15.1092C13.3136 15.6589 14.4278 16.8237 14.7867 17.1827C15.1457 17.5417 16.3089 18.6542 16.8602 18.7007C17.0654 18.7164 17.4317 18.5304 17.6291 18.4191C20.0224 16.9045 22.321 15.2054 24.4279 13.3015L18.668 7.5415Z" stroke="black" stroke-width="2" stroke-miterlimit="10"/>
<path d="M10.7998 17.7685L10.7266 17.6953L1.701 26.7209L2.12903 29.8397L5.2446 30.2645L14.2702 21.2389L14.1969 21.1657" stroke="black" stroke-width="2" stroke-miterlimit="10"/>
<path d="M22 6L26 10" stroke="black" stroke-width="2" stroke-linecap="round"/>
<path d="M16 11L21 16" stroke="black" stroke-width="2"/>
</svg>
