<svg width="32" height="32" viewBox="0 0 32 32" fill="none" xmlns="http://www.w3.org/2000/svg">
<path fill-rule="evenodd" clip-rule="evenodd" d="M21.2381 5.10692C20.3302 4.9407 19.393 4.95508 18.4814 5.15523C17.0577 5.46778 15.7674 6.21772 14.7912 7.30005C13.8149 8.38237 13.2015 9.74289 13.0369 11.1911C12.8723 12.6394 13.1648 14.1029 13.8733 15.3766C14.1037 15.7909 14.0116 16.31 13.6527 16.6198L5.55831 23.6059C5.19675 23.9795 4.99414 24.4794 4.99414 25.0002C4.99414 25.532 5.2054 26.0421 5.58145 26.4181C5.9575 26.7942 6.46753 27.0054 6.99934 27.0054C7.52015 27.0054 8.02006 26.8028 8.39371 26.4413L15.3798 18.3468L15.9995 18L16.6229 18.1263C17.8967 18.8348 19.3602 19.1272 20.8084 18.9626C22.2567 18.798 23.6172 18.1847 24.6995 17.2084C25.7818 16.2322 26.5318 14.9419 26.8443 13.5182C27.0445 12.6065 27.0589 11.6694 26.8926 10.7614L22.8323 14.8315C22.5955 15.0688 22.2556 15.1717 21.9269 15.1055L18.3894 14.393C17.9946 14.3135 17.686 14.005 17.6065 13.6102L16.894 10.0727C16.8278 9.74402 16.9307 9.40406 17.1681 9.16728L21.2381 5.10692ZM16.3872 20.2407L9.88138 27.7786C9.8654 27.7971 9.84874 27.815 9.83145 27.8323C9.08033 28.5835 8.06159 29.0054 6.99934 29.0054C5.9371 29.0054 4.91836 28.5835 4.16724 27.8323C3.41612 27.0812 2.99414 26.0625 2.99414 25.0002C2.99414 23.938 3.41612 22.9192 4.16724 22.1681C4.18453 22.1508 4.20245 22.1342 4.22097 22.1182L11.7589 15.6124C11.1164 14.1582 10.8691 12.5546 11.0497 10.9653C11.2614 9.10253 12.0504 7.35259 13.306 5.96047C14.5617 4.56836 16.2213 3.60377 18.0525 3.20175C19.8836 2.79973 21.7947 2.98041 23.518 3.71848C23.8233 3.84922 24.0437 4.12296 24.1064 4.44908C24.169 4.7752 24.0657 5.11114 23.8306 5.34567L18.9607 10.204L19.4359 12.5637L21.7955 13.0389L26.6539 8.16896C26.8884 7.93387 27.2244 7.83053 27.5505 7.89318C27.8766 7.95582 28.1504 8.17627 28.2811 8.48153C29.0192 10.2049 29.1998 12.1159 28.7978 13.9471C28.3958 15.7782 27.4312 17.4378 26.0391 18.6935C24.647 19.9492 22.897 20.7381 21.0343 20.9498C19.4449 21.1305 17.8413 20.8832 16.3872 20.2407Z" fill="black"/>
</svg>
