<svg width="32" height="32" viewBox="0 0 32 32" fill="none" xmlns="http://www.w3.org/2000/svg">
<path fill-rule="evenodd" clip-rule="evenodd" d="M14.8581 2.29361C15.1933 2.0605 15.5918 1.93555 16.0001 1.93555C16.4083 1.93555 16.8068 2.0605 17.142 2.29361C17.4772 2.52672 17.733 2.85682 17.8751 3.23958L17.8774 3.24581L20.7759 11.2168C20.7758 11.2167 20.7759 11.2169 20.7759 11.2168C20.7765 11.2184 20.7776 11.2202 20.7788 11.2213C20.7797 11.2222 20.7807 11.223 20.7818 11.2236C20.7822 11.2238 20.7825 11.2239 20.7829 11.2241C20.7828 11.224 20.783 11.2241 20.7829 11.2241L28.7606 14.125C29.1433 14.2671 29.4734 14.5229 29.7065 14.8581C29.9396 15.1933 30.0646 15.5918 30.0646 16.0001C30.0646 16.4083 29.9396 16.8068 29.7065 17.142C29.4734 17.4772 29.1433 17.733 28.7605 17.8751L28.7543 17.8774L20.7833 20.7759C20.7832 20.7759 20.7834 20.7758 20.7833 20.7759C20.7818 20.7765 20.78 20.7776 20.7788 20.7788C20.7776 20.78 20.7767 20.7814 20.776 20.7829C20.776 20.783 20.7761 20.7828 20.776 20.7829L17.8751 28.7606C17.733 29.1433 17.4772 29.4734 17.142 29.7065C16.8068 29.9396 16.4083 30.0646 16.0001 30.0646C15.5918 30.0646 15.1933 29.9396 14.8581 29.7065C14.5229 29.4734 14.2671 29.1433 14.1251 28.7605L14.1227 28.7543L11.2242 20.7833C11.2242 20.7832 11.2243 20.7834 11.2242 20.7833C11.2238 20.7824 11.2232 20.7811 11.2226 20.7803C11.2222 20.7797 11.2218 20.7792 11.2213 20.7788C11.2202 20.7776 11.2187 20.7767 11.2172 20.776C11.2171 20.776 11.2173 20.7761 11.2172 20.776L3.23957 17.8751C2.85681 17.733 2.52672 17.4772 2.29361 17.142C2.0605 16.8068 1.93555 16.4083 1.93555 16.0001C1.93555 15.5918 2.0605 15.1933 2.29361 14.8581C2.52672 14.5229 2.85682 14.2671 3.23958 14.1251L3.24581 14.1227L11.2168 11.2242C11.2167 11.2243 11.217 11.2242 11.2168 11.2242C11.2184 11.2236 11.2202 11.2225 11.2213 11.2213C11.2225 11.2202 11.2234 11.2188 11.2241 11.2172C11.224 11.2174 11.2241 11.2171 11.2241 11.2172L14.125 3.23957C14.2671 2.85681 14.5229 2.52672 14.8581 2.29361ZM19.8376 20.4376L18.8992 20.0918C18.9999 19.8186 19.1587 19.5705 19.3646 19.3646C19.5705 19.1587 19.8186 18.9999 20.0918 18.8992L20.0958 18.8978L28.0646 16.0001L20.0958 13.1024L20.0918 13.1009C19.8186 13.0002 19.5705 12.8415 19.3646 12.6356C19.1587 12.4297 18.9999 12.1815 18.8992 11.9083L18.8978 11.9043L16.0001 3.93561L13.1024 11.9043L13.1009 11.9083C13.0002 12.1815 12.8415 12.4297 12.6356 12.6356C12.4297 12.8415 12.1815 13.0002 11.9083 13.1009L11.9043 13.1024L3.93561 16.0001L11.9083 18.8992C12.1815 18.9999 12.4297 19.1587 12.6356 19.3646C12.8415 19.5705 13.0002 19.8186 13.1009 20.0918L13.1024 20.0958L16.0001 28.0646L18.8978 20.0958L19.8376 20.4376Z" fill="black"/>
</svg>
