<svg width="32" height="32" viewBox="0 0 32 32" fill="none" xmlns="http://www.w3.org/2000/svg">
<path d="M16.0007 18.6668C17.4734 18.6668 18.6673 17.4729 18.6673 16.0002C18.6673 14.5274 17.4734 13.3335 16.0007 13.3335C14.5279 13.3335 13.334 14.5274 13.334 16.0002C13.334 17.4729 14.5279 18.6668 16.0007 18.6668Z" stroke="black" stroke-width="2" stroke-linecap="round" stroke-linejoin="round"/>
<path d="M21.6537 10.3466C22.3976 11.0896 22.9876 11.9719 23.3902 12.9431C23.7928 13.9142 24 14.9553 24 16.0066C24 17.0579 23.7928 18.0989 23.3902 19.0701C22.9876 20.0413 22.3976 20.9236 21.6537 21.6666M10.3471 21.6532C9.60326 20.9103 9.01319 20.028 8.6106 19.0568C8.208 18.0856 8.00078 17.0446 8.00078 15.9932C8.00078 14.9419 8.208 13.9009 8.6106 12.9297C9.01319 11.9585 9.60326 11.0762 10.3471 10.3332M25.4271 6.57324C27.9267 9.07361 29.3309 12.4644 29.3309 15.9999C29.3309 19.5354 27.9267 22.9262 25.4271 25.4266M6.57374 25.4266C4.07413 22.9262 2.66992 19.5354 2.66992 15.9999C2.66992 12.4644 4.07413 9.07361 6.57374 6.57324" stroke="black" stroke-width="2" stroke-linecap="round" stroke-linejoin="round"/>
</svg>
