<svg width="32" height="32" viewBox="0 0 32 32" fill="none" xmlns="http://www.w3.org/2000/svg">
<path d="M17.5949 3.77711L17.9079 4.1747C18.4616 4.88554 19.4245 5.13855 20.2551 4.8012L20.7366 4.60843C21.9523 4.12651 23.3125 4.90964 23.4931 6.1988L23.5653 6.70482C23.6977 7.59639 24.3958 8.29518 25.2866 8.42771L25.7921 8.5C27.0921 8.69277 27.8745 10.0422 27.381 11.2711L27.2005 11.741C26.8634 12.5723 27.1282 13.5361 27.8264 14.0904L28.2236 14.4036C29.2588 15.2229 29.2588 16.7771 28.2236 17.5964L27.8144 17.9096C27.1042 18.4639 26.8514 19.4277 27.1884 20.259L27.381 20.741C27.8625 21.9578 27.0801 23.3193 25.7921 23.5L25.2866 23.5723C24.3958 23.7048 23.6977 24.4036 23.5653 25.2952L23.4931 25.8012C23.3005 27.1024 21.9523 27.8855 20.7366 27.3916L20.2551 27.1988C19.4245 26.8614 18.4616 27.1265 17.9079 27.8253L17.5949 28.2229C16.7884 29.259 15.2236 29.259 14.4051 28.2229L14.0921 27.8253C13.5384 27.1145 12.5875 26.8614 11.7449 27.1988L11.2634 27.3916C10.0477 27.8735 8.6875 27.0904 8.50694 25.8012L8.43472 25.2952C8.30231 24.4036 7.60417 23.7048 6.71343 23.5723L6.20787 23.5C4.90787 23.3072 4.12546 21.9578 4.61898 20.741L4.81157 20.259C5.14861 19.4277 4.8838 18.4639 4.18565 17.9096L3.77639 17.5964C2.7412 16.7771 2.7412 15.2229 3.77639 14.4036L4.17361 14.0904C4.8838 13.5361 5.13657 12.5723 4.79954 11.741L4.61898 11.2711C4.1375 10.0542 4.90787 8.69277 6.20787 8.5L6.71343 8.42771C7.60417 8.29518 8.30231 7.59639 8.43472 6.70482L8.50694 6.1988C8.69954 4.89759 10.0477 4.11446 11.2634 4.60843L11.7449 4.8012C12.5755 5.13855 13.5384 4.87349 14.0921 4.1747L14.4051 3.77711C15.2236 2.74096 16.7884 2.74096 17.5949 3.77711Z" stroke="black" stroke-width="2"/>
<path d="M20 13L14.2312 19L12 16.7016" stroke="black" stroke-width="2" stroke-miterlimit="10" stroke-linecap="round" stroke-linejoin="round"/>
</svg>
