<svg width="32" height="32" viewBox="0 0 32 32" fill="none" xmlns="http://www.w3.org/2000/svg">
<path fill-rule="evenodd" clip-rule="evenodd" d="M4.58579 5.58579C4.96086 5.21071 5.46957 5 6 5H26C26.5304 5 27.0391 5.21071 27.4142 5.58579C27.7893 5.96086 28 6.46957 28 7V14.3375C28 25.5235 18.5029 29.2256 16.6406 29.8447C16.2264 29.9931 15.7736 29.9931 15.3594 29.8447C13.4971 29.2256 4 25.5235 4 14.3375V7C4 6.46957 4.21071 5.96086 4.58579 5.58579ZM26 7L6 7L6 14.3375C6 24.1201 14.2747 27.3787 16 27.9501C17.7253 27.3787 26 24.1201 26 14.3375V7Z" fill="black"/>
<path d="M12 16.9091C12 13.7273 16 11 16 11C16 11 20 13.7273 20 16.9091C20 17.9941 19.5786 19.0346 18.8284 19.8018C18.0783 20.569 17.0609 21 16 21C14.9391 21 13.9217 20.569 13.1716 19.8018C12.4214 19.0346 12 17.9941 12 16.9091Z" stroke="black" stroke-width="2" stroke-linecap="round" stroke-linejoin="round"/>
</svg>
