<svg width="20" height="20" viewBox="0 0 20 20" fill="none" xmlns="http://www.w3.org/2000/svg">
<path d="M17.9995 13.9792V16.3878C18.0004 16.6114 17.9545 16.8328 17.8648 17.0377C17.775 17.2425 17.6434 17.4264 17.4783 17.5776C17.3132 17.7288 17.1183 17.8439 16.906 17.9155C16.6938 17.9871 16.4689 18.0137 16.2457 17.9936C13.7702 17.7252 11.3923 16.8809 9.30312 15.5288C7.35937 14.2961 5.71141 12.6514 4.47627 10.7115C3.11669 8.61691 2.27059 6.23219 2.00653 3.75048C1.98643 3.52846 2.01286 3.30469 2.08416 3.09342C2.15546 2.88216 2.27005 2.68802 2.42065 2.52337C2.57124 2.35873 2.75453 2.22718 2.95886 2.13711C3.16319 2.04704 3.38407 2.00041 3.60744 2.0002H6.02086C6.41128 1.99636 6.78977 2.13434 7.0858 2.38842C7.38182 2.64249 7.57517 2.99533 7.62981 3.38116C7.73168 4.15198 7.92059 4.90882 8.19295 5.63725C8.30118 5.92462 8.32461 6.23694 8.26045 6.53719C8.19629 6.83744 8.04723 7.11304 7.83093 7.33133L6.80925 8.35099C7.95446 10.361 9.62206 12.0253 11.6361 13.1683L12.6578 12.1486C12.8765 11.9328 13.1527 11.784 13.4535 11.72C13.7544 11.6559 14.0673 11.6793 14.3552 11.7873C15.0851 12.0591 15.8435 12.2477 16.6158 12.3493C17.0066 12.4044 17.3635 12.6008 17.6186 12.9013C17.8737 13.2018 18.0093 13.5854 17.9995 13.9792Z" stroke="#FBED20" stroke-width="2" stroke-linecap="round" stroke-linejoin="round"/>
</svg>
