<svg width="20" height="20" viewBox="0 0 20 20" fill="none" xmlns="http://www.w3.org/2000/svg">
<path d="M8.45716 11.6602C9.3958 12.5597 10.0607 13.1855 10.6473 13.4592C11.1166 13.733 11.586 13.5374 11.8597 13.2637C12.1335 12.9117 12.4073 12.6379 12.7202 12.2859C13.2677 11.6602 16.1227 12.7552 16.9831 12.9117C17.648 13.1072 18 13.4592 18 13.8894C18 14.437 18 14.9454 18 15.4147C17.2569 17.0182 16.1227 17.9178 14.4019 17.996C11.9379 18.0742 9.12203 17.0182 5.99323 13.9677C2.98176 10.8389 1.92579 8.06205 2.00401 5.55901C2.00401 3.87728 2.94265 2.70398 4.54616 2C5.01548 2 5.60213 2 6.07146 2C6.54077 2 6.93187 2.43021 7.01009 3.05597C7.28386 3.9555 8.41805 6.73231 7.75318 7.31896C7.47941 7.59273 7.08831 7.8665 6.81454 8.14027C6.54077 8.41404 6.34522 8.84425 6.61899 9.39179C6.93187 10.0567 7.47941 10.6824 8.45716 11.6602Z" fill="black"/>
</svg>
