<svg width="32" height="32" viewBox="0 0 32 32" fill="none" xmlns="http://www.w3.org/2000/svg">
<path d="M8.39733 21.6744C7.11746 21.2121 5.91242 20.4613 4.88372 19.4406C1.14032 15.6892 1.14032 9.6239 4.88372 5.88318C8.62444 2.14246 14.6924 2.14246 18.4412 5.88318C21.0463 8.48832 21.8345 12.2157 20.8112 15.5102" stroke="black" stroke-width="2" stroke-miterlimit="10"/>
<path d="M28.2178 22.9088L18.9542 13.6532H16.7338L13.0839 10.0033C12.2957 9.21505 11.0158 9.21505 10.2276 10.0033L9.21226 11.0186C8.42404 11.8068 8.42404 13.0867 9.21226 13.8749L12.8621 17.5248V19.7452L22.1178 29.0008C23.3522 30.2352 25.3749 30.2352 26.6013 29.0008L28.2151 27.395C29.4416 26.1605 29.4416 24.1459 28.2151 22.9114L28.2178 22.9088Z" stroke="black" stroke-width="2" stroke-miterlimit="10"/>
<path d="M16.0391 22.925L11.6624 27.3016C10.9357 28.0284 9.74666 28.0284 9.01187 27.3016C8.2851 26.5749 8.2851 25.3858 9.01187 24.6591L13.3965 20.2744" stroke="black" stroke-width="2" stroke-miterlimit="10"/>
<path d="M5.55664 10.738C5.83719 9.78415 6.35822 8.87568 7.11706 8.11685C7.86787 7.36604 8.7603 6.85302 9.70617 6.56445" stroke="black" stroke-width="2" stroke-miterlimit="10"/>
<path d="M26.8704 23.8408L25.0508 25.6577" stroke="black" stroke-width="2" stroke-miterlimit="10"/>
<path d="M25.0755 22.0459L23.2559 23.8628" stroke="black" stroke-width="2" stroke-miterlimit="10"/>
</svg>
