<svg width="32" height="32" viewBox="0 0 32 32" fill="none" xmlns="http://www.w3.org/2000/svg">
<path d="M17.5524 1.57075L17.7809 1.85764C18.18 2.38004 18.8768 2.56559 19.4763 2.31866L19.8246 2.17736C20.7048 1.82481 21.6879 2.39574 21.8162 3.3392L21.8684 3.71173C21.9643 4.36259 22.4721 4.87357 23.1153 4.97062L23.4792 5.02343C24.4185 5.16474 24.9827 6.15244 24.6273 7.05023L24.4989 7.39421C24.2549 8.00082 24.4425 8.70877 24.9503 9.11413L25.2338 9.34108C25.9856 9.94055 25.9856 11.0767 25.2338 11.6762L24.9376 11.9074C24.4256 12.3113 24.2422 13.0164 24.4862 13.6273L24.6259 13.9799C24.9743 14.8705 24.4101 15.8654 23.4778 15.9981L23.1139 16.0509C22.4707 16.148 21.9629 16.6575 21.867 17.3098L21.8148 17.678C21.6794 18.6329 20.7034 19.2039 19.8232 18.8427L19.4749 18.7014C18.8754 18.4545 18.18 18.6486 17.7795 19.1582L17.551 19.4493C16.967 20.2101 15.8401 20.2101 15.2477 19.4493L15.0192 19.1582C14.62 18.6401 13.9317 18.4545 13.3238 18.7014L12.9754 18.8427C12.0953 19.1953 11.1122 18.6244 10.9839 17.678L10.9317 17.3098C10.8358 16.6589 10.328 16.148 9.68482 16.0509L9.32092 15.9981C8.38155 15.8568 7.81736 14.8691 8.1728 13.9799L8.31244 13.6273C8.55645 13.0164 8.36462 12.3128 7.85686 11.9074L7.56066 11.6762C6.81311 11.0767 6.81311 9.94055 7.56066 9.34108L7.84839 9.11413C8.36462 8.7102 8.54375 8.00082 8.29974 7.39421L8.17703 7.0488C7.82865 6.15815 8.38437 5.16331 9.32515 5.02201L9.68905 4.9692C10.3322 4.87214 10.84 4.36259 10.9359 3.7103L10.9881 3.33777C11.1235 2.38718 12.0995 1.81625 12.9797 2.17593L13.328 2.31724C13.9275 2.56416 14.6229 2.37005 15.0234 1.85621L15.2519 1.56932C15.8415 0.809988 16.9685 0.809988 17.5524 1.57075Z" stroke="black" stroke-width="2" stroke-miterlimit="10"/>
<path d="M19.2913 8.31494L15.1205 12.7011L13.5098 11.0226" stroke="black" stroke-width="2" stroke-miterlimit="10" stroke-linecap="round" stroke-linejoin="round"/>
<path d="M21.7449 17.9648L25.5236 26.5102L21.6053 25.2071L19.9579 29.0308L15.9395 19.9388" stroke="black" stroke-width="2" stroke-miterlimit="10" stroke-linejoin="round"/>
<path d="M11.5836 18.6646L7.29297 28.3632L11.2112 27.06L12.8587 30.8838L16.8207 21.9303" stroke="black" stroke-width="2" stroke-miterlimit="10" stroke-linejoin="round"/>
</svg>
