<svg width="32" height="32" viewBox="0 0 32 32" fill="none" xmlns="http://www.w3.org/2000/svg">
<path fill-rule="evenodd" clip-rule="evenodd" d="M21.998 4.00003C22.5237 3.99812 23.0446 4.10018 23.5307 4.30034C24.0176 4.50079 24.4599 4.79565 24.8321 5.16791C25.2044 5.54017 25.4992 5.98247 25.6997 6.46928C25.8998 6.95533 26.0019 7.47614 26 8.00177C26 8.00258 26 8.0034 26 8.00422L25 8.00003H26V8.00177V22C26 22.5523 25.5523 23 25 23C24.4477 23 24 22.5523 24 22V8.00003L24 7.99583C24.0011 7.73343 23.9502 7.47341 23.8503 7.23077C23.7504 6.98813 23.6034 6.76767 23.4179 6.58213C23.2324 6.39658 23.0119 6.24961 22.7693 6.1497C22.5266 6.04979 22.2666 5.99892 22.0042 6.00002L22 6.00003H5C4.44772 6.00003 4 5.55231 4 5.00003C4 4.44774 4.44772 4.00003 5 4.00003H21.998ZM21.998 4.00003C21.9973 4.00003 21.9966 4.00003 21.9958 4.00004L22 5.00003V4.00003H21.998Z" fill="black"/>
<path fill-rule="evenodd" clip-rule="evenodd" d="M12 13C12 12.4477 12.4477 12 13 12H21C21.5523 12 22 12.4477 22 13C22 13.5523 21.5523 14 21 14H13C12.4477 14 12 13.5523 12 13Z" fill="black"/>
<path fill-rule="evenodd" clip-rule="evenodd" d="M12 17C12 16.4477 12.4477 16 13 16H21C21.5523 16 22 16.4477 22 17C22 17.5523 21.5523 18 21 18H13C12.4477 18 12 17.5523 12 17Z" fill="black"/>
<path fill-rule="evenodd" clip-rule="evenodd" d="M5.23741 6.01561C4.91561 5.97714 4.58929 6.01744 4.28653 6.13306C3.98376 6.24867 3.71363 6.43613 3.49938 6.67929C3.28513 6.92246 3.13318 7.21405 3.05662 7.52896C2.98005 7.84388 2.98116 8.17268 3.05985 8.48707C3.13854 8.80146 3.29245 9.09201 3.50833 9.33373C3.87623 9.74564 3.84054 10.3778 3.42863 10.7457C3.01672 11.1136 2.38456 11.0779 2.01667 10.666C1.5849 10.1826 1.27707 9.60145 1.1197 8.97267C0.962318 8.34389 0.9601 7.68629 1.11323 7.05646C1.26636 6.42663 1.57026 5.84345 1.99876 5.35712C2.42726 4.87079 2.96752 4.49587 3.57305 4.26465C4.17858 4.03342 4.83123 3.95281 5.47482 4.02975C6.11841 4.10669 6.73367 4.33888 7.26762 4.70633C7.80158 5.07379 8.23824 5.5655 8.54002 6.13913C8.8418 6.71277 8.99965 7.35115 9 7.99933V23.9993C9.00017 24.3234 9.0791 24.6426 9.22999 24.9294C9.38088 25.2162 9.59921 25.4621 9.86619 25.6458C10.1332 25.8296 10.4408 25.9456 10.7626 25.9841C11.0844 26.0226 11.4107 25.9823 11.7135 25.8667C12.0162 25.7511 12.2864 25.5636 12.5006 25.3204C12.7149 25.0773 12.8668 24.7857 12.9434 24.4708C13.0199 24.1558 13.0188 23.827 12.9402 23.5127C12.8615 23.1983 12.7076 22.9077 12.4917 22.666C12.2291 22.372 12.1637 21.9511 12.3248 21.5913C12.4858 21.2315 12.8433 20.9999 13.2375 20.9999H27.2375C27.5221 20.9999 27.7931 21.1211 27.9829 21.3332C28.4977 21.9089 28.835 22.6213 28.9538 23.3844C29.0726 24.1475 28.968 24.9288 28.6525 25.6337C28.3371 26.3387 27.8242 26.9373 27.176 27.3571C26.5279 27.7769 25.7722 28.0001 25 27.9999C24.9998 27.9999 25.0002 27.9999 25 27.9999H11C10.9778 27.9999 10.9558 27.9991 10.9339 27.9977C10.7976 27.9955 10.6612 27.9862 10.5252 27.97C9.88158 27.893 9.26633 27.6608 8.73238 27.2934C8.19842 26.9259 7.76176 26.4342 7.45998 25.8606C7.1582 25.287 7.00035 24.6486 7 24.0004V8.0004C6.99983 7.67631 6.9209 7.35712 6.77001 7.0703C6.61912 6.78348 6.40079 6.53763 6.13381 6.3539C5.86683 6.17017 5.55921 6.05408 5.23741 6.01561ZM14.4632 25.9999H25C25.3862 26 25.7646 25.8884 26.0887 25.6785C26.4128 25.4686 26.6692 25.1693 26.827 24.8168C26.9847 24.4643 27.037 24.0737 26.9776 23.6921C26.9395 23.4471 26.8563 23.2126 26.7335 22.9999H14.8734C14.8757 23.0089 14.878 23.018 14.8803 23.0271C15.0377 23.6558 15.0399 24.3134 14.8868 24.9433C14.7963 25.3152 14.6534 25.6708 14.4632 25.9999Z" fill="black"/>
</svg>
