<svg width="32" height="32" viewBox="0 0 32 32" fill="none" xmlns="http://www.w3.org/2000/svg">
<path d="M27.9785 10.4322C29.2942 11.8821 30.3631 13.5149 30.8656 15.5677C31.067 16.5682 31.0414 17.5342 30.7748 18.4599C30.6514 18.7156 30.108 18.4017 29.4828 18.0303C28.3755 17.3705 28.3212 16.8904 27.8552 15.7454C27.1155 13.924 27.1519 14.5256 25.4214 12.9856C24.2054 13.3135 22.8514 13.0022 21.8982 12.0471C20.8817 11.0306 20.5915 9.56084 21.0319 8.28864L19.7003 6.95698L19.4177 7.23763C19.0265 7.6308 18.3846 7.6308 17.9933 7.23763L16.897 6.14315C16.5057 5.74998 16.5057 5.11005 16.897 4.7188L20.3223 1.29344C20.7136 0.902187 21.3535 0.902187 21.7447 1.29344L22.8411 2.38983C23.2343 2.78108 23.2343 3.42294 22.8411 3.81419L22.5605 4.09676L24.3077 5.84396C25.2916 5.80049 26.2902 6.15402 27.0407 6.90583C27.9958 7.86094 28.3091 9.21434 27.9792 10.4322H27.9785Z" stroke="black" stroke-width="2" stroke-miterlimit="10" stroke-linejoin="round"/>
<path d="M21.0125 10.6021L4.84782 24.7804C4.19574 25.3532 4.16121 26.3243 4.77558 26.9387L5.76138 27.9245L5.89179 28.0549L6.87759 29.0407C7.49196 29.655 8.46305 29.6205 9.03586 28.9684L23.158 12.8671" stroke="black" stroke-width="2" stroke-miterlimit="10"/>
<path d="M11.2753 5.79687C9.76915 4.29068 7.59873 3.85404 5.70449 4.48695L9.25835 8.0408L5.83491 11.4655L2.28169 7.91167C1.64751 9.80335 2.08415 11.9744 3.59161 13.4825C5.71344 15.6043 9.15351 15.6043 11.2753 13.4825C13.3991 11.3607 13.3991 7.91934 11.2753 5.79687Z" stroke="black" stroke-width="2" stroke-miterlimit="10" stroke-linejoin="round"/>
<path d="M12.8167 10.3955C13.6593 11.6511 14.3101 12.5813 15.2121 13.6502M20.0759 18.7096L26.5507 25.1844C27.5365 26.1702 27.5365 27.7684 26.5507 28.7542C25.5649 29.74 23.9648 29.74 22.979 28.7542L16.7375 22.5128M11.1743 17.1906C10.2154 16.4004 9.33891 15.7899 8.18945 15.0196" stroke="black" stroke-width="2" stroke-miterlimit="10"/>
</svg>
