<svg width="32" height="32" viewBox="0 0 32 32" fill="none" xmlns="http://www.w3.org/2000/svg">
<path fill-rule="evenodd" clip-rule="evenodd" d="M14.8311 2.36078C15.1736 2.12087 15.5817 1.99219 15.9999 1.99219C16.4181 1.99219 16.8262 2.12088 17.1687 2.36078C17.5066 2.59743 17.7646 2.931 17.9088 3.31724L20.6543 10.231L20.6625 10.2523C20.665 10.2592 20.6695 10.2651 20.6754 10.2694C20.6812 10.2738 20.6882 10.2763 20.6955 10.2767L20.7017 10.2771L28.0767 10.7521C29.9911 10.8764 30.6454 13.2729 29.2521 14.4312C29.2518 14.4314 29.2516 14.4316 29.2513 14.4318L23.6029 19.143L23.5996 19.1457C23.5869 19.1562 23.5775 19.1701 23.5723 19.1857C23.5673 19.201 23.5665 19.2173 23.5702 19.2329C23.5703 19.2334 23.5704 19.2338 23.5705 19.2342L25.394 26.4035C25.8356 28.1464 23.9536 29.716 22.3164 28.6833L22.3139 28.6817L16.0139 24.6817C16.0099 24.6792 16.0047 24.6775 15.9999 24.6775C15.9951 24.6775 15.9905 24.6788 15.9865 24.6814L15.9849 24.6824L10.1243 28.3937C10.124 28.3939 10.1237 28.3941 10.1234 28.3943C8.32737 29.5361 6.25301 27.8001 6.7433 25.8784C6.74322 25.8787 6.74338 25.8781 6.7433 25.8784L8.42934 19.2342C8.42943 19.2338 8.42952 19.2334 8.42961 19.2331C8.43327 19.2174 8.43255 19.201 8.42751 19.1857C8.42235 19.1701 8.41287 19.1562 8.40017 19.1457L8.39689 19.143L2.7485 14.4318C2.74824 14.4316 2.74797 14.4314 2.7477 14.4312C1.35441 13.2729 2.00816 10.8764 3.92261 10.7521L11.3043 10.2767C11.3116 10.2763 11.3186 10.2738 11.3244 10.2694C11.3303 10.2651 11.3348 10.2592 11.3373 10.2523L11.3455 10.231L14.091 3.31724C14.2352 2.931 14.4932 2.59743 14.8311 2.36078ZM17.0865 22.9937C17.0863 22.9936 17.0867 22.9938 17.0865 22.9937L23.3834 26.9917C23.3831 26.9916 23.3837 26.9919 23.3834 26.9917C23.3948 26.9988 23.4023 27.0016 23.4043 27.0022C23.4069 27.0017 23.4156 26.9993 23.4274 26.9903C23.4426 26.9788 23.4523 26.9645 23.4566 26.9529C23.4586 26.9476 23.4599 26.9418 23.4603 26.9347C23.4607 26.928 23.4605 26.9154 23.4556 26.8958C23.4556 26.8957 23.4556 26.8958 23.4556 26.8958L21.6293 19.7159C21.5346 19.3341 21.5497 18.9333 21.6728 18.5598C21.7956 18.1869 22.0211 17.8563 22.3234 17.6059C22.324 17.6054 22.3246 17.6049 22.3252 17.6044L27.9735 12.8932C27.9852 12.8835 27.9902 12.8766 27.9923 12.8732C27.9946 12.8695 27.9966 12.8653 27.9981 12.8593C28.0017 12.8458 28.0029 12.8226 27.9946 12.7957C27.9863 12.7689 27.974 12.7559 27.9704 12.7528C27.9692 12.7518 27.9688 12.7517 27.9684 12.7515C27.9683 12.7514 27.9625 12.7489 27.9479 12.748C27.9478 12.7479 27.9481 12.748 27.9479 12.748L20.5793 12.2733C20.5781 12.2733 20.5769 12.2732 20.5758 12.2731C20.1819 12.2495 19.8033 12.112 19.486 11.8773C19.1713 11.6446 18.9304 11.3262 18.792 10.9603L16.0455 4.04411C16.0419 4.03508 16.0385 4.026 16.0351 4.01687C16.0325 4.00964 16.0277 4.00339 16.0214 3.99897C16.0151 3.99456 16.0076 3.99219 15.9999 3.99219C15.9922 3.99219 15.9847 3.99456 15.9784 3.99897C15.9721 4.00339 15.9673 4.00964 15.9647 4.01687C15.9613 4.026 15.9579 4.03508 15.9543 4.04411L13.2078 10.9603C13.0694 11.3262 12.8285 11.6446 12.5138 11.8773C12.1966 12.112 11.818 12.2495 11.4241 12.2731L4.0522 12.7479C4.05209 12.7479 4.05231 12.7479 4.0522 12.7479C4.03764 12.7489 4.03163 12.7514 4.03152 12.7515C4.03107 12.7516 4.03069 12.7518 4.02941 12.7528C4.02578 12.7559 4.01348 12.7689 4.00519 12.7957C3.99687 12.8226 3.99812 12.8458 4.00167 12.8593C4.00323 12.8653 4.00523 12.8695 4.00755 12.8732C4.00966 12.8766 4.01461 12.8835 4.02631 12.8932L4.02792 12.8946L9.67464 17.6044C9.67529 17.6049 9.67595 17.6054 9.6766 17.606C9.97875 17.8564 10.2042 18.187 10.327 18.5598C10.4501 18.9333 10.4652 19.3341 10.3705 19.7159L10.3692 19.721L8.68127 26.3726C8.64514 26.514 8.69498 26.6236 8.78632 26.693C8.83307 26.7285 8.88029 26.7438 8.9176 26.7464C8.94847 26.7486 8.9912 26.7441 9.05053 26.7064L14.9133 22.9937C14.9138 22.9934 14.9144 22.993 14.9149 22.9927C15.2393 22.7868 15.6156 22.6775 15.9999 22.6775C16.3846 22.6775 16.7618 22.7874 17.0865 22.9937Z" fill="black"/>
</svg>
