<svg width="24" height="24" viewBox="0 0 24 24" fill="none" xmlns="http://www.w3.org/2000/svg">
<mask id="path-1-inside-1_113_3164" fill="white">
<path fill-rule="evenodd" clip-rule="evenodd" d="M1.48399 10.8316C0.838671 11.4769 0.838671 12.5231 1.48399 13.1684L3.62043 15.3049V19.2106C3.62043 19.7914 4.09122 20.2622 4.67197 20.2622H8.57772L10.8316 22.516C11.4769 23.1613 12.5231 23.1613 13.1684 22.516L15.4223 20.2622H19.0932C19.674 20.2622 20.1448 19.7914 20.1448 19.2106V15.5397L22.516 13.1684C23.1613 12.5231 23.1613 11.4769 22.516 10.8316L20.1448 8.46029V4.7894C20.1448 4.20865 19.674 3.73785 19.0932 3.73785H15.4223L13.1684 1.48399C12.5231 0.838671 11.4769 0.838671 10.8316 1.48399L8.57769 3.73785H4.67197C4.09122 3.73785 3.62043 4.20864 3.62043 4.7894V8.69512L1.48399 10.8316Z"/>
</mask>
<path d="M1.48399 13.1684L0.0697726 14.5827L0.069773 14.5827L1.48399 13.1684ZM1.48399 10.8316L0.0697726 9.41734H0.0697723L1.48399 10.8316ZM3.62043 15.3049H5.62043V14.4765L5.03464 13.8907L3.62043 15.3049ZM8.57772 20.2622L9.99193 18.848L9.40614 18.2622H8.57772V20.2622ZM15.4223 20.2622V18.2622H14.5939L14.0081 18.848L15.4223 20.2622ZM20.1448 15.5397L18.7305 14.1255L18.1448 14.7113V15.5397H20.1448ZM20.1448 8.46029H18.1448V9.28872L18.7305 9.8745L20.1448 8.46029ZM15.4223 3.73785L14.0081 5.15207L14.5939 5.73785H15.4223V3.73785ZM13.1684 1.48399L14.5827 0.0697726L14.5827 0.0697723L13.1684 1.48399ZM10.8316 1.48399L9.41734 0.0697726V0.0697728L10.8316 1.48399ZM8.57769 3.73785V5.73785H9.40612L9.9919 5.15207L8.57769 3.73785ZM3.62043 8.69512L5.03464 10.1093L5.62043 9.52354V8.69512H3.62043ZM2.8982 11.7542C3.03393 11.89 3.03393 12.11 2.8982 12.2458L0.0697723 9.41734C-1.35659 10.8437 -1.35659 13.1563 0.0697726 14.5827L2.8982 11.7542ZM5.03464 13.8907L2.8982 11.7542L0.069773 14.5827L2.20621 16.7191L5.03464 13.8907ZM5.62043 19.2106V15.3049H1.62043V19.2106H5.62043ZM4.67197 18.2622C5.19579 18.2622 5.62043 18.6868 5.62043 19.2106H1.62043C1.62043 20.8959 2.98665 22.2622 4.67197 22.2622V18.2622ZM8.57772 18.2622H4.67197V22.2622H8.57772V18.2622ZM12.2458 21.1018L9.99193 18.848L7.1635 21.6764L9.41734 23.9302L12.2458 21.1018ZM11.7542 21.1018C11.89 20.9661 12.11 20.9661 12.2458 21.1018L9.41734 23.9302C10.8437 25.3566 13.1563 25.3566 14.5827 23.9302L11.7542 21.1018ZM14.0081 18.848L11.7542 21.1018L14.5827 23.9302L16.8365 21.6764L14.0081 18.848ZM19.0932 18.2622H15.4223V22.2622H19.0932V18.2622ZM18.1448 19.2106C18.1448 18.6868 18.5694 18.2622 19.0932 18.2622V22.2622C20.7785 22.2622 22.1448 20.896 22.1448 19.2106H18.1448ZM18.1448 15.5397V19.2106H22.1448V15.5397H18.1448ZM21.1018 11.7542L18.7305 14.1255L21.559 16.9539L23.9302 14.5827L21.1018 11.7542ZM21.1018 12.2458C20.9661 12.11 20.9661 11.89 21.1018 11.7542L23.9302 14.5827C25.3566 13.1563 25.3566 10.8437 23.9302 9.41734L21.1018 12.2458ZM18.7305 9.8745L21.1018 12.2458L23.9302 9.41734L21.559 7.04608L18.7305 9.8745ZM18.1448 4.7894V8.46029H22.1448V4.7894H18.1448ZM19.0932 5.73785C18.5694 5.73785 18.1448 5.31321 18.1448 4.7894H22.1448C22.1448 3.10408 20.7785 1.73785 19.0932 1.73785V5.73785ZM15.4223 5.73785H19.0932V1.73785H15.4223V5.73785ZM11.7542 2.8982L14.0081 5.15207L16.8365 2.32364L14.5827 0.0697726L11.7542 2.8982ZM12.2458 2.8982C12.11 3.03393 11.89 3.03393 11.7542 2.8982L14.5827 0.0697723C13.1563 -1.35659 10.8437 -1.35659 9.41734 0.0697726L12.2458 2.8982ZM9.9919 5.15207L12.2458 2.8982L9.41734 0.0697728L7.16348 2.32364L9.9919 5.15207ZM4.67197 5.73785H8.57769V1.73785H4.67197V5.73785ZM5.62043 4.7894C5.62043 5.31322 5.19579 5.73785 4.67197 5.73785V1.73785C2.98665 1.73785 1.62043 3.10407 1.62043 4.7894H5.62043ZM5.62043 8.69512V4.7894H1.62043V8.69512H5.62043ZM2.8982 12.2458L5.03464 10.1093L2.20621 7.2809L0.0697726 9.41734L2.8982 12.2458Z" fill="black" mask="url(#path-1-inside-1_113_3164)"/>
<circle cx="9.5" cy="9.5" r="1.5" fill="black"/>
<circle cx="14.5" cy="14.5" r="1.5" fill="black"/>
<path d="M14 10L10 14" stroke="black" stroke-width="2" stroke-linecap="round"/>
</svg>
