<svg width="14" height="14" viewBox="0 0 14 14" fill="none" xmlns="http://www.w3.org/2000/svg">
<rect x="1.66797" y="1.74219" width="10.5155" height="10.5155" rx="1.05155" fill="#FBED20"/>
<path d="M0.307991 7.74356C-0.102664 7.3329 -0.102664 6.6671 0.307991 6.25644L6.25644 0.307991C6.6671 -0.102664 7.3329 -0.102664 7.74356 0.307991L13.692 6.25644C14.1027 6.6671 14.1027 7.3329 13.692 7.74356L7.74356 13.692C7.3329 14.1027 6.6671 14.1027 6.25644 13.692L0.307991 7.74356Z" fill="#FBED20"/>
<path fill-rule="evenodd" clip-rule="evenodd" d="M6 4.5C6 5.32843 5.32843 6 4.5 6C3.67157 6 3 5.32843 3 4.5C3 3.67157 3.67157 3 4.5 3C5.32843 3 6 3.67157 6 4.5ZM11 9.5C11 10.3284 10.3284 11 9.5 11C8.67157 11 8 10.3284 8 9.5C8 8.67157 8.67157 8 9.5 8C10.3284 8 11 8.67157 11 9.5ZM9.70711 5.70711C10.0976 5.31658 10.0976 4.68342 9.70711 4.29289C9.31658 3.90237 8.68342 3.90237 8.29289 4.29289L4.29289 8.29289C3.90237 8.68342 3.90237 9.31658 4.29289 9.70711C4.68342 10.0976 5.31658 10.0976 5.70711 9.70711L9.70711 5.70711Z" fill="black"/>
</svg>
