<svg width="32" height="32" viewBox="0 0 32 32" fill="none" xmlns="http://www.w3.org/2000/svg">
<path d="M15.146 16.8543C16.1256 17.8338 17.1096 18.8178 18.0925 19.8007C18.4847 18.4433 19.0599 17.2089 19.8865 16.2138C20.64 15.3062 21.2462 14.9416 22.3177 14.4552C23.7782 13.7892 25.2077 13.1044 26.4865 12.2655C29.0152 10.6067 32.0238 7.97156 28.0157 3.97013C24.0143 -0.0191051 21.388 2.98723 19.7325 5.51264C18.8936 6.79141 18.2088 8.21977 17.5428 9.6836C17.0564 10.7552 16.6918 11.358 15.7843 12.1115C14.7881 12.9382 13.5536 13.5155 12.1973 13.9055C13.1802 14.8884 14.1631 15.8714 15.1471 16.8554L15.146 16.8543Z" stroke="black" stroke-width="2" stroke-miterlimit="10" stroke-linejoin="round"/>
<path d="M19.3216 16.9738L15.0254 12.6765" stroke="black" stroke-width="2" stroke-miterlimit="10"/>
<path d="M16.9045 18.6108L7.13859 27.356L2.07227 29.928L4.64421 24.8617L13.3928 15.0991" stroke="black" stroke-width="2" stroke-miterlimit="10" stroke-linejoin="round"/>
</svg>
