<svg width="24" height="24" viewBox="0 0 24 24" fill="none" xmlns="http://www.w3.org/2000/svg">
<path d="M6.19273 2.34018C8.38366 1.58214 10.8787 2.09019 12.6018 3.87237C14.3249 5.67875 14.8317 8.2593 14.0832 10.5011L21.2047 17.1534C22.2651 18.2501 22.2651 20.0565 21.2047 21.1775C20.1209 22.2742 18.3744 22.2742 17.3141 21.1775L10.2159 14.501C8.04839 15.2751 5.55338 14.751 3.80688 12.9688C2.08376 11.1866 1.60035 8.60606 2.32546 6.34002L6.08357 10.227C6.37206 10.5495 6.87886 10.5495 7.19073 10.227L9.95084 7.37223C10.2627 7.04967 10.2627 6.52549 9.95084 6.22712L6.19273 2.34018Z" stroke="black" stroke-width="2" stroke-miterlimit="10" stroke-linejoin="round"/>
</svg>
