<svg width="33" height="32" viewBox="0 0 33 32" fill="none" xmlns="http://www.w3.org/2000/svg">
<path d="M5.43805 24.5841H16.7478C19.0575 24.5841 20.9159 22.6991 20.9159 20.3982V14.7788C20.9159 11.9912 18.208 11.1416 15.2434 11.469L12.7566 13.354H6.64159C5.26106 13.354 4.11062 12.2035 4.11062 10.823V4.55752C4.11062 3.15929 5.26106 2 6.64159 2H26.0575C28.4911 2 30.5 3.9823 30.5 6.41593V26.0088C30.5 28.4425 28.4911 30.4248 26.0575 30.4248H5.43805C3.83628 30.4248 2.5 29.1239 2.5 27.5133C2.5 25.885 3.82743 24.5752 5.43805 24.5752V24.5841Z" stroke="#FBED20" stroke-width="2" stroke-miterlimit="10"/>
<path d="M7.5 20C7.5 20.5523 7.94771 21 8.5 21C9.05228 21 9.5 20.5523 9.5 20L7.5 20ZM7.5 14L7.5 20L9.5 20L9.5 14L7.5 14Z" fill="#FBED20"/>
<path d="M12.5 19C13.0523 19 13.5 18.5523 13.5 18C13.5 17.4477 13.0523 17 12.5 17L12.5 19ZM8.5 19L12.5 19L12.5 17L8.5 17L8.5 19Z" fill="#FBED20"/>
<path d="M8.5 2V8" stroke="#FBED20" stroke-width="2"/>
<circle cx="24.5" cy="8" r="2" stroke="#FBED20" stroke-width="2"/>
</svg>
