<svg width="33" height="32" viewBox="0 0 33 32" fill="none" xmlns="http://www.w3.org/2000/svg">
<path d="M15.0001 13C12.2218 13.0188 9.71988 13.1251 8.6527 14.826C8.14696 15.7306 7.6479 16.6331 7.14885 17.5315H4.18124C2.93806 18.951 3.45494 20.1496 5.25511 21.1834C4.80729 21.7566 4.36393 22.3299 3.91612 22.9031V28.2559C3.91612 28.6644 4.27704 29 4.71149 29H8.19152C8.62819 29 8.98689 28.6623 8.98689 28.2559V26.0818H21.0177V28.2559C21.0177 28.6644 21.3719 29 21.8064 29H25.2931C25.7298 29 26.0818 28.6623 26.0818 28.2559V22.9031C25.6407 22.3299 25.1906 21.7566 24.7495 21.1834C26.5497 20.1496 27.0598 18.951 25.8167 17.5315H22.8557C22.35 16.6331 21.851 15.7285 21.3519 14.826C20.2803 13.1251 17.785 13.0188 15.0001 13Z" stroke="#FBED20" stroke-width="2" stroke-miterlimit="10"/>
<path d="M7.5 17C7.5 18.5 22.5 19 22.5 17" stroke="#FBED20" stroke-width="2" stroke-linecap="round"/>
<path d="M24.9554 3.37504L26.1833 7.67641L30.1538 8.98721C30.6109 9.14257 30.6199 9.84166 30.1538 9.99702L26.1833 11.3272L24.9554 15.6286C24.812 16.1238 24.1577 16.1238 24.0233 15.6286L22.8133 11.3272L18.8428 9.99702C18.3857 9.84166 18.3857 9.13286 18.8428 8.98721L22.8133 7.67641L24.0233 3.37504C24.1667 2.87985 24.812 2.87014 24.9554 3.37504Z" stroke="#FBED20" stroke-width="2" stroke-miterlimit="10"/>
<path d="M8.5 22L11.5 23" stroke="#FBED20" stroke-width="2" stroke-linecap="round"/>
<path d="M21.5 22L18.5 23" stroke="#FBED20" stroke-width="2" stroke-linecap="round"/>
</svg>
