<svg width="32" height="32" viewBox="0 0 32 32" fill="none" xmlns="http://www.w3.org/2000/svg">
<path d="M16 2.15259C18.7018 2.15259 21.2218 2.92628 23.3512 4.26242L24.6383 2.9754C25.8418 1.77189 27.819 1.77189 29.0249 2.9754C30.2284 4.17891 30.2284 6.1561 29.0249 7.36207L27.7305 8.64908C29.074 10.7786 29.8477 13.301 29.8477 16.0003C29.8477 18.6996 29.074 21.2221 27.7305 23.3515L29.0249 24.6386C30.2284 25.8421 30.2284 27.8193 29.0249 29.0252C27.8214 30.2287 25.8442 30.2287 24.6383 29.0252L23.3512 27.7308C21.2218 29.0743 18.6993 29.848 16 29.848C13.3007 29.848 10.7783 29.0743 8.64878 27.7308L7.36176 29.0252C6.15825 30.2287 4.18106 30.2287 2.97509 29.0252C1.77158 27.8217 1.77158 25.8445 2.97509 24.6386L4.26211 23.3515C2.92351 21.2221 2.15229 18.7021 2.15229 16.0003C2.15229 13.2986 2.92597 10.7786 4.26211 8.64908L2.97509 7.36207C1.76913 6.1561 1.76913 4.17891 2.97264 2.97294C4.1786 1.76944 6.15579 1.76944 7.3593 2.97294L8.64632 4.25996C10.7783 2.92382 13.2983 2.15259 16 2.15259Z" stroke="black" stroke-width="2" stroke-miterlimit="10"/>
<path d="M16.0003 24.501C20.6866 24.501 24.501 20.6866 24.501 16.0003C24.501 11.3139 20.6866 7.49219 16.0003 7.49219C11.3139 7.49219 7.49219 11.3139 7.49219 16.0003C7.49219 20.6866 11.3139 24.501 16.0003 24.501Z" stroke="black" stroke-width="2" stroke-miterlimit="10"/>
<path d="M16.0013 19C17.6544 19 19 17.6544 19 16.0013C19 14.3482 17.6544 13 16.0013 13C14.3482 13 13 14.3482 13 16.0013C13 17.6544 14.3482 19 16.0013 19Z" stroke="black" stroke-width="2" stroke-miterlimit="10"/>
</svg>
