<svg width="32" height="32" viewBox="0 0 32 32" fill="none" xmlns="http://www.w3.org/2000/svg">
<path d="M13.4531 12.2624H17.1009H20.7465L19.8998 6.70801H17.1009H14.2932L13.4531 12.2624Z" stroke="black" stroke-width="2" stroke-miterlimit="10"/>
<path d="M9.26367 28.8817H24.6862V21.7254C24.6862 17.7882 21.465 14.5757 17.5299 14.5757H16.4134C12.4827 14.5757 9.26367 17.7903 9.26367 21.7254V28.8817Z" stroke="black" stroke-width="2" stroke-miterlimit="10"/>
<path d="M19.3683 12.2622V14.8174M14.5801 14.8174V12.2622" stroke="black" stroke-width="2" stroke-miterlimit="10"/>
<path d="M13.5901 11.3353H9.83787L6.66675 18.8811C6.2728 19.8192 5.19327 20.2632 4.24868 19.8692C3.30409 19.4753 2.86009 18.3892 3.25621 17.4512L6.88222 8.81926C7.14775 8.12931 7.82028 7.63525 8.61034 7.63525H13.8731C13.9666 7.63525 14.0581 7.64178 14.1516 7.65484" stroke="black" stroke-width="2" stroke-miterlimit="10"/>
<path d="M20.0352 7.62207L26.9999 8.76254V10.1642L20.6206 11.4461" stroke="black" stroke-width="2" stroke-miterlimit="10"/>
<path d="M17.1367 6.70794V4.15283" stroke="black" stroke-width="2" stroke-linecap="round"/>
<path d="M20.1182 4.15283L14.1562 4.15283" stroke="black" stroke-width="2" stroke-linecap="round"/>
</svg>
