<svg width="33" height="32" viewBox="0 0 33 32" fill="none" xmlns="http://www.w3.org/2000/svg">
<path d="M5.5 20.5V6C5.5 4.89543 6.39543 4 7.5 4H15.6716C16.202 4 16.7107 4.21071 17.0858 4.58579L20.9142 8.41421C21.2893 8.78929 21.5 9.29799 21.5 9.82843V19" stroke="#FBED20" stroke-width="2"/>
<path d="M9 29C10.3934 29 11.5 27.8627 11.5 26.5C11.5 25.1373 10.3934 24 9 24C7.60656 24 6.5 25.1373 6.5 26.5C6.5 27.8627 7.6373 29 9 29Z" stroke="#FBED20" stroke-width="2" stroke-miterlimit="10"/>
<path d="M26 29C27.3627 29 28.5 27.8627 28.5 26.5C28.5 25.1373 27.3627 24 26 24C24.6373 24 23.5 25.1373 23.5 26.5C23.5 27.8627 24.6373 29 26 29Z" stroke="#FBED20" stroke-width="2" stroke-miterlimit="10"/>
<path d="M11.5449 26.9134L23.6123 27M28.1668 27H29.6227C30.1827 27 30.5 26.2882 30.5 25.7976V23.1525C30.5 21.979 29.0161 21.4596 27.9895 21.2191C26.5895 20.969 25.1896 20.7574 23.7803 20.5362C22.1937 19.3915 20.6632 18.2469 18.9646 17.6698C17.4526 17.2561 16.2114 17.0926 14.9421 17.0445C12.2449 16.9387 11.6383 16.9099 9.27705 18.295C8.58642 18.6797 8.03578 19.0356 6.99983 19.6897C6.43986 20.1225 5.80522 20.4015 5.09592 20.4784C3.88265 20.6131 3.50933 20.7478 3.90131 22.0848C3.98531 22.306 4.05997 22.5753 4.16263 22.8735C3.94798 23.3929 3.5 23.6334 3.5 24.451V25.7592C3.5 26.4421 4.16263 26.8461 4.66661 26.8461H7.01849" stroke="#FBED20" stroke-width="2" stroke-miterlimit="10"/>
<path fill-rule="evenodd" clip-rule="evenodd" d="M11.5 10C11.5 9.44772 11.9477 9 12.5 9L17.5 9C18.0523 9 18.5 9.44772 18.5 10C18.5 10.5523 18.0523 11 17.5 11H12.5C11.9477 11 11.5 10.5523 11.5 10Z" fill="#FBED20"/>
<path fill-rule="evenodd" clip-rule="evenodd" d="M11.5 14C11.5 13.4477 11.9477 13 12.5 13L17.5 13C18.0523 13 18.5 13.4477 18.5 14C18.5 14.5523 18.0523 15 17.5 15H12.5C11.9477 15 11.5 14.5523 11.5 14Z" fill="#FBED20"/>
<path fill-rule="evenodd" clip-rule="evenodd" d="M8.5 10C8.5 9.44772 8.94772 9 9.5 9C10.0523 9 10.5 9.44772 10.5 10C10.5 10.5523 10.0523 11 9.5 11C8.94772 11 8.5 10.5523 8.5 10Z" fill="#FBED20"/>
<path fill-rule="evenodd" clip-rule="evenodd" d="M8.5 14C8.5 13.4477 8.94772 13 9.5 13C10.0523 13 10.5 13.4477 10.5 14C10.5 14.5523 10.0523 15 9.5 15C8.94772 15 8.5 14.5523 8.5 14Z" fill="#FBED20"/>
</svg>
