<svg width="32" height="32" viewBox="0 0 32 32" fill="none" xmlns="http://www.w3.org/2000/svg">
<path d="M8.25391 15.4637C8.42938 8.55835 11.9162 3.04541 16.1943 3.04541C20.4724 3.04541 24.1395 8.84431 24.1395 16.0015V16.0747M23.6602 20.4324C22.5505 25.4059 19.6259 28.9528 16.1943 28.9528C13.1541 28.9528 10.5117 26.1687 9.17606 22.0766" stroke="black" stroke-width="2" stroke-miterlimit="10" stroke-linecap="round"/>
<path d="M27.0318 14.4872C28.252 14.9243 28.9523 15.4458 28.9523 16.0031C28.9523 16.6807 27.9108 17.3014 26.1609 17.7953M21.8454 18.5784C20.0858 18.7767 18.1003 18.892 16.0011 18.892C8.84382 18.8904 3.04492 17.5954 3.04492 16.0015C3.04492 14.4076 8.84382 13.1143 16.0011 13.1143C17.3966 13.1143 18.7407 13.1611 19.9995 13.2507" stroke="black" stroke-width="2" stroke-miterlimit="10" stroke-linecap="round"/>
<path d="M24.019 20.4647C25.2262 20.4647 26.2108 19.4785 26.2108 18.268C26.2108 17.0575 25.2246 16.0762 24.019 16.0762C22.8134 16.0762 21.8223 17.0624 21.8223 18.268C21.8223 19.4736 22.8085 20.4647 24.019 20.4647Z" stroke="black" stroke-width="2" stroke-miterlimit="10"/>
</svg>
