<svg width="16" height="16" viewBox="0 0 16 16" fill="none" xmlns="http://www.w3.org/2000/svg">
<path d="M13.2566 3.42183C13.1475 3.36602 13.0414 3.30483 12.9386 3.23851C12.6395 3.04267 12.3653 2.81191 12.1219 2.55121C11.5128 1.86091 11.2853 1.16061 11.2015 0.6703H11.2049C11.1349 0.26332 11.1638 0 11.1682 0H8.39407V10.6255C8.39407 10.7681 8.39407 10.9091 8.38801 11.0484C8.38801 11.0658 8.38633 11.0818 8.38532 11.1004C8.38532 11.1081 8.38532 11.1161 8.38364 11.1241C8.38364 11.1261 8.38364 11.1281 8.38364 11.1301C8.35439 11.5114 8.23101 11.8796 8.02435 12.2026C7.81769 12.5255 7.53408 12.7931 7.19846 12.982C6.84868 13.1791 6.45307 13.2825 6.05064 13.282C4.75813 13.282 3.71059 12.2381 3.71059 10.9488C3.71059 9.65952 4.75813 8.61557 6.05064 8.61557C6.29531 8.61535 6.53847 8.65348 6.7711 8.72856L6.77447 5.9307C6.06827 5.84035 5.35082 5.89594 4.6674 6.09398C3.98397 6.29201 3.3494 6.62819 2.80371 7.08131C2.32555 7.49283 1.92357 7.98383 1.61584 8.53224C1.49874 8.73223 1.05691 9.53586 1.0034 10.8401C0.969752 11.5804 1.1942 12.3474 1.30121 12.6644V12.671C1.36851 12.8577 1.6293 13.4947 2.05431 14.0316C2.39702 14.4624 2.80192 14.8407 3.25597 15.1546V15.1479L3.2627 15.1546C4.60569 16.0585 6.09473 15.9992 6.09473 15.9992C6.35249 15.9889 7.21596 15.9992 8.19654 15.5389C9.28412 15.0286 9.90329 14.2683 9.90329 14.2683C10.2989 13.814 10.6134 13.2963 10.8334 12.7374C11.0844 12.0837 11.1682 11.2998 11.1682 10.9865V5.3494C11.2019 5.3694 11.6501 5.66305 11.6501 5.66305C11.6501 5.66305 12.2958 6.07303 13.3033 6.34002C14.0262 6.53001 15 6.57001 15 6.57001V3.84214C14.6588 3.87881 13.9659 3.77215 13.2566 3.42183Z" fill="white"/>
</svg>
