<svg width="32" height="32" viewBox="0 0 32 32" fill="none" xmlns="http://www.w3.org/2000/svg">
<path d="M16.0008 2.00586C8.27141 2.00586 2.00586 8.27141 2.00586 16.0008C2.00586 23.7302 8.2709 29.9942 16.0008 29.9942C23.7307 29.9942 29.9942 23.7292 29.9942 16.0008C29.9942 8.27242 23.7292 2.00586 16.0008 2.00586ZM16.0008 11.6356C17.1705 11.6356 18.2343 12.0971 19.0177 12.8485C21.0819 13.5198 23.1329 14.1653 25.0084 14.4624C25.6047 14.5344 25.9328 14.4092 26.0661 14.1278C25.1864 9.36865 21.0139 5.76255 16.0008 5.76255C10.9876 5.76255 6.81365 9.36916 5.93393 14.1283C6.06779 14.4102 6.39534 14.5349 6.99163 14.4629C8.86718 14.1653 10.9182 13.5198 12.9824 12.849C13.7657 12.0971 14.8295 11.6362 16.0008 11.6362V11.6356ZM6.07489 18.5147C7.01901 22.2501 10.0161 25.1682 13.7946 25.9987C14.0259 25.77 14.2403 25.4612 14.433 25.0546C14.9157 23.0943 14.3869 19.9131 12.776 18.5309C11.7082 17.6137 10.1672 17.243 7.96819 17.6269C6.94041 17.8211 6.28075 18.0711 6.0754 18.5152L6.07489 18.5147ZM18.2054 25.9987C21.9839 25.1682 24.9811 22.2501 25.9252 18.5147C25.7198 18.0705 25.0602 17.8206 24.0324 17.6264C21.8333 17.2425 20.2924 17.6132 19.2246 18.5304C17.6132 19.9131 17.0843 23.0938 17.5676 25.0541C17.7602 25.4607 17.9742 25.77 18.2059 25.9982L18.2054 25.9987Z" stroke="black" stroke-width="2" stroke-miterlimit="10" stroke-linejoin="round"/>
</svg>
