<svg width="20" height="20" viewBox="0 0 20 20" fill="none" xmlns="http://www.w3.org/2000/svg">
<path d="M19 3.00012V8.00012H14" stroke="#FBED20" stroke-width="2" stroke-linecap="round" stroke-linejoin="round"/>
<path d="M1 16.0001V11.0001H6" stroke="#FBED20" stroke-width="2" stroke-linecap="round" stroke-linejoin="round"/>
<path d="M3.05364 6.99946C3.46859 5.80481 4.17384 4.73671 5.10356 3.89483C6.03329 3.05296 7.1572 2.46474 8.37042 2.18508C9.58363 1.90542 10.8466 1.94342 12.0415 2.29554C13.2364 2.64766 14.3243 3.30242 15.2036 4.19873L19 7.83302M1 11.1672L4.79636 14.8015C5.6757 15.6978 6.76358 16.3526 7.95848 16.7047C9.15338 17.0568 10.4164 17.0948 11.6296 16.8152C12.8428 16.5355 13.9667 15.9473 14.8964 15.1054C15.8262 14.2635 16.5314 13.1954 16.9464 12.0008" stroke="#FBED20" stroke-width="2" stroke-linecap="round" stroke-linejoin="round"/>
</svg>
